<svg width="70" height="47" viewBox="0 0 70 47" fill="none" xmlns="http://www.w3.org/2000/svg">
<g clip-path="url(#clip0)">
<path d="M67.3101 25.719C67.3101 24.8951 67.9175 24.2209 68.6598 24.2209C69.4022 24.2209 70.0096 24.8951 70.0096 25.719C70.0096 26.5429 69.4118 27.2171 68.6598 27.2171C67.9078 27.2171 67.3101 26.5429 67.3101 25.719Z" fill="white"/>
</g>
<path d="M3.62784 1.84618C3.53052 3.04446 3.18005 4.14472 2.66436 4.83576C3.25332 4.82358 3.7954 5.37711 4.11842 6.31809C4.16092 5.79142 4.25645 5.27148 4.39759 4.7891C4.5714 4.19175 4.80663 3.69541 5.08173 3.32296C4.48991 3.33245 3.9507 2.78161 3.62784 1.84618Z" fill="white"/>
<path d="M4.12117 6.31528C3.79816 5.3743 3.26164 4.82059 2.66712 4.83295C3.18281 4.14191 3.53042 3.03895 3.6306 1.84337C3.95632 2.78149 4.48997 3.3325 5.08449 3.32014C4.80669 3.69545 4.57416 4.18894 4.40035 4.78628C4.25365 5.26884 4.16368 5.7886 4.12117 6.31528ZM3.4639 0.277775L3.4612 0.280636C3.39033 0.327249 3.34369 0.439849 3.35192 0.528556L3.35478 0.53125C3.545 2.41582 2.98296 4.42869 2.09462 5.02255C2.05641 5.04594 2.02981 5.08566 2.00893 5.13077C1.98822 5.18143 1.97861 5.23176 1.98551 5.27603C1.9966 5.36743 2.06174 5.40716 2.1353 5.35769C3.03828 4.78841 3.93845 5.87878 4.13776 7.7881L4.13523 7.79652C4.14632 7.88792 4.21129 7.9221 4.28502 7.87818L4.28772 7.87532C4.35859 7.8287 4.40523 7.7161 4.397 7.6274C4.2992 6.68797 4.38319 5.69303 4.63784 4.82638C4.87464 4.01309 5.23462 3.41291 5.64874 3.13357L5.65143 3.13071L5.65682 3.12499L5.67584 3.11051C5.72483 3.07568 5.76457 3.01055 5.77922 2.94339C5.79388 2.87623 5.77015 2.82691 5.74137 2.79442C5.71832 2.76731 5.67657 2.76579 5.63819 2.78363L5.63803 2.77807L5.60537 2.80129C4.70508 3.36771 3.80777 2.28003 3.60847 0.370713L3.60561 0.36802C3.60259 0.268036 3.53207 0.234023 3.4639 0.277775Z" fill="white"/>
<path d="M4.12117 6.31528C3.79816 5.3743 3.26164 4.82059 2.66712 4.83295C3.18281 4.14191 3.53042 3.03895 3.6306 1.84337C3.95632 2.78149 4.48997 3.3325 5.08449 3.32014C4.80669 3.69545 4.57416 4.18894 4.40035 4.78628C4.25365 5.26884 4.16368 5.7886 4.12117 6.31528ZM3.4639 0.277775L3.4612 0.280636C3.39033 0.327249 3.34369 0.439849 3.35192 0.528556L3.35478 0.53125C3.545 2.41582 2.98296 4.42869 2.09462 5.02255C2.05641 5.04594 2.02981 5.08566 2.00893 5.13077C1.98822 5.18143 1.97861 5.23176 1.98551 5.27603C1.9966 5.36743 2.06174 5.40716 2.1353 5.35769C3.03828 4.78841 3.93845 5.87878 4.13776 7.7881L4.13523 7.79652C4.14632 7.88792 4.21129 7.9221 4.28502 7.87818L4.28772 7.87532C4.35859 7.8287 4.40523 7.7161 4.397 7.6274C4.2992 6.68797 4.38319 5.69303 4.63784 4.82638C4.87464 4.01309 5.23462 3.41291 5.64874 3.13357L5.65143 3.13071L5.65682 3.12499L5.67584 3.11051C5.72483 3.07568 5.76457 3.01055 5.77922 2.94339C5.79388 2.87623 5.77015 2.82691 5.74137 2.79442C5.71832 2.76731 5.67657 2.76579 5.63819 2.78363L5.63803 2.77807L5.60537 2.80129C4.70508 3.36771 3.80777 2.28003 3.60847 0.370713L3.60561 0.36802C3.60259 0.268036 3.53207 0.234023 3.4639 0.277775Z" fill="white"/>
<defs>
<clipPath id="clip0">
<rect width="36" height="22" fill="white" transform="translate(34 24.2209)"/>
</clipPath>
</defs>
</svg>
