<svg width="406" height="156" viewBox="0 0 406 156" fill="none" xmlns="http://www.w3.org/2000/svg">
<g clip-path="url(#clip0)">
<path d="M199.839 40.774C199.823 40.774 199.815 40.774 199.798 40.774C198.319 40.774 197.112 38.8683 197.104 36.5151C197.112 38.8517 195.939 40.7408 194.476 40.7823C195.956 40.7823 197.162 42.688 197.17 45.0411C197.162 42.688 198.36 40.774 199.839 40.774Z" fill="white"/>
<path d="M54.9095 115.884C54.9095 115.246 55.4301 114.724 56.0664 114.724C56.7027 114.724 57.2233 115.246 57.2233 115.884C57.2233 116.522 56.7109 117.044 56.0664 117.044C55.4219 117.044 54.9095 116.522 54.9095 115.884Z" fill="white"/>
<path d="M403.695 149.863C403.695 149.225 404.215 148.703 404.851 148.703C405.488 148.703 406.008 149.225 406.008 149.863C406.008 150.501 405.496 151.023 404.851 151.023C404.207 151.023 403.695 150.501 403.695 149.863Z" fill="white"/>
<path d="M140.831 55.3651C140.831 55.6965 140.559 55.97 140.228 55.97C139.897 55.97 139.625 55.6965 139.625 55.3651C139.625 55.0337 139.889 54.7603 140.228 54.7603C140.567 54.7685 140.831 55.0337 140.831 55.3651Z" fill="#17203A" stroke="white" stroke-width="2" stroke-miterlimit="10"/>
<path d="M101.643 33.6512L90.2128 22.2209L78.7825 33.6512L90.2128 45.0815L101.643 33.6512Z" fill="#16203B" stroke="white" stroke-miterlimit="10" stroke-linecap="round" stroke-linejoin="round"/>
<path d="M73.2899 57.0956C81.1821 57.0956 87.5799 50.6978 87.5799 42.8057C87.5799 34.9136 81.1821 28.5157 73.2899 28.5157C65.3978 28.5157 59 34.9136 59 42.8057C59 50.6978 65.3978 57.0956 73.2899 57.0956Z" fill="#16203B" stroke="white" stroke-miterlimit="10" stroke-linecap="round" stroke-linejoin="round"/>
<path d="M93.2807 45.086H90.2171L101.876 33.6541H104.943L93.2807 45.086Z" fill="white" stroke="white" stroke-miterlimit="10" stroke-linecap="round" stroke-linejoin="round"/>
<path d="M105 33.6543H101.933L90.2171 22.2253H93.2807L105 33.6543Z" fill="white" stroke="white" stroke-miterlimit="10" stroke-linecap="round" stroke-linejoin="round"/>
<path d="M218.872 111.299L208.425 110.479L207.062 127.839L217.508 128.659L218.872 111.299Z" fill="white" stroke="white" stroke-miterlimit="10" stroke-linejoin="round"/>
<path d="M221.711 121.023L207.182 127.896L208.29 110.093L222.819 103.221L221.711 121.023Z" fill="#16203B" stroke="white" stroke-miterlimit="10" stroke-linejoin="round"/>
<path d="M233.283 130.741L221.711 121.023L222.819 103.221L234.391 112.938L233.283 130.741Z" fill="white" stroke="white" stroke-miterlimit="10" stroke-linejoin="round"/>
<path d="M245.89 121.023L233.283 130.741L234.391 112.938L247.001 103.221L245.89 121.023Z" fill="#16203B" stroke="white" stroke-miterlimit="10" stroke-linejoin="round"/>
<path d="M343.472 54.8408H326.04V72.272H343.472V54.8408Z" fill="#16203B" stroke="white" stroke-miterlimit="10" stroke-linecap="round" stroke-linejoin="round"/>
<path d="M348.777 76.629H331.346L326.04 72.272H343.472L348.777 76.629Z" fill="white" stroke="white" stroke-miterlimit="10" stroke-linecap="round" stroke-linejoin="round"/>
<path d="M348.777 76.629L343.472 72.272V54.8408L348.777 61.3474V76.629Z" fill="white" stroke="white" stroke-miterlimit="10" stroke-linecap="round" stroke-linejoin="round"/>
<path d="M343.471 63.5487L334.312 79.4096H352.628L343.471 63.5487Z" fill="#16203B" stroke="white" stroke-miterlimit="10" stroke-linecap="round" stroke-linejoin="round"/>
<path d="M358 83.2209L352.628 79.4096L343.472 63.5487L350.213 68.7716L358 83.2209Z" fill="#16203B" stroke="white" stroke-miterlimit="10" stroke-linecap="round" stroke-linejoin="round"/>
<path d="M357.985 83.2087L340.797 83.2209L334.312 79.4097L352.615 79.3975L357.985 83.2087Z" fill="#16203B" stroke="white" stroke-miterlimit="10" stroke-linecap="round" stroke-linejoin="round"/>
<path d="M326.04 65.2593C331.586 65.2593 336.081 60.7641 336.081 55.2189C336.081 49.6738 331.586 45.1786 326.04 45.1786C320.495 45.1786 316 49.6738 316 55.2189C316 60.7641 320.495 65.2593 326.04 65.2593Z" fill="#16203B" stroke="white" stroke-miterlimit="10" stroke-linecap="round" stroke-linejoin="round"/>
</g>
<path d="M145.825 125.755C145.307 124.933 144.673 124.527 144.111 124.672C144.446 123.9 144.529 122.774 144.356 121.616C144.876 122.434 145.507 122.838 146.069 122.693C145.889 123.112 145.779 123.633 145.747 124.239C145.716 124.731 145.747 125.245 145.825 125.755ZM143.847 120.165L143.845 120.169C143.788 120.229 143.769 120.346 143.797 120.429L143.8 120.431C144.403 122.179 144.321 124.217 143.61 124.981C143.578 125.012 143.562 125.055 143.552 125.103C143.544 125.156 143.546 125.206 143.563 125.246C143.594 125.33 143.664 125.354 143.723 125.29C144.454 124.547 145.553 125.381 146.171 127.151L146.17 127.159C146.201 127.244 146.271 127.261 146.331 127.203L146.333 127.2C146.39 127.14 146.409 127.022 146.381 126.94C146.078 126.069 145.934 125.105 145.982 124.224C146.025 123.398 146.232 122.747 146.563 122.389L146.565 122.386L146.569 122.379L146.584 122.361C146.623 122.317 146.646 122.246 146.645 122.179C146.643 122.112 146.61 122.071 146.575 122.046C146.547 122.026 146.507 122.033 146.475 122.059L146.473 122.054L146.448 122.083C145.719 122.823 144.623 121.991 144.005 120.221L144.002 120.219C143.977 120.125 143.902 120.109 143.847 120.165Z" fill="white"/>
<path d="M283.374 60.5412C284.136 59.332 285.069 58.7347 285.896 58.9481C285.403 57.8118 285.281 56.1548 285.535 54.45C284.77 55.6544 283.842 56.2488 283.015 56.0354C283.28 56.6518 283.442 57.4185 283.488 58.3111C283.534 59.0343 283.488 59.7907 283.374 60.5412ZM286.285 52.3159L286.288 52.3208C286.371 52.4094 286.399 52.5822 286.359 52.7035L286.354 52.7063C285.466 55.2787 285.588 58.2787 286.634 59.4021C286.68 59.4474 286.704 59.5117 286.718 59.5817C286.731 59.6594 286.728 59.7329 286.703 59.7925C286.658 59.9167 286.553 59.9507 286.467 59.8573C285.392 58.7634 283.774 59.9911 282.865 62.5951L282.866 62.6077C282.82 62.7319 282.718 62.7582 282.63 62.6725L282.627 62.6676C282.543 62.5791 282.515 62.4062 282.556 62.2849C283.002 61.0036 283.213 59.5847 283.143 58.2889C283.08 57.0735 282.775 56.1156 282.288 55.5884L282.285 55.5835L282.279 55.5737L282.257 55.5472C282.2 55.4823 282.166 55.3782 282.168 55.2794C282.17 55.1807 282.219 55.1195 282.27 55.0836C282.311 55.0533 282.37 55.0649 282.418 55.1025L282.42 55.0948L282.458 55.1381C283.53 56.2271 285.144 55.0022 286.052 52.3982L286.057 52.3953C286.094 52.2565 286.204 52.2322 286.285 52.3159Z" fill="white"/>
<path d="M321.362 132.453C320.126 130.492 318.613 129.523 317.271 129.869C318.071 128.025 318.269 125.337 317.856 122.572C319.097 124.525 320.603 125.49 321.945 125.144C321.515 126.144 321.252 127.388 321.177 128.836C321.103 130.009 321.177 131.236 321.362 132.453ZM316.64 119.11L316.636 119.118C316.5 119.261 316.454 119.542 316.521 119.738L316.529 119.743C317.969 123.916 317.771 128.783 316.073 130.605C315.999 130.679 315.96 130.783 315.937 130.897C315.917 131.023 315.922 131.142 315.962 131.239C316.036 131.44 316.205 131.495 316.345 131.344C318.089 129.569 320.714 131.561 322.188 135.785L322.187 135.806C322.261 136.007 322.427 136.05 322.57 135.911L322.575 135.903C322.711 135.759 322.756 135.479 322.69 135.282C321.966 133.203 321.624 130.902 321.737 128.799C321.839 126.828 322.335 125.274 323.125 124.418L323.129 124.411L323.138 124.395L323.174 124.352C323.266 124.246 323.322 124.077 323.319 123.917C323.316 123.757 323.236 123.658 323.153 123.6C323.087 123.55 322.991 123.569 322.914 123.63L322.91 123.618L322.849 123.688C321.109 125.455 318.492 123.467 317.018 119.243L317.01 119.238C316.95 119.013 316.772 118.974 316.64 119.11Z" fill="white"/>
<path d="M139.321 112.053C139.151 114.14 138.541 116.057 137.642 117.261C138.668 117.24 139.613 118.205 140.176 119.844C140.25 118.927 140.416 118.021 140.662 117.18C140.965 116.139 141.375 115.275 141.854 114.626C140.823 114.642 139.884 113.682 139.321 112.053Z" fill="white"/>
<path d="M140.18 119.839C139.618 118.2 138.683 117.235 137.647 117.256C138.546 116.052 139.151 114.131 139.326 112.048C139.893 113.682 140.823 114.642 141.859 114.621C141.375 115.275 140.97 116.134 140.667 117.175C140.411 118.016 140.255 118.922 140.18 119.839ZM139.035 109.32L139.031 109.325C138.907 109.406 138.826 109.602 138.84 109.757L138.845 109.762C139.177 113.045 138.197 116.552 136.65 117.587C136.583 117.628 136.537 117.697 136.5 117.775C136.464 117.864 136.447 117.951 136.459 118.028C136.479 118.188 136.592 118.257 136.72 118.171C138.294 117.179 139.862 119.079 140.209 122.405L140.205 122.42C140.224 122.579 140.337 122.639 140.466 122.562L140.471 122.557C140.594 122.476 140.675 122.28 140.661 122.125C140.491 120.489 140.637 118.755 141.081 117.245C141.493 115.828 142.12 114.782 142.842 114.296L142.847 114.291L142.856 114.281L142.889 114.255C142.975 114.195 143.044 114.081 143.069 113.964C143.095 113.847 143.054 113.761 143.003 113.705C142.963 113.657 142.89 113.655 142.824 113.686L142.823 113.676L142.766 113.717C141.198 114.704 139.634 112.808 139.287 109.482L139.282 109.477C139.277 109.303 139.154 109.244 139.035 109.32Z" fill="white"/>
<path d="M140.18 119.839C139.618 118.2 138.683 117.235 137.647 117.256C138.546 116.052 139.151 114.131 139.326 112.048C139.893 113.682 140.823 114.642 141.859 114.621C141.375 115.275 140.97 116.134 140.667 117.175C140.411 118.016 140.255 118.922 140.18 119.839ZM139.035 109.32L139.031 109.325C138.907 109.406 138.826 109.602 138.84 109.757L138.845 109.762C139.177 113.045 138.197 116.552 136.65 117.587C136.583 117.628 136.537 117.697 136.5 117.775C136.464 117.864 136.447 117.951 136.459 118.028C136.479 118.188 136.592 118.257 136.72 118.171C138.294 117.179 139.862 119.079 140.209 122.405L140.205 122.42C140.224 122.579 140.337 122.639 140.466 122.562L140.471 122.557C140.594 122.476 140.675 122.28 140.661 122.125C140.491 120.489 140.637 118.755 141.081 117.245C141.493 115.828 142.12 114.782 142.842 114.296L142.847 114.291L142.856 114.281L142.889 114.255C142.975 114.195 143.044 114.081 143.069 113.964C143.095 113.847 143.054 113.761 143.003 113.705C142.963 113.657 142.89 113.655 142.824 113.686L142.823 113.676L142.766 113.717C141.198 114.704 139.634 112.808 139.287 109.482L139.282 109.477C139.277 109.303 139.154 109.244 139.035 109.32Z" fill="white"/>
<defs>
<clipPath id="clip0">
<rect width="406" height="155" fill="white" transform="translate(0 0.928223)"/>
</clipPath>
</defs>
</svg>
