<svg width="375" height="169" viewBox="0 0 375 169" fill="none" xmlns="http://www.w3.org/2000/svg">
<path d="M188.036 80.0425C188.049 80.0425 188.063 80.0425 188.077 80.0425C189.448 80.063 190.594 78.3157 190.629 76.1316C190.594 78.2952 191.666 80.063 193.017 80.1176C191.645 80.0971 190.499 81.8512 190.465 84.0285C190.499 81.8512 189.407 80.063 188.036 80.0425Z" fill="white"/>
<path d="M204.61 68.0027C204.617 68.0027 204.624 68.0027 204.63 68.0027C205.32 68.0163 205.9 67.129 205.913 66.0302C205.9 67.1154 206.432 68.0095 207.121 68.0368C206.432 68.0231 205.852 68.9104 205.838 70.0093C205.852 68.9104 205.306 68.0095 204.61 68.0027Z" fill="white"/>
<path d="M233.364 40.169C233.364 39.7458 233.023 39.4045 232.6 39.4045C232.177 39.4045 231.836 39.7458 231.836 40.169C231.836 40.5921 232.177 40.9334 232.6 40.9334C233.023 40.9334 233.364 40.5921 233.364 40.169Z" fill="white"/>
<path d="M134.601 140.426C134.601 140.003 134.26 139.661 133.836 139.661C133.413 139.661 133.072 140.003 133.072 140.426C133.072 140.849 133.413 141.19 133.836 141.19C134.26 141.19 134.601 140.849 134.601 140.426Z" fill="white"/>
<path d="M348.528 153.351C348.528 152.928 348.187 152.586 347.764 152.586C347.341 152.586 347 152.928 347 153.351C347 153.774 347.341 154.115 347.764 154.115C348.18 154.115 348.528 153.774 348.528 153.351Z" fill="white"/>
<path d="M18.9899 33.4052C18.9899 32.982 18.6487 32.6407 18.2257 32.6407C17.8026 32.6407 17.4614 32.982 17.4614 33.4052C17.4614 33.8284 17.8026 34.1696 18.2257 34.1696C18.6487 34.1696 18.9899 33.8284 18.9899 33.4052Z" fill="white"/>
<path d="M326.58 120.796C326.58 120.373 326.239 120.032 325.816 120.032C325.393 120.032 325.052 120.373 325.052 120.796C325.052 121.22 325.393 121.561 325.816 121.561C326.239 121.561 326.58 121.22 326.58 120.796Z" fill="white"/>
<path d="M4.53081 27.1259C4.53081 25.87 3.51411 24.8599 2.26541 24.8599C1.00988 24.8531 0 25.87 0 27.1259C0 28.3749 1.00988 29.3919 2.26541 29.3919C3.52093 29.3919 4.53081 28.3749 4.53081 27.1259Z" fill="white"/>
<path d="M62.8446 93.263C65.3393 93.263 67.3617 91.2401 67.3617 88.7447C67.3617 86.2493 65.3393 84.2263 62.8446 84.2263C60.3498 84.2263 58.3274 86.2493 58.3274 88.7447C58.3274 91.2401 60.3498 93.263 62.8446 93.263Z" stroke="white" stroke-miterlimit="10" stroke-linecap="round" stroke-dasharray="2.97 2.97"/>
<path d="M243.176 29.4182C243.345 31.506 243.956 33.423 244.855 34.627C243.828 34.6058 242.884 35.5703 242.321 37.2097C242.247 36.2921 242.081 35.3862 241.835 34.5457C241.532 33.505 241.122 32.6402 240.643 31.9912C241.674 32.0078 242.613 31.048 243.176 29.4182Z" fill="white"/>
<path d="M242.316 37.2048C242.879 35.5653 243.814 34.6006 244.85 34.6221C243.951 33.4181 243.346 31.4963 243.171 29.4133C242.604 31.0478 241.674 32.0078 240.638 31.9863C241.122 32.6402 241.527 33.5 241.83 34.5408C242.086 35.3816 242.242 36.2872 242.316 37.2048ZM243.462 26.6855L243.466 26.6905C243.59 26.7717 243.671 26.9679 243.657 27.1224L243.652 27.1271C243.32 30.4107 244.3 33.9177 245.847 34.9524C245.914 34.9932 245.96 35.0624 245.997 35.141C246.033 35.2293 246.049 35.3169 246.037 35.3941C246.018 35.5533 245.905 35.6226 245.776 35.5364C244.203 34.5445 242.635 36.4443 242.287 39.7709L242.292 39.7856C242.273 39.9449 242.159 40.0044 242.031 39.9279L242.026 39.9229C241.903 39.8417 241.821 39.6455 241.836 39.4909C242.006 37.8542 241.86 36.1206 241.416 34.6107C241.004 33.1936 240.376 32.1479 239.655 31.6612L239.65 31.6562L239.641 31.6463L239.608 31.621C239.522 31.5603 239.453 31.4469 239.428 31.3299C239.402 31.2128 239.443 31.1269 239.493 31.0703C239.534 31.0231 239.606 31.0204 239.673 31.0515L239.674 31.0418L239.73 31.0823C241.299 32.0692 242.862 30.1741 243.21 26.8474L243.215 26.8427C243.22 26.6685 243.343 26.6092 243.462 26.6855Z" fill="white"/>
<path d="M242.316 37.2048C242.879 35.5653 243.814 34.6006 244.85 34.6221C243.951 33.4181 243.346 31.4963 243.171 29.4133C242.604 31.0478 241.674 32.0078 240.638 31.9863C241.122 32.6402 241.527 33.5 241.83 34.5408C242.086 35.3816 242.242 36.2872 242.316 37.2048ZM243.462 26.6855L243.466 26.6905C243.59 26.7717 243.671 26.9679 243.657 27.1224L243.652 27.1271C243.32 30.4107 244.3 33.9177 245.847 34.9524C245.914 34.9932 245.96 35.0624 245.997 35.141C246.033 35.2293 246.049 35.3169 246.037 35.3941C246.018 35.5533 245.905 35.6226 245.776 35.5364C244.203 34.5445 242.635 36.4443 242.287 39.7709L242.292 39.7856C242.273 39.9449 242.159 40.0044 242.031 39.9279L242.026 39.9229C241.903 39.8417 241.821 39.6455 241.836 39.4909C242.006 37.8542 241.86 36.1206 241.416 34.6107C241.004 33.1936 240.376 32.1479 239.655 31.6612L239.65 31.6562L239.641 31.6463L239.608 31.621C239.522 31.5603 239.453 31.4469 239.428 31.3299C239.402 31.2128 239.443 31.1269 239.493 31.0703C239.534 31.0231 239.606 31.0204 239.673 31.0515L239.674 31.0418L239.73 31.0823C241.299 32.0692 242.862 30.1741 243.21 26.8474L243.215 26.8427C243.22 26.6685 243.343 26.6092 243.462 26.6855Z" fill="white"/>
<path d="M223.983 136.586L238.294 128.951L234.025 112.614L219.421 120.891L223.983 136.586Z" fill="white" stroke="white" stroke-miterlimit="10" stroke-linecap="round" stroke-linejoin="round"/>
<path d="M238.114 129.067L244.83 131.835" stroke="white" stroke-miterlimit="10" stroke-linecap="round" stroke-linejoin="round" stroke-dasharray="4 4"/>
<path d="M219.166 121.367L232.757 126.966" stroke="#16203B" stroke-miterlimit="10" stroke-linecap="round" stroke-linejoin="round" stroke-dasharray="4 4"/>
<path d="M211.481 129.438L227.277 133.136L232.757 114.646L217.27 111.436L211.481 129.438Z" fill="#16203B" stroke="white" stroke-miterlimit="10" stroke-linecap="round" stroke-linejoin="round"/>
<path d="M212.296 118.573L224.128 123.445" stroke="white" stroke-miterlimit="10" stroke-linecap="round" stroke-linejoin="round" stroke-dasharray="4 4"/>
<path d="M207.806 130.559L222.117 122.92L217.848 106.586L203.247 114.863L207.806 130.559Z" fill="white" stroke="white" stroke-miterlimit="10" stroke-linecap="round" stroke-linejoin="round"/>
<path d="M203.247 114.843L212.296 118.573" stroke="#16203B" stroke-miterlimit="10" stroke-linecap="round" stroke-linejoin="round" stroke-dasharray="4 4"/>
<path d="M342.354 80.3557L317.148 76.3767L310.492 45.1605L335.699 49.1395L342.354 80.3557Z" fill="white" stroke="white" stroke-width="1.5" stroke-miterlimit="10" stroke-linecap="round" stroke-linejoin="round"/>
<path d="M323.38 82.4546L296.532 78.2166L310.492 45.4732L335.699 49.4522L323.38 82.4546Z" fill="#16203B" stroke="white" stroke-miterlimit="10" stroke-linecap="round" stroke-linejoin="round"/>
<path d="M118.18 140.912C117.618 139.272 116.683 138.308 115.647 138.329C116.546 137.125 117.151 135.204 117.326 133.12C117.893 134.755 118.823 135.715 119.859 135.693C119.375 136.347 118.97 137.207 118.667 138.248C118.411 139.089 118.255 139.994 118.18 140.912ZM117.035 130.393L117.031 130.398C116.907 130.479 116.826 130.675 116.84 130.83L116.845 130.834C117.177 134.118 116.197 137.625 114.65 138.66C114.583 138.7 114.537 138.77 114.5 138.848C114.464 138.936 114.447 139.024 114.459 139.101C114.479 139.26 114.592 139.33 114.72 139.244C116.294 138.252 117.862 140.151 118.209 143.478L118.205 143.493C118.224 143.652 118.337 143.712 118.466 143.635L118.471 143.63C118.594 143.549 118.675 143.353 118.661 143.198C118.491 141.561 118.637 139.828 119.081 138.318C119.493 136.901 120.12 135.855 120.842 135.368L120.847 135.363L120.856 135.353L120.889 135.328C120.975 135.268 121.044 135.154 121.069 135.037C121.095 134.92 121.054 134.834 121.003 134.777C120.963 134.73 120.89 134.728 120.824 134.759L120.823 134.749L120.766 134.789C119.198 135.776 117.634 133.881 117.287 130.555L117.282 130.55C117.277 130.376 117.154 130.316 117.035 130.393Z" fill="white"/>
<path d="M152.825 22.8767C152.525 22.0035 152.027 21.4896 151.475 21.5011C151.954 20.8598 152.276 19.8362 152.369 18.7267C152.672 19.5973 153.167 20.1086 153.719 20.0972C153.461 20.4455 153.245 20.9034 153.084 21.4578C152.947 21.9056 152.864 22.388 152.825 22.8767ZM152.215 17.2738L152.212 17.2764C152.146 17.3197 152.103 17.4242 152.111 17.5065L152.113 17.509C152.29 19.2579 151.768 21.1259 150.944 21.677C150.908 21.6987 150.884 21.7356 150.864 21.7775C150.845 21.8245 150.836 21.8712 150.843 21.9123C150.853 21.9971 150.913 22.034 150.982 21.9881C151.82 21.4597 152.655 22.4716 152.84 24.2435L152.838 24.2513C152.848 24.3362 152.908 24.3679 152.977 24.3271L152.979 24.3245C153.045 24.2812 153.088 24.1767 153.081 24.0944C152.99 23.2226 153.068 22.2993 153.304 21.495C153.524 20.7402 153.858 20.1833 154.242 19.924L154.245 19.9214L154.25 19.9161L154.267 19.9026C154.313 19.8703 154.35 19.8099 154.363 19.7475C154.377 19.6852 154.355 19.6394 154.328 19.6093C154.307 19.5841 154.268 19.5827 154.232 19.5993L154.232 19.5941L154.202 19.6157C153.366 20.1413 152.534 19.1319 152.349 17.36L152.346 17.3575C152.343 17.2647 152.278 17.2332 152.215 17.2738Z" fill="white"/>
<path d="M83.0906 25.2833L69.6255 31.4446L72.7242 45.6139L86.9569 39.3561L83.0906 25.2833Z" fill="#16203B"/>
<path d="M89.4082 30.1048L83.0908 25.2828L86.9571 39.3556L93.7055 43.2277L89.4082 30.1048Z" fill="#16203B"/>
<path d="M83.0906 25.2833L69.6255 31.4446L72.7242 45.6139L86.9569 39.3561" stroke="white" stroke-miterlimit="10" stroke-linecap="round" stroke-linejoin="round"/>
<path d="M79.965 48.5069L72.6581 45.7436L86.9571 39.3558L93.7535 43.376L79.965 48.5069Z" fill="white" stroke="white" stroke-miterlimit="10" stroke-linejoin="round"/>
<path d="M86.9571 39.3556L93.7055 43.2277L89.4082 30.1048L83.0908 25.2828" stroke="white" stroke-miterlimit="10" stroke-linecap="round" stroke-linejoin="round"/>
<path d="M83.0908 25.2828L86.9571 39.3556" stroke="white" stroke-miterlimit="10" stroke-linecap="round" stroke-linejoin="round" stroke-dasharray="4 4"/>
<path d="M99.4462 18.991L113.228 26.0182L115.679 15.3068L102.817 8.74878L99.4462 18.991Z" fill="#16203B"/>
<path d="M99.4462 18.9911L93.2284 27.5544L105.785 33.9568L113.228 26.0183L99.4462 18.9911Z" fill="#16203B"/>
<path d="M113.228 26.0182L115.679 15.3068L102.817 8.74878L99.4462 18.991" stroke="white" stroke-miterlimit="10" stroke-linejoin="round"/>
<path d="M99.4462 18.991L99.9766 19.2615" stroke="white" stroke-linecap="round" stroke-linejoin="round"/>
<path d="M100.955 19.7604L112.209 25.4988" stroke="white" stroke-linecap="round" stroke-linejoin="round" stroke-dasharray="3.69 3.69"/>
<path d="M112.698 25.7478L113.228 26.0183" stroke="white" stroke-linecap="round" stroke-linejoin="round"/>
<path d="M99.4462 18.9911L93.2284 27.5544L105.785 33.9568L113.228 26.0183" stroke="white" stroke-miterlimit="10" stroke-linejoin="round"/>
<path d="M96.3642 17.4196L93.0611 27.5025L99.4463 18.9911L102.655 8.66642L96.3642 17.4196Z" fill="white" stroke="white" stroke-miterlimit="10" stroke-linejoin="round"/>
<path d="M96.217 53.9861L107.851 58.9991L117.246 60.5246L105.348 54.8756L96.217 53.9861Z" fill="#16203B"/>
<path d="M101.328 40.2664L96.217 53.9861L105.348 54.8757L110.828 38.9578L101.328 40.2664Z" fill="#16203B"/>
<path d="M110.893 38.8304L105.348 54.8756L117.4 60.603L121.818 45.7912L110.893 38.8304Z" fill="white" stroke="white" stroke-miterlimit="10" stroke-linejoin="round"/>
<path d="M105.307 54.8713L105.348 54.8757L110.828 38.9578L101.328 40.2664L96.217 53.9861" stroke="white" stroke-miterlimit="10" stroke-linecap="round" stroke-linejoin="round"/>
<path d="M96.2169 53.9862L105.307 54.8715" stroke="white" stroke-miterlimit="10" stroke-linecap="round" stroke-linejoin="round" stroke-dasharray="4 4"/>
<path d="M96.217 53.9861L107.851 58.9991L117.246 60.5246L105.348 54.8756" stroke="white" stroke-miterlimit="10" stroke-linecap="round" stroke-linejoin="round"/>
</svg>
