<svg width="32" height="29" viewBox="0 0 32 29" fill="none" xmlns="http://www.w3.org/2000/svg">
<path d="M1 6.35881C1.02156 6.35881 1.03773 6.35881 1.05929 6.35881C3.21521 6.39117 5.01002 3.64585 5.06392 0.220947C5.01541 3.61349 6.68625 6.39117 8.81522 6.47747C6.6593 6.44511 4.86449 9.19042 4.81059 12.6153C4.86449 9.19582 3.16131 6.39656 1 6.35881Z" stroke="white" stroke-miterlimit="10"/>
<path d="M28.5204 26.2018C28.5312 26.2018 28.5366 26.2018 28.5473 26.2018C29.442 26.2018 30.1643 25.0584 30.1697 23.6453C30.1643 25.0476 30.8757 26.1856 31.7543 26.2126C30.8596 26.2126 30.1373 27.356 30.1319 28.7745C30.1373 27.3506 29.4151 26.2018 28.5204 26.2018Z" fill="white"/>
</svg>
