<svg width="154" height="123" viewBox="0 0 154 123" fill="none" xmlns="http://www.w3.org/2000/svg">
<g clip-path="url(#clip0)">
<path d="M4.59049 9.78623C6.9477 9.78623 8.8586 7.87546 8.8586 5.51842C8.8586 3.16137 6.9477 1.25061 4.59049 1.25061C2.23328 1.25061 0.322388 3.16137 0.322388 5.51842C0.322388 7.87546 2.23328 9.78623 4.59049 9.78623Z" stroke="white" stroke-miterlimit="10" stroke-linecap="round" stroke-dasharray="2.97 2.97"/>
<path d="M149.293 119.157C149.306 119.157 149.319 119.157 149.332 119.157C150.628 119.176 151.711 117.526 151.743 115.463C151.711 117.506 152.723 119.176 154 119.228C152.704 119.208 151.621 120.865 151.589 122.922C151.621 120.865 150.589 119.176 149.293 119.157Z" fill="white"/>
</g>
<defs>
<clipPath id="clip0">
<rect width="154" height="122" fill="white" transform="translate(0 0.928223)"/>
</clipPath>
</defs>
</svg>
