<svg width="1433" height="720" viewBox="0 0 1433 720" fill="none" xmlns="http://www.w3.org/2000/svg">
<path fill-rule="evenodd" clip-rule="evenodd" d="M270.627 626.971L313.32 630.683L331.498 602.754L344.815 623.657L390.106 599.97L368.225 628.245L419.547 620.068L372.396 642.623L405.468 653.906L354.992 659.967L354.321 685.334L324.545 672.183L290.828 699.563L295.385 673.461L244.095 690.465L280.629 663.424L235.685 661.782L287.808 646.47L270.627 626.971ZM273.786 628.306L290 646.708L241.451 660.97L283.298 662.499L248.818 688.019L296.968 672.057L292.611 697.006L324.78 670.883L352.976 683.336L353.614 659.203L400.643 653.556L369.713 643.003L413.853 621.889L365.995 629.514L386.814 602.611L343.905 625.053L331.204 605.117L313.844 631.79L273.786 628.306Z" fill="white"/>
<path d="M1263.17 430.917C1366.36 484.795 1533.8 395.192 1433.39 299.206" stroke="white" stroke-width="0.7"/>
<path d="M-118.66 621.081C-28.6417 634.559 169.521 613.831 220.264 495.573C221.251 378.543 302.661 138.943 619.15 109.131M627.157 108.426C624.471 108.646 621.803 108.881 619.15 109.131M627.157 108.426C950.282 81.9325 756.455 97.8569 619.15 109.131M627.157 108.426C752.429 96.3722 996.881 107.991 961.866 280.342" stroke="white" stroke-width="0.7"/>
<path fill-rule="evenodd" clip-rule="evenodd" d="M1079.87 456.94L1103.84 484.471L1122.72 463.789L1124.4 494.059L1157.94 492.929L1136.79 511.957L1169.33 531.173L1135.02 530.036L1151.12 560.595L1119.71 539.521L1111.86 567.008L1098.24 536.208L1070.41 547.751L1080.75 521.593L1045.64 512.087L1075.03 502.464L1049.13 475.971L1084.23 487.791L1079.87 456.94ZM1081.33 460.143L1085.44 489.256L1052.75 478.246L1076.87 502.914L1049.13 511.996L1082.09 520.92L1072.2 545.923L1098.76 534.91L1111.66 564.075L1119.12 537.925L1148.39 557.56L1133.33 528.98L1165.45 530.044L1135.11 512.125L1155.24 494.021L1123.45 495.091L1121.85 466.222L1103.82 485.974L1081.33 460.143Z" fill="white"/>
<path d="M735.396 1050.97L413.035 701.378L364.924 638.342L619.616 449.428L645.109 444.496L861.793 259.605L1083.87 194.58L1216.65 335.6L1226.34 302.964L1319.48 429.855L1337 615.012L735.396 1050.97Z" fill="#424494"/>
<path fill-rule="evenodd" clip-rule="evenodd" d="M735.745 1051.43C735.491 1051.62 735.143 1051.59 734.939 1051.37L412.578 701.78C412.567 701.767 412.555 701.753 412.545 701.74L364.433 638.704C364.238 638.447 364.298 638.078 364.568 637.877L619.26 448.963C619.336 448.906 619.424 448.867 619.518 448.849L644.847 443.95L861.404 259.168C861.438 259.138 861.476 259.113 861.515 259.091C861.554 259.07 861.595 259.054 861.638 259.041L1083.72 194.016C1083.94 193.952 1084.17 194.012 1084.33 194.173L1216.37 334.422L1225.76 302.818C1225.82 302.598 1226.01 302.43 1226.24 302.386C1226.47 302.341 1226.7 302.428 1226.83 302.609L1319.97 429.501C1320.03 429.583 1320.07 429.679 1320.08 429.78L1337.6 614.937C1337.62 615.145 1337.52 615.352 1337.34 615.48L735.745 1051.43ZM1336.36 614.749L1318.89 430.084L1226.56 304.301L1217.23 335.744C1217.16 335.952 1216.99 336.115 1216.78 336.169C1216.56 336.224 1216.34 336.161 1216.19 336.006L1083.67 195.249L862.078 260.131L645.497 444.933C645.414 445.004 645.313 445.052 645.206 445.073L619.854 449.978L365.767 638.443L413.508 700.994L735.492 1050.17L1336.36 614.749Z" fill="#0F192E"/>
<path fill-rule="evenodd" clip-rule="evenodd" d="M735.432 1051.07C735.16 1050.89 735.098 1050.53 735.293 1050.26L761.653 1013.51L522.958 773.688L412.686 701.871C412.413 701.693 412.348 701.328 412.54 701.055C412.732 700.783 413.11 700.706 413.383 700.884L523.705 772.734C523.739 772.756 523.77 772.781 523.798 772.81L762.875 1013.02C763.072 1013.22 763.093 1013.53 762.925 1013.76L736.276 1050.91C736.081 1051.18 735.703 1051.25 735.432 1051.07Z" fill="#0F192E"/>
<path fill-rule="evenodd" clip-rule="evenodd" d="M1337.4 615.436C1337.15 615.662 1336.77 615.655 1336.54 615.42L1224.85 497.941C1224.73 497.82 1224.68 497.654 1224.7 497.486C1224.72 497.318 1224.81 497.164 1224.95 497.062L1319.13 429.385C1319.4 429.189 1319.78 429.24 1319.97 429.499C1320.16 429.759 1320.1 430.128 1319.82 430.325L1226.21 497.602L1337.44 614.603C1337.67 614.837 1337.65 615.21 1337.4 615.436Z" fill="#0F192E"/>
<path d="M1226.34 302.963L1193.65 311.355L1216.65 335.599L1226.34 302.963Z" fill="#424494"/>
<path fill-rule="evenodd" clip-rule="evenodd" d="M1216.78 336.169C1216.56 336.224 1216.34 336.162 1216.19 336.007L1193.2 311.763C1193.06 311.613 1193.01 311.397 1193.08 311.196C1193.14 310.995 1193.31 310.839 1193.52 310.786L1226.2 302.394C1226.41 302.34 1226.63 302.397 1226.78 302.544C1226.92 302.691 1226.98 302.906 1226.92 303.108L1217.23 335.744C1217.16 335.952 1216.99 336.114 1216.78 336.169ZM1225.47 303.79L1194.79 311.668L1216.37 334.426L1225.47 303.79Z" fill="#0F192E"/>
<path fill-rule="evenodd" clip-rule="evenodd" d="M1071.07 313.155C1070.94 313.257 1070.78 313.306 1070.62 313.292L869.209 295.275C868.952 295.252 868.745 295.072 868.693 294.827L861.201 259.745C861.133 259.428 861.344 259.11 861.671 259.033C861.998 258.956 862.318 259.149 862.385 259.466L869.79 294.139L1070.16 312.064L1083.27 194.537C1083.31 194.213 1083.61 193.969 1083.94 193.993C1084.27 194.016 1084.51 194.299 1084.47 194.623L1071.3 312.748C1071.28 312.906 1071.2 313.052 1071.07 313.155Z" fill="#0F192E"/>
<path fill-rule="evenodd" clip-rule="evenodd" d="M496.073 -27.0336C495.884 -27.2355 495.895 -27.5519 496.097 -27.7404C496.474 -28.0923 496.852 -28.4414 497.23 -28.7876C497.434 -28.9741 497.75 -28.9602 497.936 -28.7566C498.123 -28.5529 498.109 -28.2366 497.905 -28.0502C497.53 -27.7061 497.154 -27.3591 496.779 -27.0092C496.577 -26.8208 496.261 -26.8318 496.073 -27.0336ZM499.459 -30.1243C499.276 -30.3315 499.296 -30.6475 499.503 -30.83C500.263 -31.4994 501.024 -32.1572 501.786 -32.8038C501.997 -32.9823 502.312 -32.9563 502.491 -32.7457C502.669 -32.5351 502.643 -32.2195 502.433 -32.041C501.675 -31.3986 500.919 -30.745 500.164 -30.0799C499.957 -29.8973 499.641 -29.9172 499.459 -30.1243ZM504.019 -34.0157C503.844 -34.2297 503.877 -34.5447 504.091 -34.7191C504.888 -35.3691 505.688 -36.0068 506.489 -36.6325C506.706 -36.8025 507.02 -36.7639 507.19 -36.5463C507.36 -36.3287 507.322 -36.0145 507.104 -35.8444C506.309 -35.223 505.515 -34.5895 504.722 -33.9438C504.508 -33.7694 504.193 -33.8016 504.019 -34.0157ZM508.795 -37.7735C508.63 -37.9946 508.675 -38.3079 508.896 -38.4734C509.699 -39.075 510.505 -39.6647 511.311 -40.2425C511.536 -40.4034 511.848 -40.3518 512.009 -40.1273C512.17 -39.9028 512.118 -39.5905 511.894 -39.4297C511.093 -38.8559 510.293 -38.2703 509.495 -37.6728C509.274 -37.5073 508.96 -37.5524 508.795 -37.7735ZM513.688 -41.3027C513.532 -41.5307 513.59 -41.8418 513.818 -41.9977C514.659 -42.5727 515.501 -43.1351 516.344 -43.685C516.575 -43.8358 516.885 -43.7706 517.036 -43.5393C517.187 -43.3079 517.121 -42.9982 516.89 -42.8473C516.053 -42.3015 515.217 -41.7432 514.383 -41.1723C514.155 -41.0164 513.844 -41.0748 513.688 -41.3027ZM518.716 -44.6086C518.57 -44.8432 518.642 -45.1514 518.877 -45.2971C519.745 -45.8364 520.615 -46.3626 521.486 -46.8759C521.724 -47.0161 522.03 -46.9369 522.17 -46.699C522.311 -46.4612 522.231 -46.1546 521.994 -46.0144C521.129 -45.505 520.266 -44.9828 519.404 -44.4476C519.17 -44.3019 518.861 -44.374 518.716 -44.6086ZM523.93 -47.7088C523.795 -47.9499 523.881 -48.2545 524.122 -48.3891C525.002 -48.8805 525.883 -49.359 526.764 -49.8246C527.009 -49.9535 527.311 -49.8601 527.44 -49.6159C527.569 -49.3717 527.476 -49.0693 527.231 -48.9403C526.357 -48.4784 525.483 -48.0037 524.61 -47.5161C524.369 -47.3814 524.064 -47.4677 523.93 -47.7088ZM529.251 -50.5446C529.128 -50.7918 529.229 -51.0919 529.476 -51.215C530.387 -51.6686 531.3 -52.1088 532.213 -52.5356C532.463 -52.6525 532.761 -52.5445 532.877 -52.2944C532.994 -52.0442 532.886 -51.7466 532.636 -51.6297C531.731 -51.2063 530.826 -50.7697 529.921 -50.3197C529.674 -50.1967 529.374 -50.2974 529.251 -50.5446ZM534.696 -53.1175C534.585 -53.3705 534.7 -53.6653 534.953 -53.7761C535.889 -54.186 536.826 -54.582 537.763 -54.9645C538.018 -55.0688 538.31 -54.9462 538.415 -54.6905C538.519 -54.4348 538.396 -54.143 538.141 -54.0386C537.212 -53.6594 536.283 -53.2666 535.355 -52.8601C535.102 -52.7493 534.807 -52.8646 534.696 -53.1175ZM540.297 -55.4312C540.199 -55.6895 540.329 -55.9781 540.587 -56.0759C541.529 -56.4328 542.471 -56.776 543.413 -57.1059C543.673 -57.1971 543.959 -57.0598 544.05 -56.7992C544.141 -56.5386 544.004 -56.2533 543.743 -56.1621C542.809 -55.835 541.875 -55.4947 540.941 -55.1408C540.683 -55.043 540.395 -55.173 540.297 -55.4312ZM545.987 -57.4493C545.903 -57.7123 546.047 -57.9938 546.31 -58.0783C547.276 -58.3885 548.242 -58.6848 549.207 -58.9673C549.472 -59.0449 549.75 -58.8929 549.828 -58.6279C549.905 -58.3629 549.753 -58.0851 549.488 -58.0076C548.531 -57.7274 547.574 -57.4337 546.616 -57.1262C546.353 -57.0417 546.072 -57.1864 545.987 -57.4493ZM551.762 -59.1667C551.691 -59.4337 551.851 -59.7073 552.117 -59.7779C553.104 -60.0387 554.089 -60.2854 555.074 -60.5182C555.343 -60.5817 555.612 -60.4153 555.676 -60.1466C555.739 -59.8778 555.573 -59.6085 555.304 -59.545C554.328 -59.3143 553.351 -59.0697 552.373 -58.8112C552.106 -58.7406 551.833 -58.8997 551.762 -59.1667ZM557.64 -60.5834C557.583 -60.8537 557.757 -61.1186 558.027 -61.175C559.02 -61.3822 560.013 -61.5754 561.004 -61.7548C561.276 -61.804 561.536 -61.6235 561.586 -61.3518C561.635 -61.0801 561.454 -60.8199 561.183 -60.7708C560.2 -60.5929 559.216 -60.4014 558.231 -60.196C557.961 -60.1396 557.696 -60.3131 557.64 -60.5834ZM563.584 -61.686C563.542 -61.9589 563.73 -62.2142 564.003 -62.2561C565.001 -62.4093 565.998 -62.5487 566.994 -62.6746C567.268 -62.7092 567.518 -62.5152 567.552 -62.2412C567.587 -61.9673 567.393 -61.7171 567.119 -61.6825C566.132 -61.5577 565.144 -61.4195 564.154 -61.2676C563.881 -61.2257 563.626 -61.413 563.584 -61.686ZM569.57 -62.4689C569.543 -62.7437 569.744 -62.9886 570.018 -63.0158C571.027 -63.116 572.034 -63.2024 573.04 -63.2752C573.315 -63.2952 573.555 -63.0881 573.575 -62.8126C573.595 -62.5372 573.388 -62.2978 573.112 -62.2778C572.115 -62.2056 571.117 -62.12 570.117 -62.0207C569.842 -61.9935 569.597 -62.1941 569.57 -62.4689ZM575.585 -62.9314C575.572 -63.2073 575.785 -63.4411 576.061 -63.4538C577.077 -63.5003 578.09 -63.5331 579.101 -63.5525C579.377 -63.5578 579.605 -63.3383 579.611 -63.0622C579.616 -62.7861 579.396 -62.558 579.12 -62.5527C578.118 -62.5335 577.113 -62.5009 576.107 -62.4548C575.831 -62.4422 575.597 -62.6556 575.585 -62.9314ZM581.625 -63.0742C581.627 -63.3503 581.852 -63.5726 582.128 -63.5706C583.143 -63.5633 584.155 -63.5426 585.164 -63.5087C585.44 -63.4995 585.656 -63.2682 585.647 -62.9923C585.638 -62.7163 585.407 -62.5 585.131 -62.5093C584.13 -62.5429 583.127 -62.5634 582.121 -62.5706C581.845 -62.5726 581.623 -62.7981 581.625 -63.0742ZM587.667 -62.898C587.683 -63.1737 587.92 -63.3838 588.195 -63.3673C589.204 -63.307 590.211 -63.2337 591.214 -63.1475C591.489 -63.1239 591.693 -62.8817 591.669 -62.6066C591.645 -62.3315 591.403 -62.1276 591.128 -62.1512C590.134 -62.2366 589.136 -62.3093 588.136 -62.3691C587.86 -62.3856 587.65 -62.6224 587.667 -62.898ZM593.687 -62.4069C593.718 -62.6814 593.965 -62.8789 594.239 -62.8482C595.245 -62.7356 596.247 -62.6102 597.245 -62.4724C597.519 -62.4346 597.71 -62.1822 597.672 -61.9087C597.634 -61.6351 597.382 -61.444 597.108 -61.4818C596.118 -61.6184 595.125 -61.7427 594.128 -61.8544C593.854 -61.8852 593.656 -62.1325 593.687 -62.4069ZM599.671 -61.6067C599.716 -61.8792 599.973 -62.0638 600.246 -62.0191C601.245 -61.855 602.242 -61.6784 603.234 -61.4897C603.505 -61.4381 603.683 -61.1764 603.631 -60.9051C603.58 -60.6338 603.318 -60.4557 603.047 -60.5073C602.063 -60.6945 601.075 -60.8696 600.084 -61.0323C599.811 -61.077 599.626 -61.3342 599.671 -61.6067ZM605.606 -60.5038C605.664 -60.7737 605.93 -60.9452 606.2 -60.8868C607.192 -60.6723 608.179 -60.4457 609.162 -60.2073C609.43 -60.1422 609.595 -59.8719 609.53 -59.6035C609.465 -59.3352 609.195 -59.1704 608.926 -59.2355C607.951 -59.472 606.972 -59.6967 605.989 -59.9094C605.719 -59.9678 605.547 -60.2339 605.606 -60.5038ZM611.485 -59.1038C611.556 -59.3704 611.831 -59.5285 612.097 -59.4568C613.075 -59.1938 614.049 -58.9191 615.017 -58.633C615.282 -58.5548 615.434 -58.2767 615.355 -58.0119C615.277 -57.7471 614.999 -57.5958 614.734 -57.674C613.773 -57.9578 612.808 -58.2302 611.838 -58.4911C611.571 -58.5628 611.413 -58.8371 611.485 -59.1038ZM617.287 -57.4156C617.372 -57.6785 617.653 -57.8229 617.916 -57.7383C618.878 -57.4284 619.835 -57.1074 620.787 -56.7754C621.048 -56.6844 621.185 -56.3993 621.094 -56.1386C621.003 -55.8778 620.718 -55.7402 620.457 -55.8312C619.514 -56.1605 618.564 -56.479 617.61 -56.7864C617.347 -56.8711 617.202 -57.1528 617.287 -57.4156ZM622.999 -55.4482C623.096 -55.7067 623.384 -55.8374 623.643 -55.7402C624.589 -55.3842 625.53 -55.0175 626.465 -54.6403C626.721 -54.5369 626.845 -54.2456 626.741 -53.9895C626.638 -53.7334 626.346 -53.6096 626.09 -53.713C625.163 -54.0872 624.23 -54.4511 623.291 -54.8042C623.032 -54.9014 622.902 -55.1897 622.999 -55.4482ZM628.608 -53.2099C628.718 -53.4635 629.012 -53.5804 629.266 -53.471C630.195 -53.0698 631.119 -52.6583 632.036 -52.2368C632.287 -52.1214 632.396 -51.8245 632.281 -51.5736C632.166 -51.3227 631.869 -51.2128 631.618 -51.3282C630.708 -51.7465 629.792 -52.1548 628.87 -52.5528C628.616 -52.6622 628.499 -52.9564 628.608 -53.2099ZM634.104 -50.7093C634.225 -50.9574 634.525 -51.0603 634.773 -50.939C635.684 -50.4938 636.588 -50.0387 637.486 -49.5739C637.731 -49.4469 637.827 -49.1451 637.7 -48.8999C637.573 -48.6547 637.271 -48.5589 637.026 -48.6859C636.135 -49.1472 635.238 -49.5988 634.334 -50.0405C634.086 -50.1618 633.983 -50.4612 634.104 -50.7093ZM639.477 -47.9526C639.61 -48.1947 639.914 -48.2835 640.156 -48.1507C641.046 -47.6631 641.928 -47.1659 642.803 -46.6594C643.042 -46.5211 643.124 -46.2152 642.986 -45.9762C642.847 -45.7372 642.541 -45.6556 642.302 -45.794C641.434 -46.2965 640.558 -46.7899 639.675 -47.2738C639.433 -47.4065 639.345 -47.7104 639.477 -47.9526ZM644.721 -44.9447C644.864 -45.1804 645.172 -45.2548 645.408 -45.1109C646.272 -44.5831 647.129 -44.0463 647.977 -43.5007C648.21 -43.3514 648.277 -43.042 648.127 -42.8097C647.978 -42.5775 647.669 -42.5103 647.436 -42.6596C646.595 -43.2009 645.745 -43.7336 644.887 -44.2574C644.651 -44.4013 644.577 -44.7089 644.721 -44.9447ZM649.816 -41.6954C649.971 -41.9241 650.282 -41.984 650.511 -41.8293C651.348 -41.2627 652.176 -40.6877 652.996 -40.1045C653.221 -39.9444 653.273 -39.6322 653.113 -39.4072C652.953 -39.1822 652.641 -39.1296 652.416 -39.2897C651.603 -39.8684 650.781 -40.439 649.95 -41.0011C649.722 -41.1559 649.662 -41.4667 649.816 -41.6954ZM654.753 -38.2112C654.918 -38.4323 655.231 -38.4775 655.453 -38.3121C656.262 -37.7065 657.063 -37.0929 657.854 -36.4715C658.071 -36.3009 658.108 -35.9865 657.938 -35.7694C657.767 -35.5523 657.453 -35.5145 657.236 -35.6851C656.451 -36.3016 655.657 -36.9105 654.854 -37.5113C654.632 -37.6767 654.587 -37.9901 654.753 -38.2112ZM659.517 -34.4978C659.693 -34.7108 660.008 -34.7409 660.221 -34.5651C661.002 -33.9202 661.773 -33.2677 662.534 -32.6079C662.743 -32.427 662.765 -32.1112 662.584 -31.9026C662.404 -31.6939 662.088 -31.6714 661.879 -31.8523C661.124 -32.5068 660.359 -33.1541 659.584 -33.7939C659.371 -33.9697 659.341 -34.2848 659.517 -34.4978ZM664.095 -30.5603C664.281 -30.7644 664.597 -30.7791 664.801 -30.5932C665.552 -29.9093 666.292 -29.2184 667.02 -28.5206C667.22 -28.3296 667.226 -28.0131 667.035 -27.8137C666.844 -27.6142 666.528 -27.6074 666.328 -27.7984C665.606 -28.4904 664.872 -29.1757 664.128 -29.8539C663.924 -30.0399 663.909 -30.3561 664.095 -30.5603ZM668.472 -26.403C668.668 -26.5976 668.984 -26.5964 669.179 -26.4005C669.896 -25.678 670.601 -24.949 671.295 -24.2137C671.484 -24.0127 671.475 -23.6963 671.274 -23.5069C671.073 -23.3174 670.756 -23.3267 670.567 -23.5277C669.88 -24.2567 669.18 -24.9796 668.469 -25.6959C668.275 -25.8919 668.276 -26.2085 668.472 -26.403ZM672.632 -22.0285C672.838 -22.2126 673.154 -22.195 673.338 -21.9892C674.018 -21.2289 674.685 -20.4626 675.339 -19.6905C675.518 -19.4798 675.492 -19.1643 675.281 -18.9858C675.07 -18.8072 674.755 -18.8334 674.576 -19.0441C673.928 -19.8093 673.267 -20.5689 672.592 -21.3225C672.408 -21.5283 672.426 -21.8444 672.632 -22.0285ZM676.56 -17.4335C676.776 -17.6062 677.09 -17.5715 677.263 -17.356C677.9 -16.5608 678.523 -15.7601 679.133 -14.9542C679.299 -14.7339 679.255 -14.4204 679.035 -14.2539C678.815 -14.0874 678.501 -14.131 678.335 -14.3513C677.731 -15.1495 677.114 -15.9428 676.483 -16.7307C676.31 -16.9462 676.345 -17.2609 676.56 -17.4335ZM680.227 -12.6288C680.452 -12.7888 680.764 -12.7362 680.924 -12.5112C681.515 -11.6816 682.09 -10.8471 682.649 -10.0082C682.803 -9.77853 682.741 -9.46808 682.511 -9.31481C682.281 -9.16155 681.971 -9.22353 681.817 -9.45323C681.263 -10.2837 680.694 -11.11 680.11 -11.9315C679.949 -12.1565 680.002 -12.4687 680.227 -12.6288ZM683.606 -7.61837C683.84 -7.76446 684.148 -7.69295 684.295 -7.45864C684.833 -6.59525 685.355 -5.72768 685.86 -4.85641C685.999 -4.61754 685.917 -4.3116 685.679 -4.17304C685.44 -4.03449 685.134 -4.11582 684.995 -4.35469C684.495 -5.21665 683.979 -6.07506 683.446 -6.92954C683.3 -7.16387 683.371 -7.47225 683.606 -7.61837ZM686.664 -2.4077C686.907 -2.53824 687.211 -2.44683 687.341 -2.20349C687.822 -1.30706 688.285 -0.407178 688.73 0.495609C688.853 0.743288 688.751 1.04306 688.503 1.16517C688.255 1.28728 687.956 1.18548 687.833 0.937797C687.394 0.0454562 686.936 -0.844219 686.46 -1.73071C686.329 -1.97405 686.421 -2.27713 686.664 -2.4077ZM689.365 2.99561C689.617 2.88248 689.913 2.99496 690.026 3.24685C690.443 4.17521 690.841 5.10614 691.219 6.03913C691.322 6.29508 691.199 6.58661 690.943 6.69023C690.687 6.79389 690.395 6.67042 690.292 6.41448C689.919 5.49321 689.526 4.57374 689.114 3.65656C689.001 3.40467 689.113 3.10874 689.365 2.99561ZM691.666 8.5801C691.926 8.48654 692.212 8.62131 692.306 8.88111C692.651 9.83938 692.975 10.7993 693.277 11.7602C693.36 12.0236 693.214 12.3043 692.95 12.3872C692.687 12.4701 692.406 12.3237 692.323 12.0603C692.025 11.1126 691.706 10.1656 691.365 9.21993C691.271 8.9601 691.406 8.67366 691.666 8.5801ZM693.516 14.3283C693.783 14.2568 694.057 14.4151 694.129 14.6818C694.259 15.1691 694.384 15.6565 694.503 16.144C694.624 16.6379 694.742 17.1323 694.856 17.627C694.918 17.8961 694.75 18.1645 694.481 18.2265C694.212 18.2884 693.943 18.1205 693.881 17.8514C693.768 17.3611 693.652 16.8712 693.532 16.3817C693.415 15.9014 693.291 15.421 693.163 14.9408C693.091 14.6741 693.249 14.3999 693.516 14.3283ZM694.909 20.2092C695.179 20.1546 695.443 20.3298 695.498 20.6005C695.698 21.5952 695.885 22.5916 696.059 23.5897C696.106 23.8618 695.924 24.1207 695.652 24.1679C695.38 24.2152 695.121 24.0329 695.074 23.7609C694.902 22.7716 694.716 21.7841 694.518 20.7982C694.463 20.5275 694.638 20.2638 694.909 20.2092ZM695.972 26.171C696.245 26.131 696.499 26.3202 696.539 26.5934C696.686 27.5963 696.819 28.6011 696.939 29.6077C696.972 29.8819 696.776 30.1307 696.502 30.1634C696.228 30.1961 695.979 30.0004 695.946 29.7262C695.827 28.7282 695.695 27.7322 695.55 26.7381C695.51 26.4648 695.699 26.2109 695.972 26.171ZM696.716 32.1818C696.991 32.1562 697.235 32.3584 697.26 32.6333C697.354 33.6411 697.435 34.6509 697.503 35.6626C697.521 35.9382 697.313 36.1766 697.037 36.1951C696.762 36.2136 696.523 36.0053 696.505 35.7298C696.437 34.7264 696.357 33.7251 696.264 32.7259C696.239 32.4509 696.441 32.2073 696.716 32.1818ZM697.148 38.2238C697.424 38.2121 697.657 38.4263 697.669 38.7023C697.712 39.7118 697.742 40.7234 697.76 41.7373C697.765 42.0134 697.545 42.2412 697.269 42.2462C696.993 42.2511 696.765 42.0313 696.76 41.7552C696.742 40.7494 696.712 39.7458 696.67 38.7444C696.658 38.4685 696.872 38.2355 697.148 38.2238ZM697.281 44.2806C697.557 44.2822 697.78 44.5074 697.778 44.7835C697.772 45.7921 697.755 46.803 697.726 47.8162C697.718 48.0922 697.488 48.3096 697.212 48.3016C696.936 48.2937 696.718 48.0635 696.726 47.7875C696.755 46.7818 696.772 45.7786 696.778 44.7777C696.78 44.5015 697.005 44.279 697.281 44.2806ZM697.13 50.3356C697.406 50.3497 697.618 50.5846 697.604 50.8604C697.553 51.8666 697.49 52.8752 697.417 53.8862C697.397 54.1616 697.157 54.3686 696.882 54.3487C696.607 54.3287 696.4 54.0892 696.419 53.8138C696.492 52.8099 696.554 51.8084 696.605 50.8094C696.619 50.5337 696.854 50.3215 697.13 50.3356ZM696.713 56.3779C696.988 56.4036 697.19 56.6472 697.165 56.9222C697.071 57.9245 696.967 58.9292 696.853 59.9364C696.821 60.2108 696.574 60.408 696.299 60.3768C696.025 60.3457 695.828 60.098 695.859 59.8236C695.973 58.8229 696.076 57.8248 696.169 56.8292C696.195 56.5542 696.438 56.3522 696.713 56.3779ZM696.05 62.3985C696.324 62.4349 696.516 62.6863 696.48 62.96C696.347 63.957 696.205 64.9565 696.053 65.9586C696.012 66.2316 695.757 66.4194 695.484 66.378C695.211 66.3366 695.023 66.0817 695.064 65.8087C695.215 64.8126 695.357 63.8191 695.489 62.8282C695.525 62.5545 695.776 62.3621 696.05 62.3985ZM695.16 68.3905C695.432 68.4367 695.616 68.6948 695.57 68.9671C695.401 69.9578 695.224 70.951 695.038 71.9468C694.987 72.2182 694.726 72.3971 694.455 72.3464C694.183 72.2957 694.004 72.0345 694.055 71.763C694.24 70.7726 694.416 69.7849 694.584 68.7998C694.63 68.5275 694.888 68.3443 695.16 68.3905ZM694.063 74.349C694.334 74.4041 694.509 74.6682 694.454 74.9388C694.253 75.9223 694.044 76.9084 693.827 77.8971C693.768 78.1668 693.501 78.3375 693.232 78.2782C692.962 78.219 692.791 77.9524 692.851 77.6826C693.067 76.6988 693.274 75.7176 693.474 74.7392C693.529 74.4686 693.793 74.2939 694.063 74.349ZM692.779 80.2703C693.048 80.3335 693.214 80.6026 693.151 80.8714C692.922 81.8475 692.685 82.8261 692.44 83.8075C692.373 84.0754 692.101 84.2384 691.833 84.1715C691.565 84.1046 691.402 83.8332 691.469 83.5653C691.713 82.5883 691.949 81.6141 692.178 80.6426C692.241 80.3738 692.51 80.2071 692.779 80.2703ZM691.326 86.1478C691.593 86.2182 691.752 86.4918 691.682 86.7588C691.426 87.729 691.163 88.7018 690.892 89.6773C690.818 89.9435 690.543 90.0994 690.277 90.0256C690.011 89.9518 689.855 89.6763 689.929 89.4102C690.198 88.4386 690.46 87.4698 690.715 86.5038C690.785 86.2367 691.059 86.0774 691.326 86.1478ZM689.721 91.9849C689.986 92.0619 690.139 92.3392 690.062 92.6044C689.782 93.5694 689.495 94.537 689.201 95.5073C689.121 95.7717 688.842 95.9211 688.578 95.8412C688.314 95.7612 688.164 95.4821 688.244 95.2178C688.537 94.251 688.822 93.287 689.101 92.3257C689.178 92.0605 689.456 91.9079 689.721 91.9849ZM687.979 97.7825C688.242 97.8653 688.389 98.146 688.306 98.4094C688.004 99.3699 687.696 100.333 687.381 101.299C687.296 101.562 687.014 101.705 686.751 101.62C686.489 101.534 686.345 101.252 686.431 100.989C686.744 100.027 687.051 99.0667 687.352 98.1095C687.435 97.8461 687.716 97.6997 687.979 97.7825ZM686.115 103.542C686.377 103.63 686.517 103.914 686.429 104.176C686.108 105.133 685.78 106.092 685.446 107.055C685.356 107.316 685.071 107.454 684.81 107.363C684.549 107.273 684.411 106.988 684.501 106.727C684.834 105.768 685.161 104.811 685.481 103.857C685.57 103.595 685.853 103.454 686.115 103.542ZM684.141 109.267C684.401 109.36 684.537 109.646 684.444 109.906C684.104 110.859 683.759 111.815 683.409 112.774C683.314 113.033 683.027 113.167 682.767 113.072C682.508 112.977 682.375 112.69 682.469 112.431C682.819 111.474 683.163 110.521 683.502 109.57C683.595 109.31 683.881 109.174 684.141 109.267ZM682.069 114.96C682.327 115.056 682.458 115.345 682.362 115.603C682.008 116.548 681.649 117.496 681.285 118.446C681.186 118.704 680.897 118.833 680.639 118.734C680.381 118.636 680.252 118.346 680.351 118.089C680.714 117.14 681.072 116.195 681.425 115.253C681.522 114.994 681.81 114.863 682.069 114.96ZM679.909 120.623C680.166 120.723 680.293 121.013 680.192 121.271C679.826 122.207 679.456 123.147 679.08 124.089C678.978 124.345 678.687 124.471 678.431 124.368C678.174 124.266 678.049 123.975 678.151 123.719C678.526 122.779 678.896 121.841 679.261 120.907C679.362 120.649 679.652 120.522 679.909 120.623ZM677.67 126.26C677.926 126.364 678.049 126.656 677.946 126.912C677.569 127.84 677.188 128.772 676.803 129.706C676.698 129.961 676.405 130.083 676.15 129.978C675.895 129.872 675.773 129.58 675.878 129.325C676.263 128.392 676.643 127.463 677.019 126.536C677.123 126.28 677.414 126.157 677.67 126.26ZM675.367 131.863C675.621 131.969 675.741 132.262 675.635 132.517C675.247 133.442 674.856 134.37 674.46 135.301C674.352 135.555 674.059 135.674 673.805 135.566C673.551 135.458 673.432 135.164 673.54 134.91C673.935 133.981 674.326 133.054 674.712 132.131C674.819 131.876 675.112 131.756 675.367 131.863ZM673.007 137.432C673.26 137.541 673.377 137.835 673.268 138.089C672.869 139.016 672.467 139.945 672.06 140.877C671.95 141.13 671.655 141.246 671.402 141.136C671.149 141.026 671.033 140.731 671.144 140.478C671.549 139.547 671.951 138.619 672.35 137.693C672.459 137.44 672.753 137.323 673.007 137.432ZM670.592 142.984C670.845 143.095 670.959 143.39 670.848 143.643C670.44 144.567 670.029 145.495 669.615 146.425C669.502 146.677 669.207 146.79 668.954 146.678C668.702 146.565 668.589 146.27 668.701 146.018C669.115 145.089 669.526 144.163 669.933 143.239C670.044 142.987 670.339 142.872 670.592 142.984ZM668.129 148.521C668.38 148.635 668.493 148.931 668.379 149.183C667.966 150.1 667.55 151.02 667.131 151.943C667.017 152.194 666.721 152.306 666.469 152.191C666.218 152.077 666.107 151.781 666.221 151.529C666.639 150.608 667.055 149.689 667.468 148.772C667.581 148.52 667.877 148.408 668.129 148.521ZM665.622 154.049C665.873 154.164 665.983 154.46 665.868 154.711C665.451 155.622 665.031 156.535 664.608 157.451C664.492 157.702 664.195 157.811 663.945 157.696C663.694 157.58 663.584 157.283 663.7 157.032C664.123 156.117 664.542 155.205 664.959 154.295C665.074 154.044 665.371 153.934 665.622 154.049ZM663.088 159.543C663.339 159.66 663.447 159.957 663.331 160.207C663.089 160.729 662.845 161.251 662.601 161.774C662.418 162.167 662.234 162.56 662.05 162.953C661.933 163.203 661.635 163.311 661.385 163.194C661.135 163.077 661.027 162.779 661.144 162.529C661.574 161.612 662 160.697 662.424 159.786C662.541 159.535 662.838 159.427 663.088 159.543ZM660.526 165.024C660.776 165.142 660.883 165.439 660.765 165.689C660.334 166.604 659.901 167.522 659.465 168.442C659.347 168.691 659.049 168.798 658.799 168.68C658.55 168.561 658.443 168.263 658.561 168.014C658.997 167.094 659.43 166.177 659.86 165.263C659.978 165.013 660.276 164.906 660.526 165.024ZM657.934 170.502C658.183 170.621 658.289 170.919 658.171 171.168C657.738 172.077 657.303 172.988 656.866 173.902C656.747 174.151 656.449 174.257 656.2 174.138C655.951 174.018 655.845 173.72 655.964 173.471C656.211 172.955 656.457 172.439 656.702 171.925C656.891 171.529 657.08 171.134 657.268 170.739C657.386 170.489 657.685 170.383 657.934 170.502ZM655.317 175.98C655.566 176.1 655.671 176.399 655.551 176.648C655.118 177.55 654.682 178.456 654.245 179.364C654.125 179.612 653.826 179.717 653.577 179.597C653.329 179.477 653.224 179.178 653.344 178.93C653.781 178.022 654.216 177.117 654.65 176.215C654.769 175.966 655.068 175.861 655.317 175.98ZM652.694 181.428C652.943 181.548 653.047 181.847 652.927 182.095C652.487 183.004 652.046 183.915 651.604 184.829C651.483 185.077 651.184 185.181 650.936 185.06C650.687 184.94 650.583 184.641 650.704 184.392C651.146 183.479 651.587 182.568 652.026 181.66C652.146 181.411 652.445 181.307 652.694 181.428ZM650.055 186.875C650.303 186.996 650.407 187.295 650.286 187.543C649.845 188.451 649.403 189.361 648.958 190.274C648.837 190.522 648.538 190.625 648.29 190.505C648.041 190.384 647.938 190.084 648.059 189.836C648.503 188.924 648.946 188.014 649.387 187.106C649.507 186.858 649.807 186.754 650.055 186.875ZM647.4 192.33C647.648 192.451 647.752 192.75 647.631 192.998C647.191 193.901 646.749 194.805 646.306 195.713C646.185 195.961 645.885 196.064 645.637 195.943C645.389 195.821 645.286 195.522 645.407 195.274C645.85 194.367 646.292 193.462 646.732 192.56C646.853 192.312 647.152 192.209 647.4 192.33ZM644.743 197.774C644.991 197.895 645.094 198.195 644.972 198.443C644.53 199.346 644.087 200.253 643.643 201.162C643.521 201.41 643.222 201.513 642.974 201.391C642.726 201.27 642.623 200.971 642.744 200.723C643.189 199.814 643.632 198.907 644.074 198.003C644.195 197.755 644.495 197.653 644.743 197.774ZM642.085 203.207C642.333 203.329 642.436 203.628 642.315 203.876L640.979 206.606C640.857 206.854 640.558 206.957 640.31 206.836C640.062 206.714 639.959 206.415 640.081 206.167L641.416 203.437C641.538 203.189 641.837 203.086 642.085 203.207ZM639.42 208.654C639.668 208.776 639.771 209.075 639.649 209.323L638.321 212.038C638.2 212.286 637.901 212.389 637.653 212.268C637.404 212.146 637.302 211.847 637.423 211.599L638.751 208.884C638.872 208.636 639.172 208.533 639.42 208.654ZM636.757 214.1C637.005 214.221 637.108 214.521 636.987 214.769C636.545 215.672 636.103 216.578 635.659 217.486C635.538 217.734 635.239 217.837 634.991 217.716C634.743 217.595 634.64 217.296 634.761 217.048C635.204 216.139 635.647 215.233 636.088 214.33C636.209 214.082 636.509 213.979 636.757 214.1ZM634.104 219.534C634.352 219.655 634.455 219.954 634.334 220.203C633.892 221.111 633.448 222.021 633.004 222.934C632.883 223.182 632.583 223.286 632.335 223.165C632.087 223.044 631.984 222.745 632.104 222.497C632.549 221.583 632.993 220.673 633.435 219.764C633.556 219.516 633.856 219.413 634.104 219.534ZM631.449 224.987C631.697 225.108 631.801 225.407 631.68 225.655C631.241 226.559 630.801 227.465 630.361 228.373C630.24 228.622 629.941 228.725 629.693 228.605C629.444 228.484 629.341 228.185 629.461 227.937C629.902 227.028 630.342 226.122 630.781 225.218C630.902 224.97 631.201 224.866 631.449 224.987ZM628.804 230.438C629.053 230.559 629.157 230.858 629.037 231.106C628.816 231.563 628.595 232.02 628.373 232.479C628.151 232.937 627.93 233.395 627.711 233.853C627.592 234.102 627.293 234.207 627.044 234.087C626.795 233.968 626.69 233.669 626.809 233.42C627.029 232.962 627.25 232.503 627.473 232.043C627.694 231.585 627.916 231.128 628.137 230.671C628.257 230.422 628.556 230.318 628.804 230.438ZM626.172 235.925C626.422 236.042 626.529 236.34 626.412 236.59C625.984 237.5 625.561 238.408 625.144 239.314C625.028 239.565 624.731 239.675 624.481 239.559C624.23 239.443 624.12 239.146 624.236 238.896C624.654 237.987 625.078 237.077 625.507 236.164C625.624 235.915 625.922 235.807 626.172 235.925ZM623.648 241.385C623.9 241.499 624.012 241.795 623.898 242.046C623.48 242.972 623.068 243.896 622.661 244.817C622.55 245.07 622.255 245.184 622.002 245.073C621.749 244.961 621.635 244.666 621.747 244.413C622.154 243.49 622.568 242.564 622.987 241.635C623.1 241.383 623.396 241.271 623.648 241.385ZM621.196 246.917C621.45 247.027 621.567 247.321 621.457 247.575C621.059 248.495 620.667 249.414 620.28 250.33C620.173 250.584 619.88 250.704 619.625 250.596C619.371 250.489 619.252 250.195 619.359 249.941C619.747 249.022 620.14 248.101 620.539 247.178C620.649 246.925 620.943 246.808 621.196 246.917ZM618.839 252.48C619.095 252.585 619.216 252.877 619.111 253.133C618.727 254.065 618.348 254.994 617.975 255.921C617.872 256.177 617.581 256.301 617.325 256.198C617.068 256.095 616.944 255.804 617.047 255.548C617.422 254.618 617.801 253.686 618.186 252.752C618.292 252.496 618.584 252.375 618.839 252.48ZM616.587 258.055C616.844 258.156 616.97 258.446 616.869 258.703C616.498 259.65 616.132 260.594 615.772 261.535C615.674 261.793 615.385 261.922 615.127 261.824C614.869 261.725 614.74 261.436 614.838 261.178C615.199 260.234 615.566 259.287 615.938 258.338C616.039 258.081 616.33 257.954 616.587 258.055ZM614.416 263.709C614.674 263.805 614.806 264.093 614.71 264.352C614.36 265.292 614.016 266.23 613.678 267.165C613.584 267.425 613.297 267.559 613.037 267.465C612.778 267.371 612.643 267.084 612.737 266.825C613.077 265.887 613.422 264.946 613.773 264.003C613.869 263.745 614.157 263.613 614.416 263.709ZM612.352 269.386C612.613 269.478 612.749 269.763 612.658 270.024C612.324 270.974 611.996 271.922 611.674 272.866C611.585 273.128 611.3 273.267 611.039 273.178C610.778 273.089 610.638 272.805 610.727 272.544C611.05 271.596 611.379 270.645 611.714 269.692C611.806 269.432 612.091 269.295 612.352 269.386ZM610.4 275.081C610.663 275.167 610.805 275.45 610.718 275.712C610.4 276.676 610.087 277.637 609.781 278.595C609.697 278.858 609.416 279.003 609.152 278.919C608.889 278.835 608.744 278.553 608.829 278.29C609.136 277.329 609.449 276.365 609.769 275.399C609.855 275.136 610.138 274.994 610.4 275.081ZM608.55 280.835C608.814 280.917 608.962 281.197 608.88 281.461C608.582 282.424 608.291 283.384 608.005 284.342C607.926 284.606 607.648 284.757 607.383 284.678C607.119 284.599 606.968 284.321 607.047 284.056C607.333 283.095 607.626 282.132 607.925 281.166C608.006 280.902 608.286 280.754 608.55 280.835ZM606.813 286.627C607.078 286.703 607.232 286.98 607.155 287.245C606.878 288.21 606.607 289.172 606.342 290.131C606.269 290.397 605.993 290.553 605.727 290.48C605.461 290.406 605.305 290.131 605.378 289.865C605.644 288.902 605.916 287.937 606.194 286.969C606.27 286.704 606.547 286.55 606.813 286.627ZM605.198 292.437C605.464 292.508 605.624 292.781 605.553 293.048C605.294 294.025 605.041 294.998 604.795 295.969C604.727 296.237 604.455 296.398 604.187 296.33C603.92 296.263 603.758 295.991 603.826 295.723C604.073 294.749 604.326 293.772 604.586 292.792C604.657 292.525 604.931 292.366 605.198 292.437ZM603.707 298.268C603.975 298.333 604.14 298.604 604.075 298.872C603.835 299.86 603.602 300.844 603.375 301.825C603.313 302.094 603.045 302.262 602.776 302.2C602.507 302.138 602.339 301.869 602.401 301.6C602.629 300.616 602.862 299.628 603.103 298.636C603.168 298.368 603.438 298.203 603.707 298.268ZM602.333 304.164C602.603 304.223 602.774 304.489 602.715 304.759C602.499 305.743 602.289 306.724 602.086 307.701C602.03 307.972 601.765 308.145 601.495 308.089C601.224 308.033 601.051 307.768 601.107 307.498C601.311 306.517 601.521 305.532 601.738 304.545C601.797 304.275 602.064 304.104 602.333 304.164ZM601.093 310.078C601.364 310.131 601.541 310.394 601.488 310.665C601.295 311.649 601.108 312.63 600.928 313.608C600.878 313.88 600.617 314.059 600.346 314.009C600.074 313.959 599.894 313.698 599.944 313.427C600.125 312.445 600.313 311.461 600.506 310.472C600.559 310.201 600.822 310.025 601.093 310.078ZM599.989 316.01C600.261 316.057 600.444 316.316 600.397 316.588C600.226 317.581 600.061 318.571 599.903 319.557C599.86 319.83 599.603 320.016 599.331 319.972C599.058 319.928 598.872 319.672 598.916 319.399C599.075 318.409 599.24 317.415 599.411 316.418C599.458 316.146 599.717 315.964 599.989 316.01ZM599.024 321.961C599.297 322.001 599.486 322.255 599.446 322.529C599.298 323.53 599.156 324.527 599.021 325.521C598.984 325.795 598.732 325.987 598.459 325.95C598.185 325.913 597.993 325.661 598.03 325.387C598.166 324.389 598.308 323.387 598.456 322.382C598.497 322.109 598.751 321.92 599.024 321.961ZM598.202 327.935C598.476 327.969 598.67 328.218 598.637 328.492C598.513 329.498 598.395 330.501 598.285 331.499C598.254 331.774 598.007 331.972 597.733 331.941C597.458 331.911 597.26 331.664 597.291 331.389C597.402 330.387 597.52 329.38 597.644 328.37C597.678 328.096 597.928 327.901 598.202 327.935ZM597.524 333.943C597.798 333.97 597.999 334.215 597.972 334.49C597.874 335.494 597.782 336.494 597.697 337.49C597.674 337.765 597.432 337.969 597.156 337.945C596.881 337.922 596.677 337.68 596.701 337.405C596.786 336.404 596.878 335.4 596.977 334.392C597.004 334.117 597.249 333.916 597.524 333.943ZM596.997 339.962C597.273 339.982 597.48 340.221 597.46 340.497C597.387 341.499 597.321 342.497 597.262 343.491C597.245 343.766 597.008 343.976 596.733 343.96C596.457 343.944 596.247 343.707 596.263 343.431C596.323 342.433 596.389 341.431 596.462 340.425C596.482 340.149 596.722 339.942 596.997 339.962ZM596.625 345.989C596.901 346.001 597.114 346.235 597.101 346.511C597.055 347.514 597.015 348.513 596.981 349.507C596.972 349.783 596.741 349.999 596.465 349.99C596.189 349.981 595.973 349.75 595.982 349.474C596.015 348.475 596.055 347.472 596.102 346.465C596.115 346.189 596.349 345.976 596.625 345.989ZM596.411 352.02C596.687 352.026 596.906 352.254 596.9 352.53C596.88 353.536 596.867 354.538 596.86 355.535C596.858 355.811 596.633 356.034 596.357 356.032C596.08 356.03 595.858 355.805 595.86 355.529C595.867 354.527 595.88 353.521 595.901 352.51C595.906 352.234 596.134 352.015 596.411 352.02ZM596.357 358.054C596.633 358.053 596.858 358.275 596.86 358.551C596.867 359.559 596.88 360.563 596.901 361.562C596.906 361.838 596.687 362.066 596.411 362.072C596.135 362.078 595.906 361.858 595.901 361.582C595.88 360.579 595.867 359.57 595.86 358.558C595.858 358.282 596.08 358.056 596.357 358.054ZM596.466 364.087C596.742 364.078 596.973 364.294 596.982 364.57C597.017 365.579 597.058 366.584 597.106 367.583C597.119 367.859 596.906 368.093 596.63 368.107C596.354 368.12 596.12 367.907 596.107 367.631C596.059 366.627 596.017 365.618 595.983 364.604C595.974 364.328 596.19 364.097 596.466 364.087ZM596.74 370.115C597.016 370.098 597.253 370.308 597.27 370.583C597.332 371.592 597.401 372.596 597.477 373.595C597.498 373.871 597.292 374.111 597.016 374.132C596.741 374.153 596.501 373.946 596.48 373.671C596.404 372.667 596.335 371.658 596.272 370.645C596.255 370.369 596.465 370.132 596.74 370.115ZM597.182 376.133C597.457 376.108 597.7 376.311 597.725 376.586C597.815 377.594 597.913 378.597 598.017 379.594C598.045 379.869 597.846 380.115 597.571 380.143C597.296 380.172 597.051 379.972 597.022 379.698C596.918 378.695 596.82 377.688 596.729 376.676C596.704 376.401 596.907 376.158 597.182 376.133ZM597.793 382.137C598.067 382.105 598.316 382.301 598.348 382.575C598.467 383.58 598.593 384.58 598.725 385.575C598.762 385.849 598.569 386.1 598.296 386.136C598.022 386.173 597.77 385.98 597.734 385.707C597.601 384.707 597.475 383.702 597.355 382.693C597.323 382.418 597.519 382.17 597.793 382.137ZM598.574 388.123C598.847 388.082 599.101 388.271 599.141 388.544C599.289 389.546 599.443 390.542 599.604 391.533C599.648 391.805 599.463 392.062 599.19 392.106C598.918 392.151 598.661 391.965 598.617 391.693C598.455 390.697 598.3 389.696 598.152 388.69C598.112 388.417 598.301 388.163 598.574 388.123ZM599.525 394.085C599.797 394.037 600.057 394.218 600.105 394.49C600.281 395.486 600.464 396.478 600.653 397.463C600.705 397.735 600.527 397.996 600.256 398.048C599.984 398.1 599.722 397.923 599.67 397.652C599.481 396.661 599.297 395.665 599.12 394.664C599.072 394.392 599.254 394.133 599.525 394.085ZM600.647 400.016C600.918 399.961 601.182 400.135 601.238 400.405C601.443 401.396 601.654 402.381 601.871 403.361C601.931 403.631 601.761 403.898 601.491 403.957C601.221 404.017 600.954 403.847 600.895 403.578C600.676 402.593 600.464 401.603 600.259 400.607C600.203 400.337 600.377 400.072 600.647 400.016ZM601.939 405.915C602.208 405.851 602.478 406.018 602.541 406.286C602.774 407.27 603.013 408.249 603.258 409.222C603.326 409.489 603.163 409.761 602.895 409.829C602.628 409.896 602.356 409.734 602.288 409.466C602.042 408.489 601.802 407.505 601.568 406.517C601.504 406.248 601.671 405.978 601.939 405.915ZM603.4 411.774C603.667 411.703 603.941 411.862 604.013 412.128C604.273 413.105 604.54 414.075 604.813 415.04C604.888 415.305 604.733 415.582 604.468 415.657C604.202 415.732 603.926 415.577 603.851 415.312C603.577 414.343 603.309 413.367 603.047 412.387C602.975 412.12 603.134 411.846 603.4 411.774ZM605.029 417.59C605.294 417.511 605.572 417.662 605.651 417.926C605.939 418.894 606.233 419.855 606.533 420.811C606.616 421.074 606.469 421.355 606.205 421.437C605.942 421.52 605.661 421.373 605.579 421.11C605.278 420.15 604.982 419.184 604.693 418.212C604.614 417.947 604.764 417.669 605.029 417.59ZM606.822 423.357C607.085 423.27 607.367 423.413 607.454 423.675C607.769 424.633 608.09 425.585 608.416 426.53C608.506 426.791 608.367 427.076 608.106 427.166C607.845 427.256 607.561 427.117 607.471 426.856C607.143 425.906 606.821 424.95 606.504 423.988C606.417 423.726 606.56 423.443 606.822 423.357ZM608.778 429.07C609.038 428.977 609.325 429.111 609.418 429.371C609.76 430.318 610.107 431.259 610.459 432.193C610.556 432.452 610.426 432.74 610.167 432.837C609.909 432.935 609.62 432.804 609.523 432.546C609.169 431.607 608.821 430.662 608.478 429.71C608.384 429.451 608.519 429.164 608.778 429.07ZM610.894 434.726C611.151 434.625 611.441 434.752 611.542 435.009C611.909 435.945 612.281 436.874 612.658 437.796C612.762 438.052 612.64 438.343 612.384 438.448C612.129 438.552 611.837 438.43 611.732 438.174C611.354 437.247 610.98 436.314 610.611 435.374C610.51 435.117 610.636 434.827 610.894 434.726ZM613.164 440.32C613.418 440.212 613.712 440.331 613.82 440.585C614.213 441.511 614.611 442.431 615.014 443.344C615.125 443.597 615.011 443.892 614.758 444.003C614.505 444.115 614.21 444 614.099 443.747C613.695 442.83 613.295 441.907 612.899 440.976C612.791 440.722 612.91 440.428 613.164 440.32ZM615.586 445.848C615.837 445.734 616.134 445.844 616.249 446.095C616.457 446.55 616.666 447.004 616.876 447.455C617.087 447.909 617.302 448.361 617.521 448.812C617.642 449.061 617.539 449.36 617.29 449.481C617.042 449.601 616.743 449.498 616.622 449.25C616.4 448.793 616.182 448.336 615.969 447.877C615.758 447.423 615.548 446.968 615.339 446.511C615.224 446.26 615.335 445.963 615.586 445.848ZM618.213 451.299C618.457 451.17 618.76 451.264 618.889 451.508C619.357 452.393 619.841 453.275 620.341 454.151C620.478 454.39 620.395 454.696 620.155 454.833C619.915 454.97 619.61 454.886 619.473 454.646C618.967 453.761 618.478 452.87 618.005 451.975C617.876 451.731 617.969 451.428 618.213 451.299ZM621.196 456.591C621.431 456.446 621.739 456.52 621.883 456.755C622.407 457.609 622.946 458.458 623.499 459.301C623.65 459.532 623.586 459.842 623.355 459.993C623.124 460.145 622.814 460.08 622.663 459.849C622.104 458.998 621.56 458.141 621.031 457.278C620.886 457.043 620.96 456.735 621.196 456.591ZM624.499 461.681C624.725 461.523 625.037 461.578 625.195 461.804C625.771 462.627 626.36 463.444 626.962 464.254C627.127 464.476 627.081 464.789 626.859 464.954C626.637 465.119 626.324 465.072 626.159 464.851C625.551 464.033 624.957 463.208 624.376 462.378C624.217 462.151 624.273 461.839 624.499 461.681ZM628.096 466.571C628.313 466.4 628.628 466.437 628.799 466.654C629.421 467.444 630.056 468.227 630.703 469.004C630.88 469.216 630.851 469.531 630.639 469.708C630.427 469.885 630.112 469.856 629.935 469.644C629.282 468.861 628.641 468.07 628.013 467.273C627.842 467.056 627.88 466.742 628.096 466.571ZM631.962 471.253C632.169 471.07 632.485 471.09 632.668 471.298C633.333 472.054 634.01 472.803 634.698 473.544C634.886 473.746 634.874 474.063 634.672 474.25C634.469 474.438 634.153 474.427 633.965 474.224C633.271 473.476 632.588 472.721 631.917 471.958C631.735 471.751 631.755 471.435 631.962 471.253ZM636.073 475.722C636.271 475.529 636.587 475.532 636.78 475.73C637.484 476.45 638.199 477.162 638.924 477.867C639.122 478.059 639.126 478.375 638.934 478.574C638.742 478.772 638.425 478.776 638.227 478.584C637.496 477.873 636.775 477.155 636.065 476.429C635.872 476.231 635.876 475.915 636.073 475.722ZM640.41 479.972C640.598 479.769 640.914 479.757 641.117 479.944C641.857 480.628 642.606 481.303 643.365 481.969C643.572 482.151 643.593 482.467 643.411 482.675C643.228 482.882 642.912 482.903 642.705 482.72C641.94 482.048 641.184 481.368 640.438 480.679C640.236 480.492 640.223 480.175 640.41 479.972ZM644.957 483.999C645.134 483.787 645.449 483.758 645.661 483.935C646.434 484.581 647.216 485.218 648.006 485.845C648.222 486.017 648.259 486.331 648.087 486.548C647.915 486.764 647.601 486.8 647.384 486.628C646.588 485.996 645.799 485.354 645.02 484.703C644.808 484.526 644.78 484.211 644.957 483.999ZM649.697 487.794C649.864 487.574 650.177 487.53 650.398 487.696C651.202 488.303 652.014 488.9 652.834 489.487C653.058 489.648 653.11 489.961 652.949 490.185C652.788 490.409 652.476 490.461 652.251 490.3C651.425 489.708 650.606 489.106 649.795 488.494C649.575 488.328 649.531 488.015 649.697 487.794ZM654.619 491.351C654.774 491.122 655.085 491.063 655.314 491.218C656.147 491.785 656.988 492.341 657.835 492.887C658.068 493.037 658.135 493.346 657.985 493.578C657.836 493.81 657.526 493.877 657.294 493.728C656.44 493.177 655.592 492.616 654.752 492.045C654.523 491.89 654.464 491.579 654.619 491.351ZM659.711 494.659C659.854 494.424 660.162 494.349 660.398 494.493C661.259 495.017 662.126 495.531 663 496.034C663.239 496.172 663.321 496.477 663.184 496.717C663.046 496.956 662.74 497.038 662.501 496.901C661.62 496.394 660.745 495.876 659.877 495.347C659.642 495.203 659.567 494.895 659.711 494.659ZM664.961 497.71C665.092 497.467 665.396 497.377 665.639 497.509C666.525 497.989 667.418 498.459 668.316 498.916C668.562 499.041 668.659 499.343 668.534 499.589C668.409 499.835 668.108 499.932 667.862 499.807C666.956 499.346 666.056 498.872 665.162 498.388C664.919 498.256 664.829 497.953 664.961 497.71ZM670.36 500.489C670.479 500.24 670.777 500.134 671.026 500.253C671.937 500.688 672.852 501.11 673.772 501.52C674.024 501.632 674.138 501.928 674.025 502.18C673.913 502.432 673.617 502.546 673.365 502.433C672.437 502.02 671.514 501.594 670.596 501.156C670.346 501.037 670.241 500.739 670.36 500.489ZM675.897 502.983C676.002 502.728 676.294 502.607 676.55 502.712C677.482 503.098 678.418 503.47 679.358 503.829C679.616 503.928 679.745 504.217 679.647 504.475C679.548 504.733 679.259 504.862 679.001 504.763C678.052 504.401 677.108 504.025 676.167 503.636C675.912 503.531 675.791 503.239 675.897 502.983ZM681.56 505.175C681.651 504.915 681.936 504.777 682.197 504.869C683.148 505.202 684.103 505.522 685.061 505.827C685.324 505.911 685.469 506.192 685.386 506.455C685.302 506.718 685.02 506.864 684.757 506.78C683.79 506.471 682.826 506.149 681.866 505.812C681.606 505.721 681.468 505.436 681.56 505.175ZM687.336 507.046C687.413 506.781 687.689 506.627 687.955 506.704C688.923 506.982 689.894 507.245 690.868 507.493C691.135 507.562 691.297 507.834 691.229 508.101C691.16 508.369 690.888 508.531 690.62 508.462C689.637 508.211 688.657 507.945 687.679 507.665C687.414 507.589 687.26 507.312 687.336 507.046ZM693.212 508.576C693.272 508.306 693.54 508.136 693.809 508.196C694.793 508.416 695.778 508.619 696.765 508.807C697.036 508.859 697.214 509.121 697.163 509.392C697.111 509.663 696.849 509.841 696.578 509.79C695.581 509.6 694.585 509.394 693.592 509.172C693.322 509.112 693.152 508.845 693.212 508.576ZM699.171 509.741C699.213 509.468 699.469 509.282 699.742 509.325C700.738 509.481 701.734 509.622 702.732 509.745C703.006 509.779 703.2 510.029 703.166 510.303C703.132 510.577 702.883 510.772 702.609 510.738C701.6 510.613 700.593 510.471 699.587 510.313C699.314 510.27 699.128 510.014 699.171 509.741ZM705.191 510.519C705.216 510.244 705.459 510.041 705.734 510.066C706.737 510.156 707.741 510.228 708.745 510.283C709.021 510.299 709.232 510.534 709.217 510.81C709.202 511.086 708.966 511.297 708.69 511.282C707.675 511.226 706.659 511.153 705.644 511.062C705.369 511.037 705.166 510.794 705.191 510.519ZM711.25 510.886C711.256 510.609 711.484 510.39 711.76 510.395C712.767 510.415 713.773 510.416 714.778 510.399C715.054 510.394 715.282 510.614 715.287 510.89C715.292 511.166 715.072 511.394 714.796 511.399C713.778 511.416 712.759 511.415 711.741 511.395C711.464 511.39 711.245 511.162 711.25 510.886ZM717.321 510.818C717.306 510.542 717.517 510.306 717.793 510.291C718.797 510.236 719.8 510.163 720.802 510.07C721.077 510.044 721.32 510.247 721.346 510.522C721.371 510.797 721.169 511.04 720.894 511.066C719.88 511.16 718.864 511.234 717.847 511.29C717.571 511.305 717.336 511.093 717.321 510.818ZM723.369 510.294C723.333 510.021 723.525 509.769 723.799 509.733C724.795 509.601 725.789 509.45 726.78 509.279C727.053 509.232 727.311 509.414 727.358 509.687C727.405 509.959 727.223 510.217 726.951 510.264C725.946 510.438 724.939 510.591 723.93 510.725C723.656 510.761 723.405 510.568 723.369 510.294ZM729.356 509.3C729.298 509.03 729.47 508.764 729.74 508.706C730.722 508.496 731.701 508.265 732.676 508.014C732.944 507.945 733.216 508.106 733.285 508.373C733.354 508.64 733.193 508.913 732.926 508.982C731.937 509.237 730.945 509.471 729.95 509.684C729.68 509.742 729.414 509.57 729.356 509.3ZM735.243 507.825C735.163 507.561 735.313 507.282 735.577 507.202C736.538 506.912 737.496 506.601 738.449 506.269C738.71 506.178 738.995 506.316 739.086 506.576C739.177 506.837 739.039 507.122 738.778 507.213C737.812 507.55 736.841 507.865 735.866 508.159C735.602 508.239 735.323 508.09 735.243 507.825ZM740.988 505.869C740.886 505.613 741.012 505.322 741.269 505.221C742.202 504.851 743.13 504.461 744.054 504.05C744.307 503.938 744.602 504.051 744.714 504.304C744.827 504.556 744.713 504.851 744.461 504.964C743.524 505.381 742.583 505.776 741.637 506.15C741.38 506.252 741.089 506.126 740.988 505.869ZM746.549 503.441C746.427 503.193 746.528 502.893 746.775 502.771C747.673 502.326 748.565 501.86 749.452 501.373C749.694 501.24 749.998 501.329 750.131 501.571C750.264 501.813 750.175 502.117 749.933 502.25C749.034 502.743 748.129 503.215 747.22 503.667C746.972 503.789 746.672 503.688 746.549 503.441ZM751.891 500.558C751.748 500.321 751.824 500.014 752.061 499.871C752.917 499.355 753.767 498.818 754.612 498.26C754.843 498.108 755.153 498.172 755.305 498.402C755.457 498.633 755.393 498.943 755.163 499.095C754.307 499.66 753.445 500.204 752.577 500.728C752.341 500.87 752.033 500.794 751.891 500.558ZM756.979 497.248C756.818 497.024 756.869 496.712 757.093 496.551C757.904 495.968 758.709 495.366 759.507 494.743C759.725 494.573 760.039 494.612 760.209 494.83C760.379 495.048 760.34 495.362 760.122 495.532C759.313 496.162 758.498 496.772 757.677 497.363C757.453 497.524 757.14 497.473 756.979 497.248ZM761.79 493.548C761.612 493.337 761.639 493.021 761.85 492.843C762.238 492.517 762.623 492.185 763.008 491.849C763.215 491.667 763.531 491.688 763.713 491.895C763.895 492.103 763.874 492.419 763.666 492.601C763.278 492.942 762.887 493.277 762.495 493.608C762.284 493.786 761.968 493.759 761.79 493.548Z" fill="white"/>
<path d="M803.89 -186.58L860.476 144.024L554.849 438.727L484.161 402.162L424.638 24.8341L556.399 -224.432L758.863 -236.559L804.058 -187.07L802.66 -242.631L769.271 -225.668" fill="#F0BDCE"/>
<path fill-rule="evenodd" clip-rule="evenodd" d="M861.094 143.919C861.129 144.123 861.061 144.332 860.911 144.476L555.284 439.179C555.091 439.366 554.8 439.408 554.561 439.284L483.872 402.719C483.695 402.627 483.572 402.457 483.541 402.26L424.018 24.9322C423.996 24.7983 424.019 24.6611 424.083 24.5412L555.843 -224.725C555.946 -224.919 556.142 -225.045 556.361 -225.058L758.825 -237.185C759.014 -237.197 759.198 -237.122 759.325 -236.982L769.096 -226.283L802.375 -243.19C802.567 -243.288 802.795 -243.28 802.98 -243.17C803.165 -243.06 803.281 -242.862 803.286 -242.647L804.684 -187.086C804.688 -186.918 804.625 -186.759 804.516 -186.642L861.094 143.919ZM803.388 -188.733L802.057 -241.621L769.974 -225.322L803.388 -188.733ZM803.355 -186.908C803.278 -186.783 803.244 -186.63 803.271 -186.474L859.801 143.803L554.737 437.963L484.731 401.751L425.29 24.943L556.788 -223.826L758.601 -235.915L803.355 -186.908Z" fill="#0F192E"/>
<path fill-rule="evenodd" clip-rule="evenodd" d="M860.54 143.731C860.701 144.038 860.581 144.417 860.274 144.577L632.762 263.124L557.069 376.994L555.476 438.743C555.467 439.09 555.179 439.363 554.833 439.354C554.486 439.345 554.213 439.057 554.222 438.711L555.82 376.781C555.823 376.663 555.859 376.548 555.924 376.45L631.806 262.295C631.865 262.207 631.945 262.135 632.039 262.086L859.694 143.464C860.001 143.304 860.38 143.424 860.54 143.731Z" fill="#0F192E"/>
<path fill-rule="evenodd" clip-rule="evenodd" d="M731.409 475.647C730.869 476.486 730.33 477.336 729.793 478.197C729.647 478.431 729.339 478.503 729.104 478.356C728.87 478.21 728.798 477.902 728.945 477.668C729.484 476.802 730.026 475.948 730.569 475.105C730.719 474.873 731.028 474.806 731.26 474.956C731.492 475.106 731.559 475.415 731.409 475.647ZM732.358 473.281C732.128 473.128 732.066 472.817 732.219 472.587C732.785 471.736 733.352 470.898 733.918 470.074C734.074 469.846 734.385 469.788 734.613 469.944C734.841 470.1 734.899 470.412 734.742 470.639C734.179 471.46 733.615 472.294 733.051 473.141C732.898 473.371 732.588 473.434 732.358 473.281ZM728.055 480.071C728.291 480.213 728.368 480.52 728.225 480.757C727.711 481.611 727.201 482.475 726.696 483.347C726.557 483.586 726.251 483.668 726.012 483.53C725.773 483.391 725.692 483.085 725.83 482.846C726.339 481.969 726.852 481.1 727.368 480.241C727.511 480.005 727.818 479.928 728.055 480.071ZM735.767 468.287C735.542 468.128 735.488 467.816 735.648 467.59C736.233 466.762 736.816 465.949 737.395 465.154C737.557 464.93 737.87 464.881 738.093 465.043C738.317 465.206 738.366 465.518 738.204 465.742C737.628 466.534 737.047 467.343 736.464 468.167C736.305 468.393 735.993 468.446 735.767 468.287ZM725.015 485.286C725.256 485.42 725.343 485.725 725.209 485.966C724.724 486.837 724.245 487.716 723.772 488.603C723.642 488.846 723.339 488.939 723.096 488.809C722.852 488.679 722.76 488.376 722.89 488.132C723.365 487.24 723.847 486.356 724.335 485.48C724.469 485.239 724.773 485.152 725.015 485.286ZM739.304 463.401C739.083 463.235 739.038 462.922 739.203 462.701C739.82 461.875 740.431 461.071 741.032 460.288C741.2 460.069 741.514 460.028 741.733 460.196C741.952 460.364 741.993 460.678 741.825 460.897C741.226 461.676 740.619 462.478 740.004 463.299C739.839 463.521 739.526 463.566 739.304 463.401ZM722.161 490.602C722.407 490.727 722.505 491.029 722.38 491.275C721.927 492.164 721.482 493.06 721.045 493.962C720.924 494.21 720.625 494.314 720.377 494.194C720.128 494.074 720.024 493.775 720.145 493.526C720.585 492.618 721.033 491.716 721.488 490.821C721.614 490.575 721.915 490.477 722.161 490.602ZM742.961 458.618C742.744 458.447 742.707 458.132 742.878 457.916C743.52 457.102 744.148 456.316 744.761 455.559C744.935 455.345 745.249 455.311 745.464 455.485C745.679 455.659 745.712 455.974 745.538 456.188C744.928 456.942 744.302 457.724 743.663 458.535C743.492 458.752 743.178 458.789 742.961 458.618ZM719.516 496.02C719.767 496.135 719.877 496.432 719.762 496.683C719.345 497.592 718.937 498.506 718.539 499.426C718.43 499.68 718.136 499.796 717.882 499.687C717.629 499.577 717.512 499.283 717.622 499.029C718.022 498.103 718.433 497.181 718.853 496.266C718.968 496.015 719.265 495.905 719.516 496.02ZM746.754 453.913C746.541 453.736 746.512 453.421 746.689 453.209C747.368 452.392 748.02 451.619 748.642 450.891C748.821 450.681 749.137 450.656 749.347 450.835C749.557 451.015 749.582 451.33 749.402 451.54C748.783 452.265 748.134 453.035 747.458 453.848C747.281 454.06 746.966 454.089 746.754 453.913ZM750.666 449.312C750.458 449.13 750.438 448.814 750.62 448.607C751.35 447.776 752.017 447.03 752.61 446.375C752.796 446.171 753.112 446.155 753.316 446.341C753.521 446.526 753.537 446.842 753.351 447.047C752.761 447.698 752.098 448.44 751.371 449.267C751.189 449.474 750.873 449.494 750.666 449.312ZM717.103 501.547C717.359 501.651 717.483 501.942 717.379 502.198C717.004 503.126 716.639 504.058 716.287 504.995C716.189 505.253 715.901 505.384 715.642 505.287C715.384 505.19 715.253 504.901 715.351 504.643C715.706 503.698 716.074 502.758 716.452 501.823C716.556 501.567 716.847 501.443 717.103 501.547ZM754.71 444.83C754.51 444.64 754.5 444.324 754.69 444.123C755.017 443.776 755.271 443.511 755.443 443.333C755.529 443.244 755.595 443.176 755.639 443.131L755.689 443.08L755.702 443.066L755.706 443.062M754.71 444.83C754.911 445.019 755.228 445.01 755.417 444.809ZM755.417 444.809C755.742 444.465 755.993 444.203 756.162 444.028ZM756.162 444.028C756.247 443.94 756.311 443.874 756.355 443.83ZM756.355 443.83L756.386 443.797ZM756.063 443.413L755.706 443.062L755.74 443.028L755.779 443.001C756.21 442.704 756.67 442.4 757.156 442.092C757.389 441.944 757.698 442.013 757.846 442.246C757.994 442.479 757.924 442.788 757.691 442.936C757.231 443.228 756.794 443.517 756.386 443.797M756.063 443.413C755.707 443.062 755.706 443.062 755.706 443.062ZM714.957 507.184C715.217 507.274 715.356 507.559 715.265 507.82C714.937 508.765 714.622 509.715 714.322 510.667C714.239 510.93 713.958 511.076 713.694 510.993C713.431 510.91 713.285 510.629 713.368 510.366C713.672 509.404 713.99 508.446 714.32 507.492C714.411 507.231 714.696 507.093 714.957 507.184ZM713.115 512.927C713.38 513.002 713.535 513.278 713.459 513.544C713.186 514.507 712.928 515.472 712.687 516.44C712.62 516.708 712.348 516.87 712.08 516.803C711.812 516.737 711.649 516.465 711.716 516.197C711.961 515.219 712.221 514.244 712.497 513.271C712.572 513.006 712.849 512.851 713.115 512.927ZM759.8 441.098C759.668 440.855 759.758 440.551 760 440.419C760.936 439.909 761.924 439.409 762.948 438.936C763.199 438.82 763.496 438.929 763.612 439.18C763.727 439.431 763.618 439.728 763.367 439.844C762.365 440.307 761.396 440.797 760.479 441.297C760.236 441.429 759.932 441.34 759.8 441.098ZM711.623 518.769C711.893 518.827 712.065 519.093 712.007 519.363C711.797 520.342 711.605 521.322 711.43 522.303C711.382 522.575 711.122 522.757 710.851 522.708C710.579 522.66 710.397 522.4 710.446 522.129C710.622 521.135 710.817 520.143 711.029 519.153C711.087 518.883 711.353 518.711 711.623 518.769ZM765.703 438.304C765.607 438.045 765.738 437.757 765.996 437.66C767.033 437.273 768.088 436.927 769.148 436.639C769.414 436.566 769.689 436.724 769.761 436.99C769.834 437.257 769.676 437.531 769.41 437.604C768.384 437.883 767.358 438.219 766.347 438.597C766.088 438.694 765.8 438.562 765.703 438.304ZM710.535 524.699C710.809 524.737 711 524.989 710.962 525.263C710.824 526.254 710.706 527.246 710.609 528.238C710.582 528.513 710.338 528.714 710.063 528.687C709.788 528.66 709.587 528.415 709.614 528.14C709.713 527.135 709.832 526.13 709.971 525.125C710.009 524.852 710.262 524.661 710.535 524.699ZM709.909 530.693C710.185 530.708 710.396 530.944 710.381 531.22C710.326 532.219 710.294 533.216 710.284 534.213C710.281 534.489 710.055 534.711 709.779 534.708C709.503 534.705 709.281 534.479 709.284 534.203C709.294 533.191 709.327 532.178 709.383 531.165C709.398 530.889 709.633 530.678 709.909 530.693ZM771.98 436.521C771.941 436.248 772.13 435.994 772.404 435.955C773.535 435.793 774.657 435.717 775.748 435.751C776.024 435.76 776.241 435.99 776.232 436.266C776.224 436.542 775.993 436.759 775.717 436.751C774.692 436.719 773.629 436.79 772.546 436.945C772.272 436.984 772.019 436.794 771.98 436.521ZM709.807 536.721C710.083 536.71 710.315 536.926 710.326 537.201C710.364 538.198 710.426 539.193 710.514 540.186C710.538 540.461 710.335 540.704 710.06 540.728C709.785 540.752 709.542 540.549 709.518 540.274C709.429 539.264 709.365 538.253 709.327 537.24C709.316 536.964 709.531 536.731 709.807 536.721ZM710.289 542.728C710.563 542.69 710.816 542.88 710.854 543.153C710.994 544.139 711.159 545.121 711.353 546.1C711.406 546.371 711.23 546.634 710.959 546.687C710.688 546.741 710.425 546.564 710.372 546.294C710.175 545.297 710.006 544.296 709.864 543.293C709.826 543.02 710.016 542.767 710.289 542.728ZM778.474 436.595C778.55 436.33 778.828 436.177 779.093 436.254C780.192 436.572 781.231 437.049 782.179 437.716C782.405 437.874 782.46 438.186 782.301 438.412C782.143 438.638 781.831 438.693 781.605 438.534C780.755 437.937 779.818 437.505 778.815 437.215C778.55 437.138 778.397 436.861 778.474 436.595ZM711.403 548.648C711.67 548.58 711.942 548.741 712.011 549.009C712.258 549.972 712.532 550.932 712.836 551.886C712.92 552.15 712.774 552.431 712.511 552.515C712.248 552.598 711.967 552.453 711.883 552.19C711.573 551.216 711.294 550.238 711.042 549.257C710.974 548.989 711.135 548.717 711.403 548.648ZM783.9 440.012C784.124 439.851 784.437 439.902 784.598 440.127C784.919 440.574 785.218 441.059 785.492 441.583C785.719 442.018 785.928 442.461 786.118 442.913C786.225 443.167 786.106 443.46 785.851 443.567C785.597 443.675 785.304 443.555 785.196 443.301C785.017 442.874 784.82 442.456 784.606 442.047C784.353 441.562 784.079 441.117 783.786 440.71C783.625 440.486 783.676 440.173 783.9 440.012ZM713.173 554.405C713.43 554.306 713.72 554.436 713.818 554.693C714.172 555.619 714.556 556.541 714.968 557.456C715.082 557.708 714.97 558.004 714.718 558.118C714.466 558.231 714.17 558.119 714.057 557.867C713.636 556.934 713.245 555.995 712.884 555.051C712.786 554.793 712.915 554.504 713.173 554.405ZM786.433 445.33C786.701 445.263 786.973 445.427 787.039 445.695C787.271 446.629 787.439 447.589 787.545 448.571C787.575 448.846 787.376 449.093 787.101 449.122C786.827 449.152 786.58 448.953 786.551 448.679C786.449 447.739 786.289 446.823 786.069 445.936C786.002 445.668 786.165 445.397 786.433 445.33ZM715.594 559.921C715.839 559.793 716.141 559.888 716.269 560.133C716.725 561.008 717.211 561.878 717.726 562.742C717.867 562.98 717.79 563.286 717.552 563.428C717.315 563.569 717.008 563.492 716.867 563.254C716.342 562.374 715.848 561.488 715.382 560.596C715.254 560.351 715.349 560.049 715.594 559.921ZM787.188 450.974C787.464 450.977 787.686 451.203 787.684 451.479C787.675 452.43 787.616 453.397 787.509 454.376C787.48 454.651 787.233 454.849 786.958 454.819C786.684 454.79 786.485 454.543 786.515 454.268C786.618 453.32 786.675 452.386 786.684 451.47C786.686 451.194 786.912 450.972 787.188 450.974ZM764.131 491.632C763.956 491.419 763.987 491.104 764.2 490.929C764.564 490.63 764.926 490.326 765.284 490.018C765.494 489.839 765.81 489.863 765.989 490.072C766.169 490.282 766.145 490.598 765.936 490.777C765.571 491.09 765.204 491.398 764.835 491.702C764.621 491.877 764.306 491.846 764.131 491.632ZM786.676 456.654C786.947 456.707 787.124 456.97 787.071 457.241C786.888 458.173 786.666 459.113 786.407 460.059C786.334 460.325 786.059 460.482 785.793 460.409C785.527 460.336 785.37 460.061 785.443 459.795C785.696 458.872 785.912 457.955 786.089 457.048C786.142 456.777 786.405 456.601 786.676 456.654ZM767.372 488.833C767.183 488.632 767.194 488.315 767.395 488.127C768.084 487.483 768.761 486.823 769.426 486.148C769.62 485.952 769.936 485.949 770.133 486.143C770.33 486.337 770.332 486.654 770.138 486.85C769.464 487.534 768.777 488.204 768.078 488.857C767.877 489.046 767.56 489.035 767.372 488.833ZM785.245 462.179C785.506 462.268 785.645 462.553 785.555 462.814C785.246 463.712 784.905 464.612 784.536 465.513C784.431 465.769 784.139 465.891 783.883 465.786C783.628 465.681 783.506 465.389 783.61 465.134C783.973 464.25 784.307 463.367 784.609 462.488C784.699 462.227 784.984 462.089 785.245 462.179ZM718.63 565.126C718.859 564.972 719.169 565.033 719.324 565.262C719.605 565.679 719.893 566.094 720.188 566.508C720.349 566.733 720.297 567.045 720.072 567.206C719.847 567.366 719.535 567.314 719.374 567.089C719.073 566.668 718.78 566.245 718.494 565.82C718.34 565.591 718.401 565.281 718.63 565.126ZM771.409 484.795C771.204 484.609 771.189 484.293 771.375 484.089C772.011 483.389 772.633 482.677 773.241 481.953C773.418 481.742 773.734 481.714 773.945 481.892C774.157 482.069 774.184 482.384 774.007 482.596C773.391 483.33 772.76 484.052 772.115 484.761C771.929 484.966 771.613 484.981 771.409 484.795ZM783.133 467.483C783.383 467.601 783.489 467.899 783.371 468.149C782.965 469.009 782.533 469.867 782.077 470.721C781.947 470.965 781.644 471.057 781.401 470.927C781.157 470.797 781.065 470.494 781.195 470.251C781.643 469.41 782.068 468.566 782.467 467.721C782.585 467.472 782.883 467.365 783.133 467.483ZM775.11 480.447C774.891 480.278 774.851 479.964 775.02 479.746C775.601 478.996 776.165 478.236 776.711 477.469C776.872 477.244 777.184 477.191 777.409 477.352C777.634 477.512 777.686 477.824 777.526 478.049C776.972 478.827 776.4 479.597 775.811 480.358C775.642 480.576 775.328 480.616 775.11 480.447ZM780.49 472.544C780.728 472.685 780.806 472.992 780.665 473.23C780.18 474.049 779.673 474.864 779.146 475.673C778.995 475.904 778.685 475.969 778.454 475.818C778.223 475.668 778.157 475.358 778.308 475.126C778.827 474.33 779.327 473.527 779.805 472.72C779.946 472.482 780.253 472.404 780.49 472.544Z" fill="white"/>
<path fill-rule="evenodd" clip-rule="evenodd" d="M677.235 146.509C677.242 146.221 677.48 145.993 677.768 146C678.448 146.016 679.12 146.077 679.781 146.179C680.066 146.224 680.26 146.49 680.216 146.775C680.172 147.06 679.905 147.255 679.621 147.21C679.004 147.114 678.377 147.058 677.744 147.043C677.456 147.036 677.228 146.797 677.235 146.509ZM676.325 146.547C676.356 146.834 676.148 147.091 675.862 147.122C675.551 147.155 675.239 147.198 674.927 147.252C674.615 147.306 674.307 147.37 674.004 147.443C673.724 147.511 673.442 147.339 673.374 147.059C673.307 146.779 673.479 146.497 673.759 146.429C674.085 146.351 674.415 146.282 674.75 146.224C675.084 146.167 675.418 146.12 675.751 146.084C676.037 146.054 676.294 146.261 676.325 146.547ZM681.105 146.973C681.186 146.697 681.476 146.538 681.752 146.619C682.401 146.809 683.035 147.04 683.65 147.311C683.913 147.427 684.033 147.734 683.917 147.998C683.801 148.262 683.494 148.382 683.23 148.266C682.656 148.013 682.065 147.797 681.459 147.62C681.183 147.54 681.024 147.25 681.105 146.973ZM672.505 147.33C672.609 147.599 672.476 147.901 672.207 148.005C671.617 148.234 671.047 148.501 670.501 148.801C670.249 148.94 669.932 148.848 669.793 148.596C669.654 148.344 669.746 148.026 669.998 147.887C670.584 147.565 671.196 147.278 671.83 147.033C672.099 146.928 672.401 147.062 672.505 147.33ZM684.726 148.418C684.875 148.171 685.195 148.092 685.442 148.241C686.019 148.59 686.573 148.975 687.099 149.395C687.325 149.574 687.362 149.903 687.182 150.128C687.003 150.353 686.675 150.39 686.449 150.211C685.958 149.819 685.441 149.459 684.903 149.134C684.656 148.985 684.577 148.664 684.726 148.418ZM669.026 149.087C669.197 149.319 669.148 149.646 668.916 149.817C668.409 150.191 667.929 150.598 667.478 151.033C667.271 151.233 666.941 151.227 666.741 151.02C666.541 150.813 666.546 150.483 666.754 150.283C667.237 149.816 667.752 149.38 668.296 148.978C668.528 148.807 668.855 148.856 669.026 149.087ZM687.857 150.741C688.064 150.541 688.394 150.546 688.594 150.754C689.061 151.237 689.497 151.752 689.899 152.296C690.07 152.528 690.021 152.855 689.789 153.026C689.558 153.197 689.231 153.148 689.06 152.916C688.685 152.409 688.279 151.929 687.843 151.478C687.643 151.271 687.649 150.941 687.857 150.741ZM666.128 151.694C666.353 151.874 666.39 152.202 666.211 152.427C665.819 152.919 665.459 153.436 665.134 153.974C664.985 154.221 664.664 154.3 664.418 154.151C664.171 154.002 664.092 153.681 664.241 153.435C664.59 152.858 664.975 152.304 665.395 151.777C665.574 151.552 665.903 151.515 666.128 151.694ZM690.281 153.793C690.533 153.654 690.85 153.746 690.989 153.998C691.312 154.584 691.598 155.196 691.844 155.83C691.948 156.099 691.815 156.401 691.546 156.505C691.278 156.609 690.976 156.476 690.871 156.207C690.643 155.617 690.376 155.047 690.075 154.501C689.937 154.249 690.028 153.932 690.281 153.793ZM663.998 154.959C664.262 155.075 664.382 155.383 664.266 155.647C664.013 156.221 663.797 156.812 663.62 157.417C663.54 157.694 663.25 157.852 662.973 157.772C662.697 157.691 662.538 157.401 662.619 157.125C662.809 156.476 663.04 155.842 663.311 155.227C663.427 154.963 663.734 154.844 663.998 154.959ZM691.818 157.374C692.098 157.307 692.38 157.479 692.447 157.759C692.526 158.084 692.594 158.413 692.652 158.746C692.705 159.032 692.749 159.316 692.785 159.601C692.822 159.886 692.62 160.148 692.334 160.184C692.049 160.221 691.787 160.019 691.751 159.733C691.717 159.467 691.675 159.201 691.625 158.933L691.624 158.927L691.624 158.927C691.57 158.615 691.507 158.307 691.433 158.004C691.366 157.724 691.538 157.442 691.818 157.374ZM662.775 158.661C663.06 158.705 663.255 158.971 663.21 159.256C663.114 159.873 663.058 160.499 663.043 161.133C663.036 161.421 662.797 161.649 662.509 161.642C662.221 161.635 661.993 161.396 662 161.108C662.016 160.429 662.077 159.757 662.179 159.096C662.224 158.811 662.49 158.616 662.775 158.661ZM692.38 160.817C692.668 160.813 692.904 161.044 692.909 161.332C692.917 161.915 692.891 162.494 692.834 163.066C692.805 163.352 692.549 163.561 692.263 163.532C691.976 163.503 691.767 163.248 691.796 162.961C691.85 162.429 691.873 161.89 691.865 161.346C691.861 161.058 692.092 160.822 692.38 160.817ZM662.547 162.552C662.834 162.521 663.091 162.729 663.122 163.015C663.155 163.326 663.198 163.637 663.252 163.95C663.306 164.262 663.37 164.57 663.443 164.873C663.511 165.153 663.339 165.435 663.059 165.502C662.779 165.57 662.497 165.398 662.429 165.118C662.351 164.792 662.282 164.462 662.224 164.127C662.167 163.793 662.12 163.459 662.084 163.126C662.054 162.84 662.261 162.583 662.547 162.552ZM692.163 164.158C692.444 164.22 692.622 164.498 692.561 164.78C692.437 165.347 692.28 165.905 692.093 166.451C692 166.724 691.703 166.869 691.431 166.775C691.158 166.682 691.013 166.385 691.106 166.113C691.28 165.605 691.426 165.085 691.542 164.556C691.603 164.275 691.881 164.097 692.163 164.158ZM663.33 166.372C663.599 166.268 663.901 166.401 664.005 166.67C664.234 167.26 664.501 167.83 664.801 168.376C664.94 168.628 664.848 168.945 664.596 169.084C664.344 169.223 664.026 169.131 663.887 168.879C663.565 168.292 663.278 167.681 663.033 167.047C662.928 166.778 663.062 166.476 663.33 166.372ZM691.191 167.363C691.451 167.487 691.562 167.798 691.438 168.058C691.189 168.581 690.911 169.089 690.605 169.58C690.452 169.824 690.13 169.899 689.886 169.746C689.642 169.594 689.567 169.272 689.719 169.028C690.005 168.57 690.264 168.097 690.496 167.61C690.62 167.349 690.931 167.239 691.191 167.363ZM665.087 169.851C665.319 169.68 665.646 169.729 665.817 169.961C666.191 170.467 666.598 170.948 667.033 171.398C667.233 171.606 667.227 171.936 667.02 172.136C666.813 172.336 666.483 172.33 666.283 172.123C665.816 171.639 665.38 171.124 664.978 170.58C664.807 170.349 664.856 170.022 665.087 169.851ZM689.521 170.265C689.746 170.444 689.784 170.772 689.605 170.998C689.247 171.45 688.862 171.883 688.454 172.294C688.25 172.499 687.92 172.499 687.716 172.296C687.512 172.093 687.511 171.763 687.714 171.559C688.095 171.175 688.453 170.771 688.788 170.35C688.967 170.124 689.295 170.086 689.521 170.265ZM687.244 172.721C687.424 172.945 687.389 173.274 687.164 173.454C686.715 173.814 686.244 174.151 685.753 174.462C685.51 174.616 685.188 174.544 685.033 174.301C684.879 174.058 684.952 173.735 685.195 173.581C685.653 173.291 686.092 172.977 686.511 172.64C686.735 172.46 687.064 172.496 687.244 172.721ZM667.694 172.749C667.874 172.524 668.202 172.486 668.427 172.666C668.919 173.058 669.436 173.417 669.974 173.743C670.221 173.892 670.3 174.212 670.151 174.459C670.002 174.705 669.681 174.785 669.435 174.636C668.858 174.287 668.304 173.902 667.777 173.482C667.552 173.302 667.515 172.974 667.694 172.749ZM684.48 174.61C684.606 174.869 684.498 175.181 684.239 175.307C683.724 175.558 683.191 175.783 682.642 175.98C682.37 176.076 682.072 175.935 681.975 175.664C681.878 175.393 682.019 175.094 682.291 174.997C682.804 174.814 683.301 174.604 683.782 174.37C684.041 174.243 684.354 174.351 684.48 174.61ZM670.959 174.879C671.075 174.615 671.383 174.495 671.647 174.611C672.221 174.863 672.812 175.079 673.417 175.256C673.694 175.337 673.852 175.627 673.772 175.903C673.691 176.18 673.401 176.338 673.125 176.258C672.476 176.068 671.842 175.836 671.227 175.566C670.963 175.45 670.844 175.142 670.959 174.879ZM681.366 175.844C681.433 176.125 681.26 176.406 680.98 176.473C680.701 176.54 680.418 176.599 680.132 176.651L680.127 176.652L680.127 176.652C679.793 176.71 679.459 176.757 679.126 176.792C678.84 176.823 678.583 176.616 678.552 176.329C678.521 176.043 678.729 175.786 679.015 175.755C679.325 175.722 679.636 175.679 679.947 175.625C680.214 175.576 680.477 175.52 680.738 175.458C681.018 175.391 681.299 175.564 681.366 175.844ZM674.661 176.102C674.705 175.817 674.971 175.622 675.256 175.666C675.873 175.762 676.499 175.819 677.133 175.834C677.421 175.84 677.649 176.079 677.642 176.367C677.635 176.655 677.396 176.883 677.108 176.877C676.429 176.861 675.757 176.8 675.096 176.697C674.811 176.653 674.616 176.386 674.661 176.102Z" fill="#0F192E"/>
<path d="M324.459 493.401L74.2377 567.533L-26.693 261.641L-2.08621 -34.879L290.566 -98.4589L420.548 303.58L324.459 493.401Z" fill="#73BAC3"/>
<path fill-rule="evenodd" clip-rule="evenodd" d="M421.122 303.623L324.836 493.834L73.8899 568.181L-27.2345 261.702L-2.58728 -35.3046L290.928 -99.0721L421.122 303.623ZM290.204 -97.8459L-1.58518 -34.4535L-26.1517 261.58L74.5855 566.885L324.082 492.967L419.973 303.537L290.204 -97.8459Z" fill="#0F192E"/>
<path d="M335.498 471.5L385.463 447.808L433.487 366.488L412.773 320.105L335.498 471.5Z" fill="#73BAC3"/>
<path fill-rule="evenodd" clip-rule="evenodd" d="M434.085 366.521L385.845 448.207L334.319 472.638L412.806 318.871L434.085 366.521ZM412.741 321.338L336.676 470.361L385.082 447.409L432.89 366.455L412.741 321.338Z" fill="#0F192E"/>
<path d="M391.073 438.415L444.338 406.748L429.793 372.743L391.073 438.415Z" fill="#73BAC3"/>
<path fill-rule="evenodd" clip-rule="evenodd" d="M445.009 406.961L389.569 439.92L429.87 371.568L445.009 406.961ZM429.717 373.919L392.577 436.91L443.668 406.536L429.717 373.919Z" fill="#0F192E"/>
<path fill-rule="evenodd" clip-rule="evenodd" d="M156.195 29.5007C156.237 29.657 156.203 29.8238 156.102 29.9521L-26.2689 261.958C-26.4131 262.142 -26.664 262.211 -26.8852 262.128C-27.1064 262.045 -27.2451 261.829 -27.226 261.599L-2.61914 -34.921C-2.60531 -35.0876 -2.5105 -35.2377 -2.36414 -35.3245C-2.21777 -35.4114 -2.0376 -35.4246 -1.87961 -35.36L155.885 29.1536C156.038 29.2162 156.152 29.3444 156.195 29.5007ZM154.832 29.8542L-1.61289 -34.1198L-26.0139 259.92L154.832 29.8542Z" fill="#0F192E"/>
<path fill-rule="evenodd" clip-rule="evenodd" d="M421.122 303.623L324.836 493.834L73.8901 568.181L-27.2343 261.702L-2.5871 -35.3046L290.929 -99.0721L421.122 303.623ZM290.204 -97.8459L-1.58499 -34.4535L-26.1515 261.58L74.5857 566.885L324.082 492.967L419.973 303.537L290.204 -97.8459Z" fill="#0F192E"/>
<g clip-path="url(#clip0)">
<path d="M56.2226 671.62C56.989 669.207 56.7319 667.262 55.4981 666.386C57.5998 665.756 59.9825 664.028 61.9999 661.736C61.2433 664.148 61.4987 666.083 62.7325 666.959C61.5957 667.305 60.3722 667.961 59.1113 668.919C58.0799 669.682 57.108 670.608 56.2226 671.62ZM64.0329 658.284L64.023 658.286C63.8075 658.273 63.5414 658.433 63.4238 658.627L63.4255 658.636C60.9571 662.777 56.7565 666.039 54.0405 665.906C53.9269 665.895 53.8123 665.936 53.7013 665.997C53.5821 666.069 53.4862 666.157 53.4331 666.258C53.3172 666.462 53.3901 666.642 53.6155 666.652C56.3242 666.858 56.5109 670.451 54.0234 674.656L54.0055 674.669C53.8896 674.873 53.9706 675.041 54.1879 675.063L54.1977 675.061C54.4132 675.074 54.6793 674.914 54.797 674.72C56.0214 672.652 57.7015 670.746 59.536 669.361C61.253 668.057 62.8987 667.376 64.1687 667.433L64.1785 667.432L64.1982 667.428L64.259 667.427C64.412 667.43 64.5919 667.357 64.7237 667.242C64.8555 667.127 64.8818 666.991 64.8722 666.881C64.8662 666.79 64.7832 666.724 64.6777 666.702L64.6858 666.69L64.5838 666.688C61.8849 666.481 61.7 662.898 64.1875 658.693L64.1857 658.683C64.3311 658.474 64.2386 658.298 64.0329 658.284Z" fill="white"/>
</g>
<path d="M1020.58 654.778C1018.58 657.482 1016.11 659.578 1013.86 660.457C1015.28 661.3 1015.75 663.419 1015.12 666.134C1016 664.945 1017 663.851 1018.05 662.913C1019.35 661.751 1020.64 660.92 1021.85 660.442C1020.43 659.588 1019.96 657.48 1020.58 654.778Z" fill="white"/>
<path d="M1015.13 666.131C1015.76 663.416 1015.31 661.305 1013.87 660.454C1016.12 659.575 1018.58 657.469 1020.59 654.775C1019.98 657.488 1020.43 659.588 1021.86 660.439C1020.64 660.919 1019.36 661.748 1018.06 662.91C1017 663.84 1016.02 664.942 1015.13 666.131ZM1022.51 650.807L1022.5 650.81C1022.27 650.816 1021.99 651.015 1021.88 651.238L1021.88 651.248C1019.54 656.009 1015.22 659.961 1012.23 660.057C1012.11 660.055 1011.98 660.11 1011.87 660.187C1011.74 660.277 1011.65 660.382 1011.6 660.497C1011.49 660.731 1011.58 660.922 1011.83 660.913C1014.82 660.898 1015.35 664.823 1012.99 669.656L1012.97 669.672C1012.86 669.906 1012.97 670.083 1013.21 670.088L1013.22 670.085C1013.46 670.08 1013.73 669.881 1013.85 669.658C1015.01 667.28 1016.68 665.04 1018.57 663.357C1020.34 661.775 1022.08 660.882 1023.48 660.831L1023.49 660.828L1023.51 660.823L1023.58 660.817C1023.74 660.806 1023.94 660.71 1024.07 660.572C1024.2 660.435 1024.22 660.282 1024.2 660.162C1024.19 660.064 1024.09 659.998 1023.97 659.984L1023.98 659.97L1023.87 659.977C1020.89 659.99 1020.37 656.076 1022.72 651.242L1022.72 651.232C1022.86 650.99 1022.74 650.804 1022.51 650.807Z" fill="white"/>
<path d="M636.094 350.428L655.311 351.702L642.445 337.304L640.115 342.221L634.45 339.479L632.859 342.784L638.524 345.526L636.094 350.428Z" fill="#C4C4C4"/>
<path fill-rule="evenodd" clip-rule="evenodd" d="M642.311 336.371L656.551 352.306L635.28 350.897L637.823 345.766L632.163 343.027L634.207 338.781L639.869 341.522L642.311 336.371ZM642.58 338.238L640.361 342.919L634.693 340.176L633.555 342.541L639.225 345.286L636.909 349.959L654.071 351.097L642.58 338.238Z" fill="#0F192E"/>
<path d="M584.657 315.225L598.085 329.131L598.187 309.829L593.136 311.863L590.796 306.02L587.367 307.349L589.708 313.192L584.657 315.225Z" fill="white"/>
<path fill-rule="evenodd" clip-rule="evenodd" d="M591.088 305.348L593.426 311.184L598.713 309.055L598.6 330.415L583.744 315.031L589.03 312.902L586.687 307.054L591.088 305.348ZM590.504 306.693L588.048 307.645L590.386 313.481L585.57 315.42L597.571 327.847L597.662 310.603L592.846 312.542L590.504 306.693Z" fill="#0F192E"/>
<path d="M648.156 395.727L654.04 414.005L662.621 396.786L657.157 396.388L657.729 390.138L654.067 389.809L653.62 396.125L648.156 395.727Z" fill="white" stroke="#0F192E" stroke-width="1.0432" stroke-miterlimit="10"/>
<path d="M733.322 670.456L746.19 642.503L715.514 645.354L743.453 626.52L723.501 610.67L753.753 609.889L753.711 582.667L771.843 600.232L791.781 574.469L789.516 602.195L820.23 590.003L798.548 614.828L825.449 621.804L794.45 632.192L805.188 655.104L779.386 646.13L768.88 674.336L760.31 650.293L733.322 670.456Z" fill="#F1F2F2"/>
<path fill-rule="evenodd" clip-rule="evenodd" d="M822.04 588.723L799.496 614.535L827.281 621.741L795.171 632.501L806.185 656.003L779.696 646.79L768.869 675.859L760.056 651.133L731.99 672.102L745.339 643.106L713.531 646.062L742.571 626.486L722.053 610.186L753.23 609.38L753.188 581.433L771.787 599.451L792.444 572.761L790.105 601.4L822.04 588.723ZM818.42 591.282L788.928 602.989L791.118 576.178L771.898 601.012L754.235 583.9L754.275 610.397L724.949 611.155L744.335 626.555L717.498 644.645L747.042 641.9L734.654 668.809L760.564 649.452L768.89 672.813L779.075 645.47L804.19 654.205L793.729 631.884L823.617 621.868L797.6 615.12L818.42 591.282Z" fill="#0F192E"/>
<path d="M736.49 593.086L732.361 573.426L728.035 576.122L724.505 570.608L722.945 571.693L721.303 572.705L724.833 578.219L720.435 580.996L736.49 593.086Z" fill="#F1BDCE"/>
<path fill-rule="evenodd" clip-rule="evenodd" d="M720.816 572.593C720.846 572.463 720.927 572.349 721.041 572.279L722.671 571.274L724.22 570.197C724.331 570.12 724.47 570.091 724.603 570.118C724.736 570.144 724.853 570.224 724.926 570.338L728.19 575.436L732.096 573.002C732.235 572.915 732.407 572.902 732.557 572.966C732.707 573.03 732.816 573.163 732.85 573.323L736.979 592.983C737.022 593.187 736.934 593.396 736.758 593.508C736.582 593.62 736.355 593.611 736.189 593.486L720.134 581.395C720.003 581.296 719.929 581.139 719.935 580.975C719.942 580.811 720.029 580.661 720.168 580.573L724.141 578.065L720.882 572.974C720.81 572.861 720.786 572.724 720.816 572.593ZM721.999 572.863L725.254 577.949C725.326 578.061 725.35 578.198 725.321 578.328C725.292 578.457 725.213 578.571 725.1 578.642L721.314 581.032L735.727 591.886L732.018 574.228L728.3 576.546C728.067 576.691 727.762 576.622 727.614 576.392L724.364 571.315L723.23 572.103C723.223 572.108 723.215 572.113 723.207 572.118L721.999 572.863Z" fill="black"/>
<path d="M90.517 504.598L97.6042 502.334L97.0381 500.562L94.752 501.293C94.2519 501.452 93.57 501.733 93.0596 501.959C94.386 499.457 95.3147 496.893 94.703 494.978C94.0731 493.006 92.3334 492.145 90.333 492.784C88.8899 493.245 88.1248 494.103 87.4864 495.457L88.9947 496.235C89.3505 495.476 89.8194 494.775 90.591 494.528C91.6055 494.204 92.3825 494.664 92.7248 495.736C93.2452 497.365 92.1794 499.894 90.129 503.384L90.517 504.598ZM101.881 501.188C104.039 500.499 104.851 498.161 103.687 494.517C102.523 490.874 100.533 489.525 98.3756 490.215C96.218 490.904 95.3597 493.146 96.5283 496.804C97.6923 500.448 99.7237 501.877 101.881 501.188ZM101.356 499.545C100.442 499.837 99.4639 499.142 98.5144 496.17C97.5695 493.212 97.9815 492.136 98.8959 491.843C99.8104 491.551 100.756 492.194 101.701 495.152C102.65 498.124 102.271 499.253 101.356 499.545ZM105.916 499.679L113.003 497.415L112.437 495.643L110.151 496.373C109.651 496.533 108.969 496.814 108.459 497.04C109.785 494.537 110.714 491.973 110.102 490.059C109.472 488.087 107.733 487.225 105.732 487.864C104.289 488.325 103.524 489.184 102.886 490.537L104.394 491.315C104.75 490.556 105.219 489.855 105.99 489.609C107.005 489.284 107.782 489.745 108.124 490.816C108.644 492.445 107.579 494.975 105.528 498.464L105.916 499.679ZM114.173 497.041L120.532 495.01L119.988 493.309L118.002 493.944L115.163 485.056L113.606 485.554C113.071 486.197 112.429 486.701 111.436 487.239L111.851 488.539L113.766 487.928L115.902 494.615L113.63 495.341L114.173 497.041ZM128.094 483.665L128.583 485.194L130.855 484.468L132.215 488.726L134.101 488.124L131.029 478.507L129.143 479.11L130.366 482.939L128.094 483.665ZM121.185 482.739L121.664 484.239L125.765 482.929C126.067 484.958 124.84 487.082 122.371 488.816L123.626 490.084C127.067 487.646 128.437 484.343 127.3 480.785L121.185 482.739ZM127.965 492.084L127.084 489.326L125.198 489.928L126.558 494.186L135.489 491.333L135.009 489.833L127.965 492.084ZM146.482 480.846L146.003 479.345L144.346 479.875C144.155 478.392 143.804 477.292 143.489 476.306L143.151 475.249L134.107 478.138L134.59 479.653L141.778 477.357C142.056 478.228 142.319 479.199 142.459 480.477L134.086 483.152L134.566 484.653L139.567 483.055L140.16 484.912L136.359 486.127L136.834 487.613L144.278 485.234L145.305 488.449L147.206 487.842L145.704 483.141L142.046 484.31L141.453 482.452L146.482 480.846ZM148.088 476.412L151.103 475.448L150.614 473.92L145.742 475.476L148.517 484.164L149.432 483.871C151.118 483.333 152.5 482.828 154.004 482.017L153.373 480.534C152.189 481.164 151.097 481.592 149.877 482.013L148.088 476.412ZM154.384 471.03L156.005 476.103L154.819 476.482L153.28 471.666L151.523 472.228L155.453 484.53L157.211 483.969L155.302 477.996L156.488 477.617L158.593 484.204L160.379 483.634L156.17 470.46L154.384 471.03ZM165.431 468.793L162.502 469.728L162.109 468.499L160.209 469.107L160.601 470.335L157.686 471.267L158.161 472.753L165.906 470.279L165.431 468.793ZM161.508 474.801C161.298 474.144 161.765 473.633 162.622 473.359C163.465 473.089 164.156 473.231 164.366 473.888C164.581 474.56 164.1 475.076 163.257 475.345C162.399 475.619 161.723 475.473 161.508 474.801ZM166.166 473.313C165.71 471.884 164.066 471.323 162.166 471.93C160.28 472.532 159.251 473.947 159.708 475.376C160.169 476.819 161.827 477.376 163.713 476.774C165.614 476.167 166.627 474.756 166.166 473.313ZM162.194 479.905L169.081 477.704L169.998 480.576L171.885 479.974L170.483 475.587L161.71 478.39L162.194 479.905ZM170.501 469.629L168.758 470.186L167.68 466.814L165.794 467.417L168.424 475.647L170.31 475.044L169.255 471.744L170.998 471.187L170.501 469.629ZM182.846 471.307C182.44 468.508 181.86 466.693 181.344 465.079L180.938 463.807L171.265 466.897L171.744 468.398L179.531 465.91C180.015 467.424 180.567 469.201 180.9 471.724L182.846 471.307ZM180.562 473.769L179.233 469.611L177.39 470.2L178.718 474.358L177.318 474.805L175.99 470.647L174.132 471.241L175.461 475.399L172.96 476.197L173.444 477.712L185.361 473.905L184.877 472.39L180.562 473.769ZM99.4342 514.914L97.5481 515.516L98.1598 517.431C98.9768 519.989 98.7034 522.879 96.7179 524.6L98.3443 525.797C99.6787 524.552 100.298 522.795 100.323 520.85C101.424 522.277 102.854 523.254 104.588 523.456L105.171 521.584C102.636 521.339 100.826 519.272 100.046 516.829L99.4342 514.914ZM103.021 512.634L107.238 525.837L109.124 525.234L104.907 512.032L103.021 512.634ZM107.162 512.146L107.641 513.646L111.814 512.313C112.099 514.143 110.95 516.116 108.254 517.781L109.481 519.011C113.058 516.75 114.501 513.675 113.378 510.16L107.162 512.146ZM111.12 520.739L118.007 518.539L119.121 522.025L121.007 521.423L119.414 516.436L110.641 519.239L111.12 520.739ZM119.523 510.764L117.78 511.321L116.798 508.249L114.912 508.851L117.35 516.481L119.236 515.879L118.273 512.864L120.016 512.307L119.523 510.764ZM127.506 510.371C127.349 508.846 126.98 507.689 126.701 506.817L126.427 505.96L119.683 508.114L120.162 509.615L125.049 508.053C125.267 508.787 125.484 509.662 125.631 510.812L127.506 510.371ZM128.569 510.692C127.386 511.228 126.099 511.734 124.817 512.206L124.095 509.949L122.252 510.537L122.987 512.838C122.149 513.121 121.334 513.382 120.591 513.619L121.256 515.06C123.6 514.311 126.553 513.305 129.112 511.999L128.569 510.692ZM128.671 517.321C126.956 517.869 125.927 517.851 125.703 517.151C125.48 516.451 126.304 515.825 128.018 515.278C129.704 514.739 130.738 514.771 130.962 515.471C131.185 516.171 130.357 516.782 128.671 517.321ZM127.553 513.82C124.738 514.719 123.277 516.21 123.775 517.767C124.272 519.324 126.326 519.692 129.141 518.793C131.927 517.902 133.388 516.412 132.891 514.855C132.393 513.297 130.339 512.93 127.553 513.82ZM130.403 507.461L129.371 504.232L127.485 504.835L130.05 512.865L131.936 512.262L130.9 509.019L132.486 508.512L131.989 506.954L130.403 507.461ZM144.319 509.031C143.953 506.061 143.36 504.204 142.835 502.56L142.433 501.303L132.874 504.357L133.353 505.857L141.026 503.406C141.515 504.935 142.07 506.773 142.365 509.419L144.319 509.031ZM140.614 511.726L139.167 507.197L137.281 507.799L138.728 512.329L134.527 513.671L135.011 515.185L146.913 511.383L146.429 509.868L140.614 511.726ZM147.263 501.492L151.736 500.063L151.247 498.534L144.889 500.566L147.728 509.453L148.886 509.083C151.686 508.189 153.34 507.598 155.016 506.684L154.347 505.181C152.857 505.988 151.408 506.53 149.112 507.279L147.263 501.492ZM152.745 496.765L156.963 509.967L158.849 509.365L154.631 496.162L152.745 496.765ZM161.888 496.946L164.502 496.111L164.005 494.553L156.775 496.863L157.272 498.421L160.001 497.549L160.234 498.277C160.928 500.449 160.646 503.263 158.808 504.953L160.345 506.115C161.617 504.922 162.213 503.141 162.251 501.239C163.335 502.609 164.783 503.595 166.455 503.801L167.024 501.982C164.547 501.671 162.759 499.675 162.12 497.675L161.888 496.946ZM169.978 496.787L168.063 497.398L166.461 492.383L164.575 492.985L168.779 506.145L170.665 505.543L168.561 498.956L170.475 498.344L169.978 496.787ZM179.524 488.225L177.624 488.833L180.641 498.277L182.541 497.67L179.524 488.225ZM171.955 495.242C171.608 494.156 172.179 493.28 173.151 492.97C174.136 492.655 175.08 493.046 175.427 494.132C175.765 495.19 175.227 496.07 174.242 496.385C173.27 496.695 172.293 496.299 171.955 495.242ZM177.27 493.543C176.65 491.6 174.645 490.697 172.63 491.341C170.615 491.985 169.491 493.887 170.112 495.83C170.724 497.745 172.747 498.657 174.762 498.014C176.777 497.37 177.882 495.458 177.27 493.543ZM176.298 501.838L175.372 498.937L173.486 499.54L174.892 503.94L183.979 501.037L183.5 499.537L176.298 501.838ZM189.133 486.415L186.204 487.351L185.811 486.122L183.911 486.73L184.303 487.958L181.388 488.89L181.863 490.376L189.607 487.901L189.133 486.415ZM185.21 492.424C185 491.767 185.467 491.256 186.324 490.982C187.167 490.712 187.858 490.854 188.068 491.511C188.283 492.183 187.802 492.699 186.959 492.968C186.101 493.242 185.425 493.096 185.21 492.424ZM189.868 490.936C189.412 489.507 187.768 488.946 185.868 489.553C183.982 490.155 182.953 491.57 183.41 492.999C183.871 494.442 185.529 494.999 187.415 494.397C189.315 493.79 190.329 492.379 189.868 490.936ZM185.896 497.528L192.783 495.327L193.7 498.199L195.587 497.597L194.185 493.21L185.412 496.013L185.896 497.528ZM194.203 487.252L192.46 487.809L191.382 484.437L189.496 485.04L192.126 493.27L194.012 492.667L192.957 489.367L194.7 488.81L194.203 487.252ZM202.79 488.949C202.454 486.663 201.943 485.063 201.536 483.791L201.194 482.72L194.421 484.883L194.9 486.384L199.816 484.813C200.19 485.985 200.599 487.413 200.897 489.381L202.79 488.949ZM199.17 487.524L197.312 488.117L198.554 492.003C197.73 492.283 196.93 492.538 196.201 492.771L196.865 494.259C199.147 493.515 202.072 492.517 204.598 491.206L204.064 489.881C202.91 490.407 201.651 490.904 200.393 491.353L199.17 487.524ZM207.254 485.177L205.482 485.743L203.789 480.442L201.903 481.045L206.107 494.204L207.993 493.602L205.985 487.315L207.756 486.749L207.254 485.177ZM211.091 483.558C213.532 482.573 214.892 481.162 215.194 479.743C216.268 480.738 218.185 481.071 220.764 480.467L220.912 478.861C218.471 479.452 216.952 479.134 216.321 478.438L219.793 477.329L219.327 475.872L209.597 478.98L210.062 480.438L213.52 479.333C213.39 480.256 212.341 481.41 210.024 482.339L211.091 483.558ZM215.132 488.865L222.334 486.564L221.256 483.192L212.169 486.095L212.607 487.467L219.837 485.157L220.065 485.871L212.85 488.177L213.945 491.606L223.361 488.598L222.914 487.197L215.37 489.608L215.132 488.865ZM217.004 482.204L216.625 481.018L214.739 481.621L215.118 482.807L210.131 484.4L210.602 485.871L222.49 482.073L222.019 480.602L217.004 482.204ZM233.636 483.599L228.664 485.187L228.29 484.016L233.262 482.427L233.636 483.599ZM232.805 480.998L227.833 482.587L227.431 481.329L225.56 481.927L227.271 487.286L235.987 484.501L234.276 479.143L232.404 479.741L232.805 480.998ZM226.14 479.112C225.183 479.418 224.296 479.056 223.981 478.07C223.666 477.084 224.179 476.274 225.136 475.969C226.108 475.658 226.995 476.02 227.31 477.006C227.625 477.992 227.112 478.802 226.14 479.112ZM229.947 472.101L230.874 475.002L228.774 475.673C227.955 474.391 226.306 473.863 224.634 474.397C222.662 475.027 221.596 476.816 222.18 478.645C222.765 480.474 224.671 481.314 226.642 480.684C228.343 480.141 229.376 478.74 229.276 477.197L231.362 476.53L232.207 479.174L234.093 478.571L231.833 471.498L229.947 472.101ZM241.406 472.188L241.895 473.717L243.952 473.06L245.445 477.732L247.331 477.129L244.263 467.527L242.377 468.13L243.464 471.531L241.406 472.188ZM243.245 474.939C240.95 474.901 239.534 473.573 239.036 472.016L238.982 471.845L241.539 471.027L241.06 469.527L233.987 471.787L234.466 473.287L237.053 472.461L237.112 472.647C237.642 474.304 237.251 476.334 235.317 477.724L236.754 478.918C238.118 477.915 238.814 476.544 238.984 475.056C239.934 476.059 241.207 476.692 242.801 476.703L243.245 474.939ZM241.128 481.127L240.288 478.497L238.402 479.1L239.721 483.229L248.695 480.363L248.215 478.862L241.128 481.127ZM251.116 466.456L249.23 467.059L249.842 468.973C250.659 471.531 250.385 474.421 248.4 476.142L250.026 477.339C251.361 476.094 251.98 474.337 252.005 472.392C253.106 473.82 254.536 474.796 256.27 474.998L256.853 473.127C254.318 472.881 252.508 470.814 251.728 468.371L251.116 466.456ZM254.703 464.177L258.92 477.379L260.807 476.777L256.589 463.574L254.703 464.177ZM264.485 468.453C265.242 468.211 265.612 467.447 265.366 466.675C265.115 465.889 264.371 465.482 263.613 465.723C262.87 465.961 262.5 466.725 262.751 467.511C262.998 468.282 263.742 468.69 264.485 468.453ZM266.22 473.882C266.977 473.64 267.343 472.862 267.096 472.091C266.845 471.305 266.101 470.897 265.343 471.139C264.6 471.376 264.23 472.14 264.481 472.926C264.728 473.697 265.477 474.12 266.22 473.882ZM273.685 464.285L271.113 465.107L270.099 461.935L272.671 461.113L273.685 464.285ZM274.054 459.034L267.781 461.038L269.744 467.182L276.017 465.178L274.054 459.034ZM271.829 469.618L278.731 467.413L279.781 470.699L281.667 470.097L280.138 465.31L271.35 468.118L271.829 469.618ZM280.201 459.495L278.458 460.052L277.458 456.923L275.572 457.525L278.064 465.327L279.95 464.724L278.951 461.595L280.694 461.038L280.201 459.495Z" fill="#0F192E"/>
<path d="M1209 154.125C1208.97 154.125 1208.94 154.125 1208.92 154.125C1206.16 154.042 1204.01 150.424 1204.12 146C1204.01 150.369 1201.73 153.875 1199 153.875C1201.75 153.93 1203.9 157.576 1203.79 162C1203.9 157.576 1206.22 154.042 1209 154.125Z" fill="white"/>
<path fill-rule="evenodd" clip-rule="evenodd" d="M398.152 497.638C396.844 498.676 396.615 500.548 397.645 501.854C398.677 503.162 400.544 503.377 401.85 502.361C403.153 501.347 403.387 499.454 402.355 498.146C401.324 496.839 399.458 496.623 398.152 497.638ZM397.536 496.85C399.272 495.498 401.765 495.784 403.14 497.527C404.516 499.27 404.205 501.795 402.465 503.15C400.728 504.501 398.235 504.216 396.86 502.473C395.483 500.727 395.798 498.228 397.532 496.853L397.536 496.85L397.536 496.85Z" fill="white"/>
<path fill-rule="evenodd" clip-rule="evenodd" d="M26 521.571C25.1334 521.571 24.5 522.25 24.5 523C24.5 523.75 25.1334 524.429 26 524.429C26.8666 524.429 27.5 523.75 27.5 523C27.5 522.25 26.8666 521.571 26 521.571ZM24 523C24 521.855 24.9324 521 26 521C27.0676 521 28 521.855 28 523C28 524.145 27.0676 525 26 525C24.9324 525 24 524.145 24 523Z" fill="white"/>
<path fill-rule="evenodd" clip-rule="evenodd" d="M798.485 225C798.761 224.991 798.992 225.207 799.002 225.483L799.56 241.513C799.57 241.789 799.354 242.021 799.078 242.03C798.802 242.04 798.57 241.824 798.561 241.548L798.002 225.517C797.993 225.241 798.209 225.01 798.485 225Z" fill="white"/>
<path fill-rule="evenodd" clip-rule="evenodd" d="M806.562 233.25C806.572 233.526 806.355 233.757 806.079 233.766L791.517 234.264C791.241 234.273 791.01 234.057 791 233.781C790.991 233.505 791.207 233.274 791.483 233.264L806.045 232.767C806.321 232.757 806.553 232.974 806.562 233.25Z" fill="white"/>
<path fill-rule="evenodd" clip-rule="evenodd" d="M802.515 229.482C802.717 229.67 802.729 229.986 802.541 230.189L795.754 237.501C795.566 237.703 795.25 237.715 795.047 237.527C794.845 237.339 794.833 237.023 795.021 236.821L801.808 229.508C801.996 229.306 802.313 229.294 802.515 229.482Z" fill="white"/>
<path fill-rule="evenodd" clip-rule="evenodd" d="M794.787 229.766C794.976 229.564 795.292 229.554 795.494 229.743L802.753 236.558C802.955 236.747 802.965 237.063 802.776 237.265C802.587 237.466 802.27 237.476 802.069 237.287L794.809 230.472C794.608 230.283 794.598 229.967 794.787 229.766Z" fill="white"/>
<g clip-path="url(#clip1)">
<path d="M1047.21 151.084C1045.95 146.66 1046.52 143.143 1048.81 141.621C1045.03 140.359 1040.8 137.09 1037.27 132.816C1038.51 137.236 1037.94 140.736 1035.65 142.258C1037.69 142.949 1039.88 144.209 1042.11 146.017C1043.94 147.462 1045.66 149.197 1047.21 151.084ZM1033.77 126.434L1033.79 126.437C1034.18 126.427 1034.65 126.732 1034.86 127.09L1034.85 127.108C1039.1 134.763 1046.55 140.92 1051.49 140.83C1051.69 140.818 1051.9 140.899 1052.1 141.015C1052.31 141.152 1052.48 141.318 1052.57 141.504C1052.77 141.88 1052.63 142.203 1052.22 142.209C1047.29 142.431 1046.75 148.945 1051.03 156.718L1051.06 156.744C1051.26 157.12 1051.1 157.421 1050.71 157.449L1050.69 157.445C1050.3 157.455 1049.82 157.151 1049.62 156.792C1047.51 152.969 1044.57 149.414 1041.32 146.796C1038.27 144.334 1035.32 143.006 1033.01 143.038L1032.99 143.035L1032.96 143.027L1032.85 143.022C1032.57 143.02 1032.25 142.877 1032.02 142.661C1031.78 142.445 1031.74 142.195 1031.77 141.996C1031.78 141.832 1031.94 141.716 1032.13 141.682L1032.12 141.661L1032.3 141.663C1037.21 141.437 1037.75 134.941 1033.47 127.168L1033.47 127.15C1033.22 126.763 1033.4 126.448 1033.77 126.434Z" fill="white"/>
</g>
<path fill-rule="evenodd" clip-rule="evenodd" d="M1532.15 92.9242L1435.1 136.323L1457 98.6621L1385.86 147.865L1345.62 136.697L1329.04 172.864L1243.23 192.468L1288.1 200.756L1190.25 242.858L1277.86 220.983L1203.72 270.074L1300.9 226.678L1279 264.338L1350.14 215.135L1390.38 226.303L1406.96 190.136L1492.77 170.532L1447.9 162.244L1545.75 120.142L1458.15 142.015L1532.15 92.9242ZM1437.2 134.437L1536.57 90L1536.98 90.7559L1462.82 139.958L1550.72 118.007L1551 118.825L1450.87 161.911L1497.05 170.442L1407.57 190.885L1390.86 227.334L1350.29 216.077L1276.3 267.256L1298.8 228.562L1199.29 273L1198.88 272.244L1273.18 223.044L1185.28 244.992L1185 244.175L1285.13 201.089L1238.95 192.558L1328.43 172.115L1345.14 135.666L1385.71 146.923L1459.7 95.7439L1437.2 134.437Z" fill="white"/>
<defs>
<clipPath id="clip0">
<rect width="23.55" height="17.46" fill="white" transform="translate(46 660.154) rotate(-10.1582)"/>
</clipPath>
<clipPath id="clip1">
<rect width="42.7789" height="31.7163" fill="white" transform="matrix(-0.978441 -0.206526 -0.206526 0.978441 1066.41 130.835)"/>
</clipPath>
</defs>
</svg>
