<svg width="200" height="598" viewBox="0 0 200 598" fill="none" xmlns="http://www.w3.org/2000/svg">
<path d="M199.422 524.397C199.403 524.397 199.39 524.397 199.377 524.397C197.729 524.352 196.449 522.202 196.513 519.586C196.449 522.176 195.087 524.25 193.458 524.25C195.106 524.288 196.386 526.445 196.322 529.061C196.386 526.445 197.773 524.359 199.422 524.397Z" stroke="white" stroke-miterlimit="10" stroke-linejoin="round"/>
<path d="M188.5 4.50982C188.5 6.24316 187.1 7.64983 185.367 7.64983C183.627 7.64983 182.227 6.24316 182.227 4.50982C182.227 2.77649 183.627 1.37649 185.367 1.37649C187.093 1.36982 188.5 2.77649 188.5 4.50982Z" stroke="white" stroke-miterlimit="10"/>
<path d="M188.553 18.7831C188.553 21.4231 186.42 23.5631 183.78 23.5631C181.133 23.5631 179 21.4231 179 18.7831C179 16.1498 181.133 14.0098 183.78 14.0098C186.42 14.0098 188.553 16.1498 188.553 18.7831Z" fill="white"/>
<path d="M105.254 28.6014L86.1832 64.2162L109.345 54.8974L82.4804 82.5651L91.3557 97.5204L69.2724 104.275L59.7072 136.529L52.7374 119.209L29.2057 153.656L40.6188 120.366L14.1316 140.888L38.5703 107.216L21.5239 104.216L47.5649 85.9048L47.9341 60.793L63.3921 66.4022L81.0041 30.9247L78.6428 57.8388L105.254 28.6014Z" stroke="white" stroke-miterlimit="10"/>
<path d="M110.377 522.645C96.418 508.463 73.6084 508.284 59.4263 522.242C45.2441 536.201 45.0669 559.018 59.0232 573.193L110.377 522.645Z" fill="#0F192E" stroke="white" stroke-miterlimit="10" stroke-linecap="round" stroke-linejoin="round"/>
<path d="M135.653 548.317C121.694 534.135 98.8845 533.956 84.7024 547.914C70.5202 561.873 70.3431 584.69 84.2993 598.865L135.653 548.317Z" fill="#0F192E" stroke="white" stroke-miterlimit="10" stroke-linecap="round" stroke-linejoin="round"/>
<path d="M160.931 573.996C146.973 559.814 124.156 559.637 109.981 573.593C95.7988 587.552 95.6216 610.369 109.578 624.544L160.931 573.996Z" fill="#0F192E" stroke="white" stroke-miterlimit="10" stroke-linecap="round" stroke-linejoin="round"/>
<g clip-path="url(#clip0)">
<path d="M85.3562 407.354C84.0063 405.212 82.3539 404.154 80.8886 404.532C81.7621 402.519 81.9786 399.584 81.5281 396.564C82.883 398.697 84.5268 399.75 85.9921 399.372C85.5233 400.464 85.2357 401.822 85.1543 403.403C85.0729 404.684 85.1538 406.024 85.3562 407.354ZM80.2004 392.784L80.1954 392.792C80.0471 392.949 79.9974 393.255 80.0696 393.47L80.0783 393.475C81.6506 398.032 81.4347 403.346 79.5814 405.336C79.5004 405.416 79.4577 405.53 79.4324 405.654C79.4107 405.792 79.4163 405.922 79.4592 406.027C79.5401 406.247 79.7247 406.308 79.878 406.142C81.7819 404.204 84.6486 406.379 86.2579 410.992L86.2565 411.014C86.3374 411.234 86.5183 411.281 86.6753 411.129L86.6803 411.12C86.8286 410.963 86.8783 410.657 86.8061 410.442C86.0149 408.173 85.6416 405.659 85.7659 403.364C85.8772 401.211 86.4181 399.514 87.2806 398.58L87.2856 398.572L87.2956 398.554L87.3343 398.507C87.4353 398.393 87.4956 398.208 87.4927 398.033C87.4897 397.858 87.4022 397.75 87.3119 397.686C87.239 397.633 87.1347 397.653 87.05 397.72L87.0464 397.706L86.979 397.783C85.0801 399.712 82.2221 397.542 80.6128 392.929L80.6041 392.924C80.5383 392.678 80.3437 392.635 80.2004 392.784Z" fill="white"/>
</g>
<path d="M68.4026 371.637C67.9605 377.079 66.3688 382.076 64.0268 385.214C66.7016 385.159 69.1635 387.673 70.6306 391.947C70.8236 389.555 71.2575 387.193 71.8985 385.002C72.6879 382.29 73.7562 380.035 75.0056 378.344C72.3178 378.387 69.8689 375.885 68.4026 371.637Z" fill="white"/>
<path d="M70.643 391.934C69.1759 387.66 66.7393 385.145 64.0392 385.201C66.3813 382.063 67.96 377.054 68.415 371.624C69.8943 375.884 72.3179 378.387 75.018 378.331C73.7564 380.035 72.7003 382.277 71.9109 384.989C71.2447 387.181 70.836 389.542 70.643 391.934ZM67.6579 364.513L67.6456 364.526C67.3237 364.738 67.1119 365.249 67.1493 365.652L67.1623 365.665C68.0262 374.224 65.4736 383.365 61.4391 386.063C61.2655 386.169 61.1447 386.349 61.0499 386.554C60.9558 386.784 60.9122 387.013 60.9435 387.214C60.9939 387.629 61.2897 387.809 61.6238 387.585C65.7249 384.999 69.8131 389.951 70.7183 398.623L70.7068 398.661C70.7572 399.076 71.0523 399.231 71.3871 399.032L71.3994 399.019C71.7212 398.807 71.9331 398.296 71.8957 397.893C71.4515 393.626 71.833 389.108 72.9895 385.172C74.065 381.478 75.6999 378.752 77.5807 377.483L77.5929 377.47L77.6174 377.444L77.7038 377.379C77.9262 377.221 78.1067 376.925 78.1733 376.62C78.2398 376.315 78.1321 376.091 78.0014 375.943C77.8967 375.82 77.7071 375.813 77.5328 375.894L77.532 375.869L77.3837 375.974C73.2949 378.547 69.2196 373.607 68.3145 364.935L68.3015 364.923C68.2878 364.469 67.9675 364.315 67.6579 364.513Z" fill="white"/>
<defs>
<clipPath id="clip0">
<rect width="23.55" height="17.46" fill="white" transform="translate(70 407.771) rotate(-60)"/>
</clipPath>
</defs>
</svg>
