<svg width="321" height="166" viewBox="0 0 321 166" fill="none" xmlns="http://www.w3.org/2000/svg">
<path d="M88.5508 4.27858C88.2946 7.43302 87.372 10.3295 86.0145 12.1486C87.5649 12.1165 88.9919 13.5737 89.8423 16.0508C89.9542 14.6644 90.2056 13.2957 90.5772 12.0258C91.0347 10.4533 91.654 9.14665 92.3782 8.16617C90.8202 8.19116 89.4007 6.74107 88.5508 4.27858Z" fill="white"/>
<path d="M89.849 16.0433C88.9986 13.5662 87.5862 12.1086 86.0212 12.1411C87.3787 10.3219 88.2938 7.41838 88.5575 4.27103C89.415 6.74061 90.8198 8.19115 92.3849 8.15862C91.6536 9.14663 91.0414 10.4457 90.5839 12.0182C90.1977 13.2886 89.9609 14.6568 89.849 16.0433ZM88.1187 0.149611L88.1116 0.157142C87.925 0.279851 87.8022 0.576269 87.8239 0.80979L87.8314 0.816881C88.3322 5.778 86.8526 11.0769 84.5141 12.6402C84.4135 12.7018 84.3435 12.8063 84.2885 12.9251C84.234 13.0584 84.2087 13.1909 84.2268 13.3075C84.256 13.5481 84.4275 13.6527 84.6212 13.5224C86.9982 12.0238 89.3679 14.8942 89.8926 19.9205L89.886 19.9426C89.9152 20.1833 90.0862 20.2732 90.2803 20.1576L90.2874 20.1501C90.474 20.0274 90.5967 19.731 90.5751 19.4974C90.3176 17.0244 90.5387 14.4052 91.2091 12.1238C91.8325 9.9828 92.7801 8.40284 93.8703 7.66747L93.8774 7.65994L93.8915 7.64488L93.9416 7.60678C94.0706 7.51508 94.1752 7.34361 94.2138 7.16682C94.2523 6.99002 94.1899 6.86018 94.1141 6.77465C94.0534 6.7033 93.9435 6.69929 93.8425 6.74625L93.8421 6.73162L93.7561 6.79276C91.3861 8.28385 89.0239 5.42053 88.4993 0.394271L88.4917 0.38718C88.4838 0.123973 88.2982 0.0344331 88.1187 0.149611Z" fill="white"/>
<path d="M81.5508 31.2786C81.2946 34.433 80.372 37.3295 79.0145 39.1486C80.5649 39.1165 81.9919 40.5737 82.8423 43.0508C82.9542 41.6644 83.2056 40.2957 83.5772 39.0258C84.0347 37.4533 84.654 36.1466 85.3782 35.1662C83.8202 35.1912 82.4007 33.7411 81.5508 31.2786Z" fill="white"/>
<path d="M82.849 43.0433C81.9986 40.5662 80.5862 39.1086 79.0212 39.1411C80.3787 37.3219 81.2938 34.4184 81.5575 31.271C82.415 33.7406 83.8198 35.1911 85.3849 35.1586C84.6536 36.1466 84.0414 37.4457 83.5839 39.0182C83.1977 40.2886 82.9609 41.6568 82.849 43.0433ZM81.1187 27.1496L81.1116 27.1571C80.925 27.2799 80.8022 27.5763 80.8239 27.8098L80.8314 27.8169C81.3322 32.778 79.8526 38.0769 77.5141 39.6402C77.4135 39.7018 77.3435 39.8063 77.2885 39.9251C77.234 40.0584 77.2087 40.1909 77.2268 40.3075C77.256 40.5481 77.4275 40.6527 77.6212 40.5224C79.9982 39.0238 82.3679 41.8942 82.8926 46.9205L82.886 46.9426C82.9152 47.1833 83.0862 47.2732 83.2803 47.1576L83.2874 47.1501C83.474 47.0274 83.5967 46.731 83.5751 46.4974C83.3176 44.0244 83.5387 41.4052 84.2091 39.1238C84.8325 36.9828 85.7801 35.4028 86.8703 34.6675L86.8774 34.6599L86.8915 34.6449L86.9416 34.6068C87.0706 34.5151 87.1752 34.3436 87.2138 34.1668C87.2523 33.99 87.1899 33.8602 87.1141 33.7747C87.0534 33.7033 86.9435 33.6993 86.8425 33.7462L86.8421 33.7316L86.7561 33.7928C84.3861 35.2839 82.0239 32.4205 81.4993 27.3943L81.4917 27.3872C81.4838 27.124 81.2982 27.0344 81.1187 27.1496Z" fill="white"/>
<path d="M312.59 100.738C311.24 98.5962 309.587 97.5383 308.122 97.9163C308.995 95.9033 309.212 92.9684 308.762 89.9486C310.116 92.0818 311.76 93.1347 313.225 92.7568C312.757 93.8487 312.469 95.2068 312.388 96.7879C312.306 98.0689 312.387 99.4088 312.59 100.738ZM307.434 86.1682L307.429 86.1769C307.281 86.3338 307.231 86.6399 307.303 86.8548L307.312 86.8598C308.884 91.4164 308.668 96.7304 306.815 98.7204C306.734 98.8007 306.691 98.9146 306.666 99.0385C306.644 99.1761 306.65 99.3064 306.693 99.412C306.774 99.6319 306.958 99.6922 307.111 99.5267C309.015 97.5891 311.882 99.7638 313.491 104.376L313.49 104.399C313.571 104.619 313.752 104.665 313.909 104.513L313.914 104.505C314.062 104.348 314.112 104.042 314.039 103.827C313.248 101.557 312.875 99.0438 312.999 96.7485C313.111 94.5957 313.652 92.8988 314.514 91.9649L314.519 91.9563L314.529 91.939L314.568 91.892C314.669 91.7771 314.729 91.5926 314.726 91.4177C314.723 91.2427 314.636 91.1344 314.545 91.0708C314.472 91.0171 314.368 91.0377 314.283 91.1044L314.28 91.0907L314.212 91.1673C312.314 93.0963 309.455 90.9266 307.846 86.3139L307.838 86.3089C307.772 86.0631 307.577 86.02 307.434 86.1682Z" fill="white"/>
<g clip-path="url(#clip0)">
<path d="M13.3717 119.996L12.9127 92.8915L31.709 100.7L31.3406 78.7174L54.4907 88.324L54.8662 110.264L73.6429 118.058L73.6465 118.103L73.6573 118.105L74.0329 140.044L92.7681 147.821L93.2182 174.913L74.4308 167.116L74.7992 189.099L51.6402 179.48L51.2736 157.553L32.4862 149.757L32.4843 149.701L32.1087 127.762L13.3717 119.996ZM55.2898 87.7146L30.5028 77.4262L30.882 99.4108L12.0857 91.6021L12.5725 120.605L31.3168 128.394L31.6742 149.843L31.7283 150.318L31.7284 150.384L50.4637 158.161L50.8303 180.088L75.6154 190.387L75.247 168.404L94.0344 176.2L93.5475 147.197L74.8122 139.421L74.4548 117.971L74.4061 117.531L74.4024 117.42L55.6564 109.642L55.2898 87.7146Z" fill="white"/>
</g>
<defs>
<clipPath id="clip0">
<rect width="100.105" height="120.615" fill="white" transform="translate(13.5801 66.2069) rotate(9.43381)"/>
</clipPath>
</defs>
</svg>
