<svg width="45" height="47" viewBox="0 0 45 47" fill="none" xmlns="http://www.w3.org/2000/svg">
<path d="M16.4466 6.95331C16.0302 12.0798 14.5308 16.7869 12.3246 19.7433C14.8443 19.6912 17.1634 22.0593 18.5453 26.085C18.7272 23.8318 19.1359 21.6074 19.7397 19.5437C20.4833 16.9881 21.4897 14.8647 22.6666 13.2712C20.1347 13.3119 17.8278 10.9552 16.4466 6.95331Z" fill="white"/>
<path d="M18.5565 26.0728C17.1746 22.0471 14.8792 19.6783 12.3358 19.7311C14.542 16.7747 16.0291 12.056 16.4578 6.94111C17.8512 10.9546 20.1343 13.3119 22.6778 13.259C21.4893 14.8647 20.4945 16.9759 19.7509 19.5315C19.1233 21.596 18.7384 23.8196 18.5565 26.0728ZM15.7445 0.243179L15.733 0.255419C15.4298 0.454841 15.2303 0.936564 15.2655 1.31607L15.2777 1.3276C16.0915 9.39017 13.687 18.0016 9.88652 20.5423C9.72303 20.6424 9.60923 20.8123 9.5199 21.0053C9.43129 21.222 9.3902 21.4373 9.4197 21.6267C9.46716 22.0177 9.74581 22.1877 10.0605 21.9761C13.9237 19.5406 17.7748 24.2054 18.6274 32.3739L18.6166 32.4099C18.6641 32.8009 18.942 32.9471 19.2575 32.7592L19.269 32.747C19.5722 32.5476 19.7718 32.0659 19.7365 31.6863C19.3181 27.6673 19.6775 23.4107 20.7669 19.703C21.78 16.2236 23.32 13.6559 25.0917 12.4608L25.1033 12.4486L25.1263 12.4241L25.2077 12.3622C25.4173 12.2132 25.5873 11.9345 25.65 11.6472C25.7127 11.3599 25.6112 11.1489 25.488 11.0099C25.3894 10.8939 25.2108 10.8874 25.0466 10.9637L25.0459 10.94L24.9062 11.0393C21.0546 13.4626 17.2157 8.80923 16.363 0.640789L16.3508 0.629265C16.3379 0.201514 16.0362 0.0559988 15.7445 0.243179Z" fill="white"/>
<path d="M36.5896 42.7381C35.2397 40.5962 33.5873 39.5382 32.122 39.9162C32.9955 37.9033 33.212 34.9683 32.7615 31.9485C34.1164 34.0817 35.7602 35.1347 37.2255 34.7567C36.7567 35.8486 36.4691 37.2068 36.3877 38.7879C36.3063 40.0688 36.3872 41.4087 36.5896 42.7381ZM31.4338 28.1682L31.4288 28.1768C31.2805 28.3337 31.2308 28.6398 31.303 28.8547L31.3117 28.8597C32.884 33.4164 32.6681 38.7304 30.8148 40.7203C30.7338 40.8006 30.6911 40.9145 30.6658 41.0384C30.6441 41.176 30.6497 41.3063 30.6926 41.4119C30.7735 41.6318 30.9581 41.6922 31.1114 41.5266C33.0153 39.589 35.882 41.7637 37.4913 46.3763L37.4899 46.3987C37.5708 46.6186 37.7517 46.6653 37.9087 46.5134L37.9137 46.5047C38.062 46.3479 38.1117 46.0417 38.0395 45.8268C37.2483 43.5572 36.875 41.0438 36.9993 38.7484C37.1106 36.5956 37.6515 34.8988 38.514 33.9649L38.519 33.9562L38.529 33.9389L38.5677 33.8919C38.6687 33.777 38.729 33.5925 38.7261 33.4176C38.7231 33.2427 38.6356 33.1344 38.5453 33.0707C38.4723 33.0171 38.3681 33.0377 38.2834 33.1043L38.2798 33.0906L38.2124 33.1672C36.3135 35.0962 33.4555 32.9265 31.8462 28.3139L31.8375 28.3089C31.7717 28.063 31.5771 28.02 31.4338 28.1682Z" fill="white"/>
</svg>
