<svg width="280" height="599" viewBox="0 0 280 599" fill="none" xmlns="http://www.w3.org/2000/svg">
<path d="M189 110.87C189 110.043 189.667 109.376 190.493 109.376C191.32 109.376 191.987 110.043 191.987 110.87C191.987 111.696 191.32 112.363 190.493 112.363C189.673 112.363 189 111.69 189 110.87Z" stroke="white" stroke-miterlimit="10"/>
<path d="M229.513 17.0765C229.513 18.8498 228.073 20.2898 226.3 20.2898C224.52 20.2898 223.086 18.8498 223.086 17.0765C223.086 15.3032 224.526 13.8632 226.3 13.8632C228.08 13.8632 229.513 15.3032 229.513 17.0765Z" fill="white"/>
<path d="M32.4269 220.59C32.4269 222.363 30.9868 223.803 29.2134 223.803C27.4333 223.803 26 222.363 26 220.59C26 218.816 27.44 217.376 29.2134 217.376C30.9935 217.376 32.4269 218.816 32.4269 220.59Z" fill="white"/>
<g clip-path="url(#clip0)">
<path d="M24.4302 25.4748C23.0803 23.3328 21.4279 22.2749 19.9626 22.6529C20.8361 20.64 21.0526 17.705 20.6021 14.6852C21.957 16.8184 23.6008 17.8714 25.0661 17.4934C24.5973 18.5853 24.3097 19.9435 24.2282 21.5246C24.1469 22.8055 24.2277 24.1454 24.4302 25.4748ZM19.2744 10.9049L19.2694 10.9135C19.1211 11.0704 19.0713 11.3765 19.1436 11.5914L19.1522 11.5964C20.7246 16.1531 20.5087 21.4671 18.6554 23.457C18.5744 23.5373 18.5317 23.6512 18.5064 23.7751C18.4847 23.9127 18.4903 24.043 18.5332 24.1486C18.6141 24.3685 18.7986 24.4289 18.952 24.2633C20.8558 22.3257 23.7226 24.5004 25.3319 29.113L25.3305 29.1353C25.4114 29.3553 25.5923 29.402 25.7492 29.2501L25.7542 29.2414C25.9025 29.0846 25.9523 28.7784 25.8801 28.5635C25.0889 26.2938 24.7156 23.7805 24.8399 21.4851C24.9512 19.3323 25.4921 17.6355 26.3546 16.7016L26.3596 16.6929L26.3696 16.6756L26.4083 16.6286C26.5092 16.5137 26.5696 16.3292 26.5667 16.1543C26.5637 15.9794 26.4761 15.8711 26.3859 15.8074C26.3129 15.7538 26.2086 15.7744 26.124 15.841L26.1203 15.8273L26.053 15.9039C24.1541 17.8329 21.2961 15.6632 19.6868 11.0506L19.6781 11.0456C19.6122 10.7997 19.4177 10.7567 19.2744 10.9049Z" fill="white"/>
</g>
<path d="M62.3562 558.354C61.0063 556.212 59.3539 555.154 57.8886 555.532C58.7621 553.519 58.9786 550.584 58.5281 547.564C59.883 549.697 61.5268 550.75 62.9921 550.372C62.5233 551.464 62.2357 552.822 62.1543 554.403C62.0729 555.684 62.1538 557.024 62.3562 558.354ZM57.2004 543.784L57.1954 543.792C57.0471 543.949 56.9974 544.255 57.0696 544.47L57.0783 544.475C58.6506 549.032 58.4347 554.346 56.5814 556.336C56.5004 556.416 56.4577 556.53 56.4324 556.654C56.4107 556.792 56.4163 556.922 56.4592 557.027C56.5401 557.247 56.7247 557.308 56.878 557.142C58.7819 555.204 61.6486 557.379 63.2579 561.992L63.2565 562.014C63.3374 562.234 63.5183 562.281 63.6753 562.129L63.6803 562.12C63.8286 561.963 63.8783 561.657 63.8061 561.442C63.0149 559.173 62.6416 556.659 62.7659 554.364C62.8772 552.211 63.4181 550.514 64.2806 549.58L64.2856 549.572L64.2956 549.554L64.3343 549.507C64.4353 549.393 64.4956 549.208 64.4927 549.033C64.4897 548.858 64.4022 548.75 64.3119 548.686C64.239 548.633 64.1347 548.653 64.05 548.72L64.0464 548.706L63.979 548.783C62.0801 550.712 59.2221 548.542 57.6128 543.929L57.6041 543.924C57.5383 543.678 57.3437 543.635 57.2004 543.784Z" fill="white"/>
<path d="M190.477 270.758C190.035 276.2 188.443 281.197 186.101 284.336C188.776 284.28 191.238 286.794 192.705 291.068C192.898 288.676 193.331 286.315 193.972 284.124C194.762 281.411 195.83 279.157 197.08 277.465C194.392 277.508 191.943 275.006 190.477 270.758Z" fill="white"/>
<path d="M192.717 291.055C191.25 286.781 188.813 284.267 186.113 284.323C188.455 281.184 190.034 276.175 190.489 270.745C191.968 275.006 194.392 277.508 197.092 277.452C195.83 279.157 194.774 281.398 193.985 284.111C193.319 286.302 192.91 288.663 192.717 291.055ZM189.732 263.635L189.72 263.648C189.398 263.859 189.186 264.371 189.223 264.774L189.236 264.786C190.1 273.345 187.548 282.487 183.513 285.184C183.34 285.29 183.219 285.47 183.124 285.675C183.03 285.905 182.986 286.134 183.017 286.335C183.068 286.75 183.364 286.931 183.698 286.706C187.799 284.12 191.887 289.072 192.792 297.744L192.781 297.782C192.831 298.197 193.126 298.353 193.461 298.153L193.473 298.14C193.795 297.928 194.007 297.417 193.97 297.014C193.525 292.748 193.907 288.229 195.063 284.293C196.139 280.599 197.774 277.873 199.655 276.605L199.667 276.592L199.691 276.566L199.778 276.5C200 276.342 200.181 276.046 200.247 275.741C200.314 275.436 200.206 275.212 200.075 275.064C199.971 274.941 199.781 274.934 199.607 275.015L199.606 274.99L199.458 275.096C195.369 277.668 191.294 272.728 190.388 264.057L190.375 264.044C190.362 263.59 190.041 263.436 189.732 263.635Z" fill="white"/>
<path d="M8.86429 3.66962C8.64454 6.37515 7.85324 8.85939 6.68888 10.4197C8.01868 10.3921 9.2426 11.642 9.97193 13.7665C10.0679 12.5774 10.2836 11.4035 10.6023 10.3143C10.9947 8.96557 11.5258 7.8449 12.147 7.00396C10.8107 7.0254 9.59324 5.78167 8.86429 3.66962Z" fill="white"/>
<path d="M9.97812 13.7601C9.24879 11.6355 8.03741 10.3853 6.69507 10.4132C7.85943 8.85296 8.64427 6.36264 8.87048 3.6632C9.60589 5.78133 10.8108 7.02543 12.1531 6.99754C11.5259 7.84494 11.0009 8.95915 10.6084 10.3079C10.2772 11.3974 10.0741 12.571 9.97812 13.7601ZM8.49408 0.128306L8.48799 0.134766C8.32798 0.240012 8.22266 0.494246 8.24125 0.694534L8.24771 0.700616C8.6772 4.95571 7.4082 9.50049 5.40246 10.8413C5.31618 10.8941 5.25612 10.9838 5.20897 11.0857C5.16221 11.2001 5.14052 11.3137 5.15609 11.4136C5.18114 11.62 5.3282 11.7097 5.4943 11.598C7.5331 10.3127 9.56555 12.7746 10.0156 17.0855L10.0099 17.1046C10.0349 17.3109 10.1816 17.3881 10.3481 17.2889L10.3541 17.2825C10.5142 17.1772 10.6195 16.923 10.6009 16.7227C10.3801 14.6016 10.5697 12.3552 11.1447 10.3984C11.6793 8.56212 12.4921 7.207 13.4271 6.57628L13.4332 6.56982L13.4454 6.5569L13.4883 6.52423C13.5989 6.44558 13.6887 6.29851 13.7218 6.14688C13.7548 5.99525 13.7013 5.88388 13.6363 5.81052C13.5842 5.74932 13.49 5.74589 13.4033 5.78616L13.403 5.77362L13.3292 5.82605C11.2965 7.10495 9.2705 4.64911 8.8205 0.338148L8.81404 0.332066C8.80724 0.106317 8.64801 0.0295192 8.49408 0.128306Z" fill="white"/>
<path d="M324.196 435.264L301.88 469.205L409.122 503.235L324.547 501.149L409.389 555.271L302.11 518.101L324.899 567.035L245.107 512.171L195.138 532.987L180.215 486.119L80.8716 469.079L137.732 452.123L35.5239 405.216L137.598 426.105L80.3593 371.292L179.863 420.233L194.365 383.152L244.744 437.257L324.196 435.264Z" stroke="white" stroke-miterlimit="10"/>
<defs>
<clipPath id="clip0">
<rect width="23.55" height="17.46" fill="white" transform="translate(9.07397 25.8926) rotate(-60)"/>
</clipPath>
</defs>
</svg>
