<svg width="1238" height="108" viewBox="0 0 1238 108" fill="none" xmlns="http://www.w3.org/2000/svg">
<g clip-path="url(#clip0)">
<path d="M667.967 73.3598C667.967 73.9703 667.475 74.4629 666.864 74.4629C666.254 74.4629 665.761 73.9703 665.761 73.3598C665.761 72.7494 666.254 72.2567 666.864 72.2567C667.475 72.2567 667.967 72.7494 667.967 73.3598Z" fill="white"/>
<path d="M707.132 77.9542C707.742 77.9542 708.235 78.4469 708.235 79.0573C708.235 79.6678 707.742 80.1604 707.132 80.1604C706.521 80.1604 706.029 79.6678 706.029 79.0573C706.04 78.4469 706.532 77.9542 707.132 77.9542Z" fill="white"/>
<path d="M698.596 40.7281C698.596 41.3385 698.104 41.8312 697.493 41.8312C696.883 41.8312 696.39 41.3385 696.39 40.7281C696.39 40.1177 696.883 39.625 697.493 39.625C698.104 39.625 698.596 40.1177 698.596 40.7281Z" fill="white"/>
<path d="M771.667 35.7268C771.078 35.7268 770.607 35.2556 770.607 34.6666C770.607 34.0775 771.078 33.6063 771.667 33.6063C772.256 33.6063 772.727 34.0775 772.727 34.6666C772.727 35.2556 772.256 35.7268 771.667 35.7268Z" fill="white"/>
<path d="M606.473 100.84L619.453 100.401" stroke="white" stroke-miterlimit="10" stroke-linecap="round" stroke-linejoin="round"/>
<path d="M612.76 94.6825L613.167 106.559" stroke="white" stroke-miterlimit="10" stroke-linecap="round" stroke-linejoin="round"/>
<path d="M610.007 97.8526L615.919 103.379" stroke="white" stroke-miterlimit="10" stroke-linecap="round" stroke-linejoin="round"/>
<path d="M610.2 103.582L615.726 97.6597" stroke="white" stroke-miterlimit="10" stroke-linecap="round" stroke-linejoin="round"/>
<path d="M423.202 60.6049C423.202 60.5941 423.202 60.5727 423.202 60.562C423.202 58.8699 421.028 57.4884 418.351 57.4777C421.007 57.4884 423.17 56.139 423.223 54.4683C423.223 56.1604 425.397 57.5419 428.075 57.5527C425.387 57.5419 423.202 58.9128 423.202 60.6049Z" fill="white"/>
<path d="M471.641 67.8981C471.855 67.8981 472.026 67.6946 472.026 67.4376C472.026 67.1805 471.855 66.9771 471.641 66.9771C471.427 66.9771 471.255 67.1805 471.255 67.4376C471.245 67.6946 471.427 67.8981 471.641 67.8981Z" fill="#17203A" stroke="white" stroke-width="2" stroke-miterlimit="10"/>
<path d="M538.019 18.2168C538.447 18.2168 538.8 17.8634 538.8 17.435C538.8 17.0066 538.447 16.6532 538.019 16.6532C537.59 16.6532 537.237 16.9959 537.237 17.435C537.237 17.8741 537.59 18.2168 538.019 18.2168Z" fill="#17203A" stroke="white" stroke-width="2" stroke-miterlimit="10"/>
<path d="M597.039 40.0856C597.649 40.0856 598.142 39.5929 598.142 38.9825C598.142 38.3721 597.649 37.8794 597.039 37.8794C596.428 37.8794 595.936 38.3721 595.936 38.9825C595.936 39.5929 596.428 40.0856 597.039 40.0856Z" fill="white"/>
<path d="M405.06 7.52869C404.471 7.52869 404 7.99991 404 8.58893C404 9.17795 404.471 9.64917 405.06 9.64917C405.649 9.64917 406.12 9.17795 406.12 8.58893C406.12 8.01062 405.639 7.52869 405.06 7.52869Z" fill="white"/>
<path d="M438.228 21.5796C437.639 21.5796 437.167 22.0508 437.167 22.6398C437.167 23.2289 437.639 23.7001 438.228 23.7001C438.817 23.7001 439.288 23.2289 439.288 22.6398C439.288 22.0508 438.806 21.5796 438.228 21.5796Z" fill="white"/>
<path d="M451.464 33.9062C451.464 33.2958 450.972 32.8031 450.361 32.8031C449.751 32.8031 449.258 33.2958 449.258 33.9062C449.258 34.5166 449.751 35.0093 450.361 35.0093C450.972 35.0093 451.464 34.5166 451.464 33.9062Z" fill="white"/>
<path d="M697.493 6.24356L710.473 6.69336" stroke="white" stroke-miterlimit="10" stroke-linecap="round" stroke-linejoin="round"/>
<path d="M703.78 12.4122L704.187 0.535415" stroke="white" stroke-miterlimit="10" stroke-linecap="round" stroke-linejoin="round"/>
<path d="M701.027 9.23145L706.939 3.70534" stroke="white" stroke-miterlimit="10" stroke-linecap="round" stroke-linejoin="round"/>
<path d="M701.22 3.5127L706.746 9.42432" stroke="white" stroke-miterlimit="10" stroke-linecap="round" stroke-linejoin="round"/>
<path d="M502.334 107.577C502.334 107.545 502.334 107.512 502.334 107.47C502.388 103.753 497.654 100.658 491.764 100.573C497.612 100.658 502.399 97.7775 502.538 94.1041C502.484 97.8203 507.218 100.915 513.119 101.012C507.229 100.915 502.399 103.86 502.334 107.577Z" stroke="white" stroke-miterlimit="10"/>
<path d="M636.385 47.3787C635.796 47.3787 635.325 47.8499 635.325 48.4389C635.325 49.0279 635.796 49.4991 636.385 49.4991C636.974 49.4991 637.445 49.0279 637.445 48.4389C637.445 47.8606 636.963 47.3787 636.385 47.3787Z" fill="white"/>
<path d="M657.579 12.605C657.579 11.9946 657.087 11.502 656.476 11.502C655.866 11.502 655.373 11.9946 655.373 12.605C655.373 13.2155 655.866 13.7081 656.476 13.7081C657.087 13.7081 657.579 13.2155 657.579 12.605Z" fill="white"/>
<path d="M548.953 57.317L561.933 57.7561" stroke="white" stroke-miterlimit="10" stroke-linecap="round" stroke-linejoin="round"/>
<path d="M555.239 63.475L555.646 51.5982" stroke="white" stroke-miterlimit="10" stroke-linecap="round" stroke-linejoin="round"/>
<path d="M552.487 60.2943L558.398 54.7682" stroke="white" stroke-miterlimit="10" stroke-linecap="round" stroke-linejoin="round"/>
<path d="M552.68 54.5753L558.206 60.4977" stroke="white" stroke-miterlimit="10" stroke-linecap="round" stroke-linejoin="round"/>
<path d="M485.52 29.9436C488.969 29.9436 491.775 27.1484 491.775 23.6893C491.775 20.2408 488.98 17.4349 485.52 17.4349C482.072 17.4349 479.266 20.2301 479.266 23.6893C479.266 27.1484 482.061 29.9436 485.52 29.9436Z" stroke="white" stroke-miterlimit="10" stroke-linecap="round" stroke-dasharray="3.05 3.05"/>
</g>
<g clip-path="url(#clip1)">
<path d="M1132.97 73.3598C1132.97 73.9703 1132.47 74.4629 1131.86 74.4629C1131.25 74.4629 1130.76 73.9703 1130.76 73.3598C1130.76 72.7494 1131.25 72.2567 1131.86 72.2567C1132.47 72.2567 1132.97 72.7494 1132.97 73.3598Z" fill="white"/>
<path d="M1172.13 77.9542C1172.74 77.9542 1173.23 78.4469 1173.23 79.0573C1173.23 79.6678 1172.74 80.1604 1172.13 80.1604C1171.52 80.1604 1171.03 79.6678 1171.03 79.0573C1171.04 78.4469 1171.53 77.9542 1172.13 77.9542Z" fill="white"/>
<path d="M1163.6 40.7281C1163.6 41.3385 1163.1 41.8312 1162.49 41.8312C1161.88 41.8312 1161.39 41.3385 1161.39 40.7281C1161.39 40.1177 1161.88 39.625 1162.49 39.625C1163.1 39.625 1163.6 40.1177 1163.6 40.7281Z" fill="white"/>
<path d="M1236.67 35.7268C1236.08 35.7268 1235.61 35.2556 1235.61 34.6666C1235.61 34.0775 1236.08 33.6063 1236.67 33.6063C1237.26 33.6063 1237.73 34.0775 1237.73 34.6666C1237.73 35.2556 1237.26 35.7268 1236.67 35.7268Z" fill="white"/>
<path d="M1071.47 100.84L1084.45 100.401" stroke="white" stroke-miterlimit="10" stroke-linecap="round" stroke-linejoin="round"/>
<path d="M1077.76 94.6825L1078.17 106.559" stroke="white" stroke-miterlimit="10" stroke-linecap="round" stroke-linejoin="round"/>
<path d="M1075.01 97.8526L1080.92 103.379" stroke="white" stroke-miterlimit="10" stroke-linecap="round" stroke-linejoin="round"/>
<path d="M1075.2 103.582L1080.73 97.6597" stroke="white" stroke-miterlimit="10" stroke-linecap="round" stroke-linejoin="round"/>
<path d="M888.202 60.6049C888.202 60.5941 888.202 60.5727 888.202 60.562C888.202 58.8699 886.028 57.4884 883.351 57.4777C886.007 57.4884 888.17 56.139 888.223 54.4683C888.223 56.1604 890.397 57.5419 893.075 57.5527C890.387 57.5419 888.202 58.9128 888.202 60.6049Z" fill="white"/>
<path d="M936.641 67.8981C936.855 67.8981 937.026 67.6946 937.026 67.4376C937.026 67.1805 936.855 66.9771 936.641 66.9771C936.427 66.9771 936.255 67.1805 936.255 67.4376C936.245 67.6946 936.427 67.8981 936.641 67.8981Z" fill="#17203A" stroke="white" stroke-width="2" stroke-miterlimit="10"/>
<path d="M1003.02 18.2168C1003.45 18.2168 1003.8 17.8634 1003.8 17.435C1003.8 17.0066 1003.45 16.6532 1003.02 16.6532C1002.59 16.6532 1002.24 16.9959 1002.24 17.435C1002.24 17.8741 1002.59 18.2168 1003.02 18.2168Z" fill="#17203A" stroke="white" stroke-width="2" stroke-miterlimit="10"/>
<path d="M1062.04 40.0856C1062.65 40.0856 1063.14 39.5929 1063.14 38.9825C1063.14 38.3721 1062.65 37.8794 1062.04 37.8794C1061.43 37.8794 1060.94 38.3721 1060.94 38.9825C1060.94 39.5929 1061.43 40.0856 1062.04 40.0856Z" fill="white"/>
<path d="M870.06 7.52869C869.471 7.52869 869 7.99991 869 8.58893C869 9.17795 869.471 9.64917 870.06 9.64917C870.649 9.64917 871.12 9.17795 871.12 8.58893C871.12 8.01062 870.639 7.52869 870.06 7.52869Z" fill="white"/>
<path d="M903.228 21.5796C902.639 21.5796 902.167 22.0508 902.167 22.6398C902.167 23.2289 902.639 23.7001 903.228 23.7001C903.817 23.7001 904.288 23.2289 904.288 22.6398C904.288 22.0508 903.806 21.5796 903.228 21.5796Z" fill="white"/>
<path d="M916.464 33.9062C916.464 33.2958 915.972 32.8031 915.361 32.8031C914.751 32.8031 914.258 33.2958 914.258 33.9062C914.258 34.5166 914.751 35.0093 915.361 35.0093C915.972 35.0093 916.464 34.5166 916.464 33.9062Z" fill="white"/>
<path d="M1162.49 6.24356L1175.47 6.69336" stroke="white" stroke-miterlimit="10" stroke-linecap="round" stroke-linejoin="round"/>
<path d="M1168.78 12.4122L1169.19 0.535415" stroke="white" stroke-miterlimit="10" stroke-linecap="round" stroke-linejoin="round"/>
<path d="M1166.03 9.23145L1171.94 3.70534" stroke="white" stroke-miterlimit="10" stroke-linecap="round" stroke-linejoin="round"/>
<path d="M1166.22 3.5127L1171.75 9.42432" stroke="white" stroke-miterlimit="10" stroke-linecap="round" stroke-linejoin="round"/>
<path d="M967.334 107.577C967.334 107.545 967.334 107.512 967.334 107.47C967.388 103.753 962.654 100.658 956.764 100.573C962.612 100.658 967.399 97.7775 967.538 94.1041C967.484 97.8203 972.218 100.915 978.119 101.012C972.229 100.915 967.399 103.86 967.334 107.577Z" stroke="white" stroke-miterlimit="10"/>
<path d="M1101.38 47.3787C1100.8 47.3787 1100.32 47.8499 1100.32 48.4389C1100.32 49.0279 1100.8 49.4991 1101.38 49.4991C1101.97 49.4991 1102.45 49.0279 1102.45 48.4389C1102.45 47.8606 1101.96 47.3787 1101.38 47.3787Z" fill="white"/>
<path d="M1122.58 12.605C1122.58 11.9946 1122.09 11.502 1121.48 11.502C1120.87 11.502 1120.37 11.9946 1120.37 12.605C1120.37 13.2155 1120.87 13.7081 1121.48 13.7081C1122.09 13.7081 1122.58 13.2155 1122.58 12.605Z" fill="white"/>
<path d="M1013.95 57.317L1026.93 57.7561" stroke="white" stroke-miterlimit="10" stroke-linecap="round" stroke-linejoin="round"/>
<path d="M1020.24 63.475L1020.65 51.5982" stroke="white" stroke-miterlimit="10" stroke-linecap="round" stroke-linejoin="round"/>
<path d="M1017.49 60.2943L1023.4 54.7682" stroke="white" stroke-miterlimit="10" stroke-linecap="round" stroke-linejoin="round"/>
<path d="M1017.68 54.5753L1023.21 60.4977" stroke="white" stroke-miterlimit="10" stroke-linecap="round" stroke-linejoin="round"/>
<path d="M950.52 29.9436C953.969 29.9436 956.775 27.1484 956.775 23.6893C956.775 20.2408 953.98 17.4349 950.52 17.4349C947.072 17.4349 944.266 20.2301 944.266 23.6893C944.266 27.1484 947.061 29.9436 950.52 29.9436Z" stroke="white" stroke-miterlimit="10" stroke-linecap="round" stroke-dasharray="3.05 3.05"/>
</g>
<g clip-path="url(#clip2)">
<path d="M263.967 73.3598C263.967 73.9703 263.475 74.4629 262.864 74.4629C262.254 74.4629 261.761 73.9703 261.761 73.3598C261.761 72.7494 262.254 72.2567 262.864 72.2567C263.475 72.2567 263.967 72.7494 263.967 73.3598Z" fill="white"/>
<path d="M303.132 77.9542C303.742 77.9542 304.235 78.4469 304.235 79.0573C304.235 79.6678 303.742 80.1604 303.132 80.1604C302.521 80.1604 302.029 79.6678 302.029 79.0573C302.04 78.4469 302.532 77.9542 303.132 77.9542Z" fill="white"/>
<path d="M294.596 40.7281C294.596 41.3385 294.104 41.8312 293.493 41.8312C292.883 41.8312 292.39 41.3385 292.39 40.7281C292.39 40.1177 292.883 39.625 293.493 39.625C294.104 39.625 294.596 40.1177 294.596 40.7281Z" fill="white"/>
<path d="M367.667 35.7268C367.078 35.7268 366.607 35.2556 366.607 34.6666C366.607 34.0775 367.078 33.6063 367.667 33.6063C368.256 33.6063 368.727 34.0775 368.727 34.6666C368.727 35.2556 368.256 35.7268 367.667 35.7268Z" fill="white"/>
<path d="M202.473 100.84L215.453 100.401" stroke="white" stroke-miterlimit="10" stroke-linecap="round" stroke-linejoin="round"/>
<path d="M208.76 94.6825L209.167 106.559" stroke="white" stroke-miterlimit="10" stroke-linecap="round" stroke-linejoin="round"/>
<path d="M206.007 97.8526L211.919 103.379" stroke="white" stroke-miterlimit="10" stroke-linecap="round" stroke-linejoin="round"/>
<path d="M206.2 103.582L211.726 97.6597" stroke="white" stroke-miterlimit="10" stroke-linecap="round" stroke-linejoin="round"/>
<path d="M19.202 60.6049C19.202 60.5941 19.202 60.5727 19.202 60.562C19.202 58.8699 17.028 57.4884 14.3506 57.4777C17.0065 57.4884 19.1699 56.139 19.2234 54.4683C19.2234 56.1604 21.3974 57.5419 24.0748 57.5527C21.3867 57.5419 19.202 58.9128 19.202 60.6049Z" fill="white"/>
<path d="M67.6409 67.8981C67.8551 67.8981 68.0264 67.6946 68.0264 67.4376C68.0264 67.1805 67.8551 66.9771 67.6409 66.9771C67.4267 66.9771 67.2553 67.1805 67.2553 67.4376C67.2446 67.6946 67.4267 67.8981 67.6409 67.8981Z" fill="#17203A" stroke="white" stroke-width="2" stroke-miterlimit="10"/>
<path d="M134.019 18.2168C134.447 18.2168 134.8 17.8634 134.8 17.435C134.8 17.0066 134.447 16.6532 134.019 16.6532C133.59 16.6532 133.237 16.9959 133.237 17.435C133.237 17.8741 133.59 18.2168 134.019 18.2168Z" fill="#17203A" stroke="white" stroke-width="2" stroke-miterlimit="10"/>
<path d="M193.039 40.0856C193.649 40.0856 194.142 39.5929 194.142 38.9825C194.142 38.3721 193.649 37.8794 193.039 37.8794C192.428 37.8794 191.936 38.3721 191.936 38.9825C191.936 39.5929 192.428 40.0856 193.039 40.0856Z" fill="white"/>
<path d="M1.06024 7.52869C0.471217 7.52869 -7.20915e-08 7.99991 -4.63445e-08 8.58893C-2.05975e-08 9.17795 0.471217 9.64917 1.06024 9.64917C1.64926 9.64917 2.12048 9.17795 2.12048 8.58893C2.12048 8.01062 1.63855 7.52869 1.06024 7.52869Z" fill="white"/>
<path d="M34.2277 21.5796C33.6387 21.5796 33.1675 22.0508 33.1675 22.6398C33.1675 23.2289 33.6387 23.7001 34.2277 23.7001C34.8167 23.7001 35.288 23.2289 35.288 22.6398C35.288 22.0508 34.806 21.5796 34.2277 21.5796Z" fill="white"/>
<path d="M47.4645 33.9062C47.4645 33.2958 46.9718 32.8031 46.3614 32.8031C45.7509 32.8031 45.2583 33.2958 45.2583 33.9062C45.2583 34.5166 45.7509 35.0093 46.3614 35.0093C46.9718 35.0093 47.4645 34.5166 47.4645 33.9062Z" fill="white"/>
<path d="M293.493 6.24356L306.473 6.69336" stroke="white" stroke-miterlimit="10" stroke-linecap="round" stroke-linejoin="round"/>
<path d="M299.78 12.4122L300.187 0.535415" stroke="white" stroke-miterlimit="10" stroke-linecap="round" stroke-linejoin="round"/>
<path d="M297.027 9.23145L302.939 3.70534" stroke="white" stroke-miterlimit="10" stroke-linecap="round" stroke-linejoin="round"/>
<path d="M297.22 3.5127L302.746 9.42432" stroke="white" stroke-miterlimit="10" stroke-linecap="round" stroke-linejoin="round"/>
<path d="M98.3344 107.577C98.3344 107.545 98.3344 107.512 98.3344 107.47C98.388 103.753 93.6544 100.658 87.7642 100.573C93.6115 100.658 98.3987 97.7775 98.5379 94.1041C98.4844 97.8203 103.218 100.915 109.119 101.012C103.229 100.915 98.3987 103.86 98.3344 107.577Z" stroke="white" stroke-miterlimit="10"/>
<path d="M232.385 47.3787C231.796 47.3787 231.325 47.8499 231.325 48.4389C231.325 49.0279 231.796 49.4991 232.385 49.4991C232.974 49.4991 233.445 49.0279 233.445 48.4389C233.445 47.8606 232.963 47.3787 232.385 47.3787Z" fill="white"/>
<path d="M253.579 12.605C253.579 11.9946 253.087 11.502 252.476 11.502C251.866 11.502 251.373 11.9946 251.373 12.605C251.373 13.2155 251.866 13.7081 252.476 13.7081C253.087 13.7081 253.579 13.2155 253.579 12.605Z" fill="white"/>
<path d="M144.953 57.317L157.933 57.7561" stroke="white" stroke-miterlimit="10" stroke-linecap="round" stroke-linejoin="round"/>
<path d="M151.239 63.475L151.646 51.5982" stroke="white" stroke-miterlimit="10" stroke-linecap="round" stroke-linejoin="round"/>
<path d="M148.487 60.2943L154.398 54.7682" stroke="white" stroke-miterlimit="10" stroke-linecap="round" stroke-linejoin="round"/>
<path d="M148.68 54.5753L154.206 60.4977" stroke="white" stroke-miterlimit="10" stroke-linecap="round" stroke-linejoin="round"/>
<path d="M81.5205 29.9436C84.9689 29.9436 87.7748 27.1484 87.7748 23.6893C87.7748 20.2408 84.9796 17.4349 81.5205 17.4349C78.072 17.4349 75.2661 20.2301 75.2661 23.6893C75.2661 27.1484 78.0613 29.9436 81.5205 29.9436Z" stroke="white" stroke-miterlimit="10" stroke-linecap="round" stroke-dasharray="3.05 3.05"/>
</g>
<defs>
<clipPath id="clip0">
<rect width="107.62" height="368.727" fill="white" transform="translate(404 107.62) rotate(-90)"/>
</clipPath>
<clipPath id="clip1">
<rect width="107.62" height="368.727" fill="white" transform="translate(869 107.62) rotate(-90)"/>
</clipPath>
<clipPath id="clip2">
<rect width="107.62" height="368.727" fill="white" transform="translate(0 107.62) rotate(-90)"/>
</clipPath>
</defs>
</svg>
