<svg width="13" height="13" viewBox="0 0 13 13" fill="none" xmlns="http://www.w3.org/2000/svg">
<g clip-path="url(#clip0)">
<path d="M10.33 0H2.66998C1.19555 0 0 1.19598 0 2.67083V10.3301C0 11.8045 1.19555 13.0005 2.66998 13.0005H10.3295C11.804 13.0005 13 11.8045 13 10.3301V2.67083C13 1.19598 11.8045 0 10.33 0ZM11.4025 8.3818C11.4025 10.0498 10.0502 11.402 8.38163 11.402H4.61884C2.95028 11.402 1.59801 10.0498 1.59801 8.3818V4.61915C1.59801 2.95065 2.95028 1.59795 4.61884 1.59795H8.38163C10.0502 1.59795 11.4025 2.95018 11.4025 4.61915V8.3818Z" fill="#6DB3BB"/>
<path d="M6.63161 4.96338C5.77271 4.96338 5.07764 5.65843 5.07764 6.5173C5.07764 7.37475 5.77271 8.07122 6.63161 8.07122C7.48957 8.07122 8.18511 7.37523 8.18511 6.5173C8.18511 5.65843 7.48957 4.96338 6.63161 4.96338Z" fill="#6DB3BB"/>
<path d="M8.02058 2.53857H4.97986C3.63138 2.53857 2.53857 3.63181 2.53857 4.9793V8.01991C2.53857 9.36834 3.63138 10.4606 4.97986 10.4606H8.02058C9.36812 10.4606 10.4614 9.36834 10.4614 8.01991V4.9793C10.4614 3.63181 9.36812 2.53857 8.02058 2.53857ZM6.63185 9.09941C5.20524 9.09941 4.04899 7.94273 4.04899 6.51712C4.04899 5.09056 5.20524 3.93483 6.63185 3.93483C8.05799 3.93483 9.21424 5.09056 9.21424 6.51712C9.21424 7.94273 8.05799 9.09941 6.63185 9.09941ZM9.03526 4.55128C8.67257 4.55128 8.37901 4.25726 8.37901 3.89459C8.37901 3.53191 8.67304 3.23741 9.03526 3.23741C9.39747 3.23741 9.69246 3.53191 9.69246 3.89459C9.69246 4.25726 9.39747 4.55128 9.03526 4.55128Z" fill="#6DB3BB"/>
</g>
<defs>
<clipPath id="clip0">
<rect width="13" height="13" fill="white"/>
</clipPath>
</defs>
</svg>
