<svg width="222" height="37" viewBox="0 0 222 37" fill="none" xmlns="http://www.w3.org/2000/svg">
<path d="M50.183 15H52.107V12.296L53.368 10.684L55.851 15H57.97L54.512 9.16297L57.45 5.37997H55.331L52.146 9.55297H52.107V5.37997H50.183V15Z" fill="white"/>
<path d="M61.648 15.182C63.468 15.182 65.145 13.778 65.145 11.373C65.145 8.94197 63.468 7.53797 61.648 7.53797C59.828 7.53797 58.151 8.94197 58.151 11.373C58.151 13.778 59.828 15.182 61.648 15.182ZM61.648 13.622C60.66 13.622 60.101 12.738 60.101 11.373C60.101 9.99497 60.66 9.09797 61.648 9.09797C62.636 9.09797 63.195 9.99497 63.195 11.373C63.195 12.738 62.636 13.622 61.648 13.622Z" fill="white"/>
<path d="M66.6137 15H68.5117V9.99497C69.0577 9.46197 69.4347 9.17597 70.0327 9.17597C70.7477 9.17597 71.0597 9.57897 71.0597 10.697V15H72.9707V10.463C72.9707 8.62997 72.2947 7.53797 70.7217 7.53797C69.7337 7.53797 68.9927 8.05797 68.3557 8.68197H68.3037L68.1737 7.71997H66.6137V15Z" fill="white"/>
<path d="M74.8118 15H76.6708V13.18L77.7238 11.984L79.4918 15H81.5588L78.8028 10.697L81.3248 7.71997H79.2448L76.7228 10.866H76.6708V4.62597H74.8118V15Z" fill="white"/>
<path d="M84.4697 15.182C85.4707 15.182 86.1727 14.701 86.7967 13.96H86.8487L86.9917 15H88.5517V7.71997H86.6407V12.634C86.1467 13.284 85.7567 13.544 85.1587 13.544C84.4567 13.544 84.1447 13.154 84.1447 12.023V7.71997H82.2337V12.27C82.2337 14.09 82.9097 15.182 84.4697 15.182Z" fill="white"/>
<path d="M90.459 15H92.318V13.18L93.371 11.984L95.139 15H97.206L94.45 10.697L96.972 7.71997H94.892L92.37 10.866H92.318V4.62597H90.459V15Z" fill="white"/>
<path d="M104.863 15.182C107.216 15.182 108.581 13.869 108.581 10.671V5.37997H106.735V10.84C106.735 12.842 106.007 13.518 104.863 13.518C103.732 13.518 103.043 12.842 103.043 10.84V5.37997H101.119V10.671C101.119 13.869 102.523 15.182 104.863 15.182Z" fill="white"/>
<path d="M110.61 15H112.508V9.99497C113.054 9.46197 113.431 9.17597 114.029 9.17597C114.744 9.17597 115.056 9.57897 115.056 10.697V15H116.967V10.463C116.967 8.62997 116.291 7.53797 114.718 7.53797C113.73 7.53797 112.989 8.05797 112.352 8.68197H112.3L112.17 7.71997H110.61V15Z" fill="white"/>
<path d="M118.808 15H120.706V7.71997H118.808V15ZM119.77 6.54997C120.42 6.54997 120.901 6.10797 120.901 5.50997C120.901 4.88597 120.42 4.46997 119.77 4.46997C119.107 4.46997 118.626 4.88597 118.626 5.50997C118.626 6.10797 119.107 6.54997 119.77 6.54997Z" fill="white"/>
<path d="M124.264 15H126.474L128.905 7.71997H127.072L126.006 11.347C125.811 12.062 125.603 12.816 125.421 13.557H125.356C125.161 12.816 124.953 12.062 124.771 11.347L123.705 7.71997H121.781L124.264 15Z" fill="white"/>
<path d="M133.044 15.182C133.954 15.182 134.877 14.87 135.592 14.376L134.942 13.206C134.422 13.531 133.902 13.713 133.304 13.713C132.225 13.713 131.445 13.089 131.289 11.893H135.774C135.826 11.724 135.865 11.373 135.865 11.022C135.865 9.00697 134.825 7.53797 132.823 7.53797C131.081 7.53797 129.43 9.00697 129.43 11.373C129.43 13.765 131.016 15.182 133.044 15.182ZM131.263 10.632C131.406 9.56597 132.082 9.01997 132.849 9.01997C133.785 9.01997 134.227 9.64397 134.227 10.632H131.263Z" fill="white"/>
<path d="M137.309 15H139.207V10.658C139.623 9.60497 140.312 9.22797 140.884 9.22797C141.183 9.22797 141.391 9.26697 141.638 9.34497L141.976 7.69397C141.755 7.60297 141.521 7.53797 141.118 7.53797C140.364 7.53797 139.584 8.05797 139.051 9.00697H138.999L138.869 7.71997H137.309V15Z" fill="white"/>
<path d="M144.819 15.182C146.717 15.182 147.718 14.155 147.718 12.881C147.718 11.529 146.652 11.048 145.69 10.684C144.923 10.398 144.208 10.203 144.208 9.66997C144.208 9.25397 144.52 8.96797 145.17 8.96797C145.716 8.96797 146.223 9.22797 146.743 9.59197L147.601 8.43497C146.99 7.97997 146.184 7.53797 145.118 7.53797C143.48 7.53797 142.414 8.46097 142.414 9.77397C142.414 10.983 143.48 11.542 144.403 11.893C145.17 12.192 145.924 12.439 145.924 12.985C145.924 13.44 145.599 13.752 144.871 13.752C144.195 13.752 143.571 13.466 142.921 12.959L142.05 14.155C142.765 14.753 143.844 15.182 144.819 15.182Z" fill="white"/>
<path d="M149.046 15H150.944V7.71997H149.046V15ZM150.008 6.54997C150.658 6.54997 151.139 6.10797 151.139 5.50997C151.139 4.88597 150.658 4.46997 150.008 4.46997C149.345 4.46997 148.864 4.88597 148.864 5.50997C148.864 6.10797 149.345 6.54997 150.008 6.54997Z" fill="white"/>
<path d="M155.529 15.182C156.166 15.182 156.673 15.039 157.063 14.909L156.751 13.518C156.556 13.596 156.27 13.674 156.036 13.674C155.386 13.674 155.048 13.284 155.048 12.452V9.22797H156.842V7.71997H155.048V5.76997H153.449L153.228 7.71997L152.11 7.81097V9.22797H153.137V12.452C153.137 14.09 153.8 15.182 155.529 15.182Z" fill="white"/>
<path d="M158.83 17.925C160.455 17.925 161.235 16.937 161.872 15.221L164.459 7.71997H162.626L161.625 11.1C161.456 11.776 161.274 12.478 161.105 13.154H161.04C160.832 12.452 160.65 11.75 160.429 11.1L159.272 7.71997H157.348L160.182 14.87L160.052 15.299C159.844 15.936 159.428 16.404 158.687 16.404C158.518 16.404 158.31 16.352 158.18 16.313L157.829 17.782C158.115 17.873 158.401 17.925 158.83 17.925Z" fill="white"/>
<path d="M53.069 33.182C54.889 33.182 56.566 31.778 56.566 29.373C56.566 26.942 54.889 25.538 53.069 25.538C51.249 25.538 49.572 26.942 49.572 29.373C49.572 31.778 51.249 33.182 53.069 33.182ZM53.069 31.622C52.081 31.622 51.522 30.738 51.522 29.373C51.522 27.995 52.081 27.098 53.069 27.098C54.057 27.098 54.616 27.995 54.616 29.373C54.616 30.738 54.057 31.622 53.069 31.622Z" fill="white"/>
<path d="M62.2092 22.704C61.8842 22.574 61.3902 22.444 60.8312 22.444C58.9982 22.444 58.2962 23.614 58.2962 25.135V25.733L57.3212 25.811V27.228H58.2962V33H60.2072V27.228H61.5722V25.72H60.2072V25.096C60.2072 24.29 60.5192 23.952 61.0912 23.952C61.3252 23.952 61.6112 24.017 61.8582 24.108L62.2092 22.704Z" fill="white"/>
<path d="M67.3394 33H69.6274L72.5784 23.38H70.6284L69.3804 28.06C69.0814 29.126 68.8604 30.088 68.5614 31.167H68.4964C68.1844 30.088 67.9894 29.126 67.6904 28.06L66.4164 23.38H64.4014L67.3394 33Z" fill="white"/>
<path d="M73.3996 33H75.2976V25.72H73.3996V33ZM74.3616 24.55C75.0116 24.55 75.4926 24.108 75.4926 23.51C75.4926 22.886 75.0116 22.47 74.3616 22.47C73.6986 22.47 73.2176 22.886 73.2176 23.51C73.2176 24.108 73.6986 24.55 74.3616 24.55Z" fill="white"/>
<path d="M79.2978 33.182C81.1958 33.182 82.1968 32.155 82.1968 30.881C82.1968 29.529 81.1308 29.048 80.1688 28.684C79.4018 28.398 78.6868 28.203 78.6868 27.67C78.6868 27.254 78.9988 26.968 79.6488 26.968C80.1948 26.968 80.7018 27.228 81.2218 27.592L82.0798 26.435C81.4688 25.98 80.6628 25.538 79.5968 25.538C77.9588 25.538 76.8928 26.461 76.8928 27.774C76.8928 28.983 77.9588 29.542 78.8818 29.893C79.6488 30.192 80.4028 30.439 80.4028 30.985C80.4028 31.44 80.0778 31.752 79.3498 31.752C78.6738 31.752 78.0498 31.466 77.3998 30.959L76.5288 32.155C77.2438 32.753 78.3228 33.182 79.2978 33.182Z" fill="white"/>
<path d="M85.6823 33.182C86.6833 33.182 87.3853 32.701 88.0093 31.96H88.0613L88.2043 33H89.7643V25.72H87.8533V30.634C87.3593 31.284 86.9693 31.544 86.3713 31.544C85.6693 31.544 85.3573 31.154 85.3573 30.023V25.72H83.4463V30.27C83.4463 32.09 84.1223 33.182 85.6823 33.182Z" fill="white"/>
<path d="M93.4657 33.182C94.2977 33.182 95.0257 32.766 95.6627 32.22H95.7017L95.8447 33H97.4047V28.749C97.4047 26.643 96.4557 25.538 94.6097 25.538C93.4657 25.538 92.4257 25.967 91.5677 26.5L92.2567 27.761C92.9327 27.371 93.5827 27.072 94.2587 27.072C95.1557 27.072 95.4677 27.618 95.4937 28.333C92.5687 28.645 91.3077 29.464 91.3077 31.024C91.3077 32.259 92.1657 33.182 93.4657 33.182ZM94.0897 31.687C93.5307 31.687 93.1277 31.44 93.1277 30.868C93.1277 30.218 93.7257 29.737 95.4937 29.503V30.972C95.0387 31.427 94.6357 31.687 94.0897 31.687Z" fill="white"/>
<path d="M101.016 33.182C101.458 33.182 101.783 33.104 102.004 33.013L101.77 31.596C101.64 31.622 101.588 31.622 101.51 31.622C101.328 31.622 101.12 31.479 101.12 31.05V22.626H99.2223V30.959C99.2223 32.311 99.6903 33.182 101.016 33.182Z" fill="white"/>
<path d="M107.971 29.035L108.257 27.982C108.543 26.981 108.829 25.889 109.076 24.836H109.128C109.414 25.876 109.674 26.981 109.973 27.982L110.259 29.035H107.971ZM111.351 33H113.366L110.272 23.38H108.01L104.929 33H106.879L107.555 30.53H110.675L111.351 33Z" fill="white"/>
<path d="M116.767 33.182C117.521 33.182 118.249 32.766 118.782 32.246H118.821L118.977 33H120.524V22.626H118.613V25.187L118.691 26.331C118.171 25.85 117.664 25.538 116.845 25.538C115.272 25.538 113.79 26.994 113.79 29.373C113.79 31.752 114.96 33.182 116.767 33.182ZM117.261 31.609C116.299 31.609 115.753 30.855 115.753 29.347C115.753 27.891 116.442 27.111 117.261 27.111C117.716 27.111 118.171 27.254 118.613 27.657V30.855C118.197 31.401 117.768 31.609 117.261 31.609Z" fill="white"/>
<path d="M124.081 33H126.291L128.722 25.72H126.889L125.823 29.347C125.628 30.062 125.42 30.816 125.238 31.557H125.173C124.978 30.816 124.77 30.062 124.588 29.347L123.522 25.72H121.598L124.081 33Z" fill="white"/>
<path d="M132.86 33.182C133.77 33.182 134.693 32.87 135.408 32.376L134.758 31.206C134.238 31.531 133.718 31.713 133.12 31.713C132.041 31.713 131.261 31.089 131.105 29.893H135.59C135.642 29.724 135.681 29.373 135.681 29.022C135.681 27.007 134.641 25.538 132.639 25.538C130.897 25.538 129.246 27.007 129.246 29.373C129.246 31.765 130.832 33.182 132.86 33.182ZM131.079 28.632C131.222 27.566 131.898 27.02 132.665 27.02C133.601 27.02 134.043 27.644 134.043 28.632H131.079Z" fill="white"/>
<path d="M137.125 33H139.023V28.658C139.439 27.605 140.128 27.228 140.7 27.228C140.999 27.228 141.207 27.267 141.454 27.345L141.792 25.694C141.571 25.603 141.337 25.538 140.934 25.538C140.18 25.538 139.4 26.058 138.867 27.007H138.815L138.685 25.72H137.125V33Z" fill="white"/>
<path d="M145.322 33.182C145.959 33.182 146.466 33.039 146.856 32.909L146.544 31.518C146.349 31.596 146.063 31.674 145.829 31.674C145.179 31.674 144.841 31.284 144.841 30.452V27.228H146.635V25.72H144.841V23.77H143.242L143.021 25.72L141.903 25.811V27.228H142.93V30.452C142.93 32.09 143.593 33.182 145.322 33.182Z" fill="white"/>
<path d="M147.986 33H149.884V25.72H147.986V33ZM148.948 24.55C149.598 24.55 150.079 24.108 150.079 23.51C150.079 22.886 149.598 22.47 148.948 22.47C148.285 22.47 147.804 22.886 147.804 23.51C147.804 24.108 148.285 24.55 148.948 24.55Z" fill="white"/>
<path d="M153.884 33.182C155.782 33.182 156.783 32.155 156.783 30.881C156.783 29.529 155.717 29.048 154.755 28.684C153.988 28.398 153.273 28.203 153.273 27.67C153.273 27.254 153.585 26.968 154.235 26.968C154.781 26.968 155.288 27.228 155.808 27.592L156.666 26.435C156.055 25.98 155.249 25.538 154.183 25.538C152.545 25.538 151.479 26.461 151.479 27.774C151.479 28.983 152.545 29.542 153.468 29.893C154.235 30.192 154.989 30.439 154.989 30.985C154.989 31.44 154.664 31.752 153.936 31.752C153.26 31.752 152.636 31.466 151.986 30.959L151.115 32.155C151.83 32.753 152.909 33.182 153.884 33.182Z" fill="white"/>
<path d="M158.111 33H160.009V25.72H158.111V33ZM159.073 24.55C159.723 24.55 160.204 24.108 160.204 23.51C160.204 22.886 159.723 22.47 159.073 22.47C158.41 22.47 157.929 22.886 157.929 23.51C157.929 24.108 158.41 24.55 159.073 24.55Z" fill="white"/>
<path d="M161.929 33H163.827V27.995C164.373 27.462 164.75 27.176 165.348 27.176C166.063 27.176 166.375 27.579 166.375 28.697V33H168.286V28.463C168.286 26.63 167.61 25.538 166.037 25.538C165.049 25.538 164.308 26.058 163.671 26.682H163.619L163.489 25.72H161.929V33Z" fill="white"/>
<path d="M172.688 36.159C175.119 36.159 176.64 35.041 176.64 33.572C176.64 32.298 175.691 31.752 173.936 31.752H172.701C171.843 31.752 171.557 31.544 171.557 31.154C171.557 30.868 171.661 30.699 171.869 30.53C172.181 30.634 172.519 30.699 172.805 30.699C174.365 30.699 175.613 29.867 175.613 28.229C175.613 27.774 175.47 27.371 175.275 27.124H176.523V25.72H173.897C173.598 25.616 173.208 25.538 172.805 25.538C171.258 25.538 169.867 26.461 169.867 28.177C169.867 29.022 170.335 29.711 170.829 30.075V30.127C170.4 30.439 170.023 30.946 170.023 31.492C170.023 32.09 170.309 32.467 170.686 32.714V32.779C170.023 33.156 169.646 33.676 169.646 34.287C169.646 35.574 170.972 36.159 172.688 36.159ZM172.805 29.516C172.168 29.516 171.661 29.035 171.661 28.177C171.661 27.319 172.155 26.838 172.805 26.838C173.455 26.838 173.936 27.319 173.936 28.177C173.936 29.035 173.442 29.516 172.805 29.516ZM172.974 34.95C171.908 34.95 171.232 34.599 171.232 33.988C171.232 33.689 171.388 33.403 171.713 33.143C171.973 33.208 172.285 33.247 172.727 33.247H173.611C174.391 33.247 174.82 33.377 174.82 33.897C174.82 34.469 174.066 34.95 172.974 34.95Z" fill="white"/>
<path d="M180.725 33H183.468C186.302 33 188.122 31.388 188.122 28.151C188.122 24.901 186.302 23.38 183.364 23.38H180.725V33ZM182.649 31.453V24.914H183.247C185.041 24.914 186.159 25.798 186.159 28.151C186.159 30.491 185.041 31.453 183.247 31.453H182.649Z" fill="white"/>
<path d="M192.879 33.182C193.789 33.182 194.712 32.87 195.427 32.376L194.777 31.206C194.257 31.531 193.737 31.713 193.139 31.713C192.06 31.713 191.28 31.089 191.124 29.893H195.609C195.661 29.724 195.7 29.373 195.7 29.022C195.7 27.007 194.66 25.538 192.658 25.538C190.916 25.538 189.265 27.007 189.265 29.373C189.265 31.765 190.851 33.182 192.879 33.182ZM191.098 28.632C191.241 27.566 191.917 27.02 192.684 27.02C193.62 27.02 194.062 27.644 194.062 28.632H191.098Z" fill="white"/>
<path d="M199.223 33.182C201.121 33.182 202.122 32.155 202.122 30.881C202.122 29.529 201.056 29.048 200.094 28.684C199.327 28.398 198.612 28.203 198.612 27.67C198.612 27.254 198.924 26.968 199.574 26.968C200.12 26.968 200.627 27.228 201.147 27.592L202.005 26.435C201.394 25.98 200.588 25.538 199.522 25.538C197.884 25.538 196.818 26.461 196.818 27.774C196.818 28.983 197.884 29.542 198.807 29.893C199.574 30.192 200.328 30.439 200.328 30.985C200.328 31.44 200.003 31.752 199.275 31.752C198.599 31.752 197.975 31.466 197.325 30.959L196.454 32.155C197.169 32.753 198.248 33.182 199.223 33.182Z" fill="white"/>
<path d="M203.45 33H205.348V25.72H203.45V33ZM204.412 24.55C205.062 24.55 205.543 24.108 205.543 23.51C205.543 22.886 205.062 22.47 204.412 22.47C203.749 22.47 203.268 22.886 203.268 23.51C203.268 24.108 203.749 24.55 204.412 24.55Z" fill="white"/>
<path d="M209.829 36.159C212.26 36.159 213.781 35.041 213.781 33.572C213.781 32.298 212.832 31.752 211.077 31.752H209.842C208.984 31.752 208.698 31.544 208.698 31.154C208.698 30.868 208.802 30.699 209.01 30.53C209.322 30.634 209.66 30.699 209.946 30.699C211.506 30.699 212.754 29.867 212.754 28.229C212.754 27.774 212.611 27.371 212.416 27.124H213.664V25.72H211.038C210.739 25.616 210.349 25.538 209.946 25.538C208.399 25.538 207.008 26.461 207.008 28.177C207.008 29.022 207.476 29.711 207.97 30.075V30.127C207.541 30.439 207.164 30.946 207.164 31.492C207.164 32.09 207.45 32.467 207.827 32.714V32.779C207.164 33.156 206.787 33.676 206.787 34.287C206.787 35.574 208.113 36.159 209.829 36.159ZM209.946 29.516C209.309 29.516 208.802 29.035 208.802 28.177C208.802 27.319 209.296 26.838 209.946 26.838C210.596 26.838 211.077 27.319 211.077 28.177C211.077 29.035 210.583 29.516 209.946 29.516ZM210.115 34.95C209.049 34.95 208.373 34.599 208.373 33.988C208.373 33.689 208.529 33.403 208.854 33.143C209.114 33.208 209.426 33.247 209.868 33.247H210.752C211.532 33.247 211.961 33.377 211.961 33.897C211.961 34.469 211.207 34.95 210.115 34.95Z" fill="white"/>
<path d="M214.895 33H216.793V27.995C217.339 27.462 217.716 27.176 218.314 27.176C219.029 27.176 219.341 27.579 219.341 28.697V33H221.252V28.463C221.252 26.63 220.576 25.538 219.003 25.538C218.015 25.538 217.274 26.058 216.637 26.682H216.585L216.455 25.72H214.895V33Z" fill="white"/>
<g clip-path="url(#clip0)">
<path d="M36 36H25.3915L0 32.9027V11.2369L11.2369 0H30.419L36 5.58105V36ZM25.4663 35.1022H35.1022V5.94015L30.0598 0.897756H11.611L0.897756 11.611V32.1097L25.4663 35.1022Z" fill="white"/>
<path d="M24.3783 0.697303L23.4835 0.769348L25.0012 19.6215L25.8961 19.5495L24.3783 0.697303Z" fill="white"/>
<path d="M35.5511 5.76057H30.2394V0.448853L35.5511 5.76057Z" fill="white"/>
<path d="M35.5511 6.20949H30.2394C29.985 6.20949 29.7905 6.01497 29.7905 5.76061V0.448889C29.7905 0.269338 29.8953 0.104749 30.0748 0.0299364C30.2394 -0.0448765 30.4339 1.12355e-05 30.5686 0.134675L35.8803 5.4464C36.015 5.58106 36.0449 5.76061 35.985 5.94016C35.8953 6.10475 35.7307 6.20949 35.5511 6.20949ZM30.6883 5.31173H34.4738L30.6883 1.5262V5.31173Z" fill="white"/>
<path d="M11.4315 0.448853L0.448914 11.4314H11.4315V0.448853Z" fill="white"/>
<path d="M11.4308 11.8804H0.448218C0.268667 11.8804 0.104078 11.7756 0.029265 11.5961C-0.0455479 11.4315 -0.000660151 11.237 0.134003 11.1023L11.1016 0.134741C11.2362 7.80672e-05 11.4158 -0.0298471 11.5953 0.0300033C11.7599 0.104816 11.8796 0.269405 11.8796 0.448956V11.4315C11.8796 11.6709 11.6702 11.8804 11.4308 11.8804ZM1.52552 10.9826H10.9669V1.52626L1.52552 10.9826Z" fill="white"/>
<path d="M35.5312 19.1218L0.430664 20.6201L0.46895 21.517L35.5695 20.0188L35.5312 19.1218Z" fill="white"/>
<path d="M0.448914 32.4988L25.4364 35.5512V32.4988H0.448914Z" fill="white"/>
<path d="M25.4364 36C25.4215 36 25.4065 36 25.3766 36L0.389045 32.9477C0.164606 32.9178 -0.0149452 32.7083 1.74421e-05 32.4689C0.01498 32.2295 0.209494 32.0499 0.448895 32.0499H25.4364C25.6908 32.0499 25.8853 32.2444 25.8853 32.4988V35.5512C25.8853 35.6858 25.8255 35.8055 25.7357 35.8803C25.6609 35.9552 25.5561 36 25.4364 36ZM7.82545 32.9477L24.9875 35.0424V32.9477H7.82545Z" fill="white"/>
</g>
<defs>
<clipPath id="clip0">
<rect width="36" height="36" fill="white"/>
</clipPath>
</defs>
</svg>
