<svg width="523" height="226" viewBox="0 0 523 226" fill="none" xmlns="http://www.w3.org/2000/svg">
<path d="M379.993 0.639648L521.606 123.438L413.091 224.619H74.0479L1.28882 46.1491L379.993 0.639648ZM267.229 157.072L372.539 114.888L197.586 49.7106L122.839 138.493L267.229 157.072Z" fill="#F0BDCE" stroke="#1D1D1B" stroke-miterlimit="10" stroke-linecap="round" stroke-linejoin="round"/>
<path d="M372.539 114.888L376.304 148.968L267.229 157.072L372.539 114.888Z" fill="#F0BDCE" stroke="#1D1D1B" stroke-miterlimit="10" stroke-linecap="round" stroke-linejoin="round"/>
<path d="M254.404 143.253L238.877 153.421L198.299 180.238L122.839 138.493L254.404 143.253Z" fill="#F0BDCE" stroke="#1D1D1B" stroke-miterlimit="10" stroke-linecap="round" stroke-linejoin="round"/>
<path d="M267.229 157.072L254.404 143.253L238.877 153.421L267.229 157.072Z" fill="#F0BDCE" stroke="#1D1D1B" stroke-miterlimit="10" stroke-linecap="round" stroke-linejoin="round"/>
<path d="M122.838 138.493L109.204 114.888L61.866 119.227L132.083 36.8537L168.201 33.4451L197.585 49.7107L122.838 138.493Z" fill="#F0BDCE" stroke="#1D1D1B" stroke-miterlimit="10" stroke-linecap="round" stroke-linejoin="round"/>
<path d="M197.586 49.7106L242.375 40.1793L385.867 81.7833L407.644 103.885L380.834 98.7816L372.539 114.888L197.586 49.7106Z" fill="#F0BDCE" stroke="#1D1D1B" stroke-miterlimit="10" stroke-linecap="round" stroke-linejoin="round"/>
<path d="M385.867 81.7833L380.834 98.7817L407.644 103.885L385.867 81.7833Z" fill="#F0BDCE" stroke="#1D1D1B" stroke-miterlimit="10" stroke-linecap="round" stroke-linejoin="round"/>
<path d="M109.204 114.888L168.201 33.4451" stroke="#1D1D1B" stroke-miterlimit="10" stroke-linecap="round" stroke-linejoin="round"/>
</svg>
