<svg width="527" height="226" viewBox="0 0 527 226" fill="none" xmlns="http://www.w3.org/2000/svg">
<path d="M415.771 0.637451H64.7226L0.975586 75.5205L61.3226 205.542L380.071 225.293L525.412 121.605L415.771 0.637451ZM253.099 139.955L140.472 129.068L133.474 76.0108L282.973 60.3733L392.009 95.8887L253.099 139.955Z" fill="#6EBAC2" stroke="#231815" stroke-miterlimit="10"/>
<path d="M133.474 76.0109L125.853 56.1074L282.979 60.3734L133.474 76.0109Z" fill="#6EBAC2" stroke="#231815" stroke-miterlimit="10"/>
<path d="M125.853 56.1074L103.931 80.1686L131.532 70.9427L125.853 56.1074Z" fill="#6EBAC2" stroke="#231815" stroke-miterlimit="10"/>
<path d="M282.979 60.3733L317.839 41.8005H358.155L421.234 76.0108H402.375L392.015 95.8887L282.979 60.3733Z" fill="#6EBAC2" stroke="#231815" stroke-miterlimit="10"/>
<path d="M140.472 129.068L131.532 112.965L247.941 124.063L253.099 139.955L140.472 129.068Z" fill="#6EBAC2" stroke="#231815" stroke-miterlimit="10"/>
<path d="M247.941 124.063L155.765 143.565L131.532 112.965L247.941 124.063Z" fill="#6EBAC2" stroke="#231815" stroke-miterlimit="10"/>
<path d="M253.099 139.955L272.321 119.186L397.186 80.1687L392.015 95.889L253.099 139.955Z" fill="#6EBAC2" stroke="#231815" stroke-miterlimit="10"/>
<path d="M272.321 119.186L344.504 137.23L397.185 80.1687L272.321 119.186Z" fill="#6EBAC2" stroke="#231815" stroke-miterlimit="10"/>
</svg>
