<svg width="537" height="218" viewBox="0 0 537 218" fill="none" xmlns="http://www.w3.org/2000/svg">
<path d="M536.007 1.1521L497.441 191.395L137.595 216.668L1.06299 46.0071L536.007 1.1521ZM284.148 148.698L396.756 137.812L403.753 84.7635L254.278 69.1285L145.26 104.638L284.148 148.698Z" fill="#6EBAC2" stroke="#231815" stroke-miterlimit="10"/>
<path d="M411.379 64.8318L433.297 88.8826L405.694 79.6646L411.379 64.8318Z" fill="#6EBAC2" stroke="#231815" stroke-miterlimit="10" stroke-linecap="round" stroke-linejoin="round"/>
<path d="M403.759 84.732L411.379 64.8318L254.278 69.097L403.759 84.732Z" fill="#6EBAC2" stroke="#231815" stroke-miterlimit="10" stroke-linecap="round" stroke-linejoin="round"/>
<path d="M254.278 69.0968L219.418 50.5271H179.108L116.046 84.7318H134.902L145.26 104.607L254.278 69.0968Z" fill="#6EBAC2" stroke="#231815" stroke-miterlimit="10" stroke-linecap="round" stroke-linejoin="round"/>
<path d="M396.763 137.774L405.694 121.674L289.311 132.77L284.154 148.659L396.763 137.774Z" fill="#6EBAC2" stroke="#231815" stroke-miterlimit="10" stroke-linecap="round" stroke-linejoin="round"/>
<path d="M289.311 132.77L381.472 152.275L405.694 121.674L289.311 132.77Z" fill="#6EBAC2" stroke="#231815" stroke-miterlimit="10" stroke-linecap="round" stroke-linejoin="round"/>
<path d="M284.154 148.66L264.929 127.894L140.091 88.8826L145.26 104.607L284.154 148.66Z" fill="#6EBAC2" stroke="#231815" stroke-miterlimit="10" stroke-linecap="round" stroke-linejoin="round"/>
<path d="M264.929 127.894L192.763 145.935L140.091 88.8826L264.929 127.894Z" fill="#6EBAC2" stroke="#231815" stroke-miterlimit="10" stroke-linecap="round" stroke-linejoin="round"/>
</svg>
