<svg width="508" height="240" viewBox="0 0 508 240" fill="none" xmlns="http://www.w3.org/2000/svg">
<path d="M1.02051 116.793L179.992 239.202L506.351 159.195L381.071 23.1083L92.6073 1.22888L1.02051 116.793ZM305.551 37.8192L318.874 75.7469L343.802 131.605L251.29 159.975L221.558 143.242L251.531 139.579L151.331 151.127L132.665 76.7674L206.359 16.9856L250.631 39.7714L305.551 37.8192Z" fill="#364197" stroke="white" stroke-miterlimit="10"/>
<path d="M132.665 76.7736L151.337 151.133L251.531 139.579L221.558 143.242L251.29 159.975L343.802 131.605L318.874 75.7468L250.631 39.7712L318.494 75.8165L251.778 159.081L252.083 139.515L133.292 76.9003L250.631 39.7712L206.359 16.9855L132.665 76.7736Z" fill="#364197" stroke="white" stroke-miterlimit="10"/>
<path d="M305.551 37.8192L250.631 39.7714L318.874 75.7469L305.551 37.8192Z" fill="#364197" stroke="white" stroke-miterlimit="10"/>
</svg>
