<svg width="543" height="218" viewBox="0 0 543 218" fill="none" xmlns="http://www.w3.org/2000/svg">
<path d="M541.456 60.8929L329.604 216.998L1.73633 143.433L138.803 1L541.456 60.8929ZM203.464 31.8294L190.08 66.7032L165.037 118.064L257.976 144.15L287.846 128.764L257.734 125.401L358.398 136.02L377.15 67.6474L303.115 12.679L258.639 33.6302L203.464 31.8294Z" fill="#364197" stroke="white" stroke-miterlimit="10"/>
<path d="M377.144 67.6474L358.391 136.02L257.734 125.401L287.846 128.77L257.97 144.155L165.037 118.07L190.08 66.7091L258.639 33.6302L190.462 66.7732L257.486 143.334L257.174 125.343L376.513 67.7639L258.639 33.6302L303.115 12.679L377.144 67.6474Z" fill="#364197" stroke="white" stroke-miterlimit="10"/>
<path d="M203.464 31.8294L258.638 33.6302L190.08 66.7091L203.464 31.8294Z" fill="#364197" stroke="white" stroke-miterlimit="10"/>
</svg>
