<svg width="464" height="210" viewBox="0 0 464 210" fill="none" xmlns="http://www.w3.org/2000/svg">
<path d="M463.5 6.8728L60 0.5L1 86.5L73.1782 209.681H412.127L442 117L463.5 6.8728ZM219 142L113.72 99.7321L284 32.5L363.35 123.391L219 142Z" fill="#F0BDCE" stroke="#1D1D1B" stroke-miterlimit="10" stroke-linecap="round" stroke-linejoin="round"/>
<path d="M113.72 99.7324L109.955 133.88L219 142L113.72 99.7324Z" fill="#F0BDCE" stroke="#1D1D1B" stroke-miterlimit="10" stroke-linecap="round" stroke-linejoin="round"/>
<path d="M231.815 128.153L247.344 138.348L287.911 165.211L363.35 123.384L231.815 128.153Z" fill="#F0BDCE" stroke="#1D1D1B" stroke-miterlimit="10" stroke-linecap="round" stroke-linejoin="round"/>
<path d="M219 141.999L231.815 128.153L247.344 138.348L219 141.999Z" fill="#F0BDCE" stroke="#1D1D1B" stroke-miterlimit="10" stroke-linecap="round" stroke-linejoin="round"/>
<path d="M363.35 123.384L376.981 99.7323L424.306 104.08L283.5 33.5L363.35 123.384Z" fill="#F0BDCE"/>
<path d="M283.5 33.5L424.306 104.08L376.981 99.7323L363.35 123.384L283.5 33.5ZM283.5 33.5L113.5 99.7323L181.5 41L283.5 33.5Z" stroke="#1D1D1B" stroke-miterlimit="10" stroke-linecap="round" stroke-linejoin="round"/>
</svg>
