<svg width="73" height="22" viewBox="0 0 73 22" fill="none" xmlns="http://www.w3.org/2000/svg">
<path d="M71.7004 0.790771H0.952171V21.2523H72.0478V0.790771H71.7004ZM71.3964 1.39385C71.3964 1.99693 71.3964 19.96 71.3964 20.5631C70.7449 20.5631 2.21165 20.5631 1.5602 20.5631C1.5602 19.96 1.5602 1.99693 1.5602 1.39385C2.21165 1.39385 70.7449 1.39385 71.3964 1.39385Z" fill="#6EBAC2"/>
<path d="M36.4348 5.1416H38.5629V5.44314C38.0418 5.44314 37.6943 5.7016 37.3469 6.04622L36.3914 6.99391L38.0418 9.36314C38.2155 9.6216 38.3024 9.66468 38.4327 9.70776C38.5195 9.70776 38.6932 9.75083 38.867 9.75083V10.0524H36.5217V9.75083H36.9126C37.1297 9.75083 37.2166 9.75083 37.2166 9.6216C37.2166 9.53545 37.1297 9.40622 37.0429 9.27699L35.8268 7.55391L35.0451 8.37237V9.40622C35.0451 9.66468 35.1754 9.75083 35.4359 9.75083H35.8268V10.0524H33.5684V9.75083H33.9593C34.2199 9.75083 34.3502 9.66468 34.3502 9.40622V5.83083C34.3502 5.57237 34.2199 5.48622 33.9593 5.48622H33.5684V5.18468H35.8268V5.48622H35.4359C35.1754 5.48622 35.0451 5.57237 35.0451 5.83083V7.89852L36.8692 6.08929C36.9994 5.96006 37.0863 5.78776 37.0863 5.7016C37.0863 5.57237 36.956 5.48622 36.6086 5.48622H36.4783V5.1416H36.4348Z" fill="#6EBAC2"/>
<path d="M42.906 7.55387C42.906 8.54464 42.6889 9.79387 41.4294 9.79387C40.0396 9.79387 39.9527 8.2431 39.9527 7.55387C39.9527 6.5631 40.1699 5.31387 41.4294 5.31387C42.8191 5.31387 42.906 6.90771 42.906 7.55387ZM43.7746 7.55387C43.7746 6.26156 42.8191 5.01233 41.4294 5.01233C39.8224 5.01233 39.0841 6.5631 39.0841 7.55387C39.0841 8.84618 40.0396 10.0954 41.4294 10.0954C43.0363 10.1385 43.7746 8.58771 43.7746 7.55387Z" fill="#6EBAC2"/>
<path d="M47.7268 5.14159H49.6377V5.44313C49.2903 5.4862 49.0731 5.52928 48.9863 5.70159C48.8994 5.8739 48.856 6.13236 48.856 6.47697V10.1385H48.5954L45.5553 5.96005V8.88928C45.5553 9.44928 45.6421 9.66467 46.337 9.70774V10.0093H44.3826V9.70774C44.9907 9.70774 45.1644 9.44928 45.1644 8.88928V5.61543C45.0341 5.40005 44.8604 5.40005 44.4695 5.40005H44.3826V5.09851H45.7724L48.4651 8.76005V6.34774C48.4651 5.74467 48.3782 5.40005 47.6833 5.40005V5.14159H47.7268Z" fill="#6EBAC2"/>
<path d="M53.0687 5.1416H55.1968V5.44314C54.6757 5.44314 54.3282 5.7016 53.9808 6.04622L53.0253 6.99391L54.6757 9.36314C54.8494 9.6216 54.9362 9.66468 55.0665 9.70776C55.1534 9.70776 55.3271 9.75083 55.5008 9.75083V10.0524H53.1556V9.75083H53.5465C53.7636 9.75083 53.8505 9.75083 53.8505 9.6216C53.8505 9.53545 53.7636 9.40622 53.6768 9.27699L52.4607 7.55391L51.679 8.37237V9.40622C51.679 9.66468 51.8092 9.75083 52.0698 9.75083H52.4607V10.0524H50.2023V9.75083H50.5932C50.8538 9.75083 50.9841 9.66468 50.9841 9.40622V5.83083C50.9841 5.57237 50.8538 5.48622 50.5932 5.48622H50.2023V5.18468H52.4607V5.48622H52.0698C51.8092 5.48622 51.679 5.57237 51.679 5.83083V7.89852L53.4596 6.04622C53.5899 5.91699 53.6768 5.74468 53.6768 5.65852C53.6768 5.52929 53.5465 5.44314 53.199 5.44314H53.0687V5.1416Z" fill="#6EBAC2"/>
<path d="M58.9318 5.1416H60.8428V5.44314C60.1479 5.44314 60.061 5.78776 60.061 6.39083V8.20006C60.061 9.44929 59.453 10.1385 58.1935 10.1385C57.1512 10.1385 56.2826 9.70776 56.2826 8.71699V5.78776C56.2826 5.52929 56.1523 5.44314 55.8917 5.44314H55.5008V5.1416H57.7592V5.44314H57.3683C57.1078 5.44314 56.9775 5.52929 56.9775 5.78776V8.32929C56.9775 8.88929 57.0209 9.19083 57.3249 9.44929C57.5855 9.70776 57.8895 9.79391 58.3672 9.79391C59.1056 9.79391 59.7136 9.27699 59.7136 8.45852V6.39083C59.7136 5.78776 59.6267 5.44314 58.9318 5.44314V5.1416Z" fill="#6EBAC2"/>
<path d="M64.2304 5.1416H66.315V5.44314C65.7938 5.44314 65.4464 5.7016 65.099 6.04622L64.1435 6.99391L65.7938 9.36314C65.9676 9.6216 66.0544 9.66468 66.1847 9.70776C66.2716 9.70776 66.4453 9.75083 66.619 9.75083V10.0524H64.2738V9.75083H64.6647C64.8818 9.75083 64.9687 9.75083 64.9687 9.6216C64.9687 9.53545 64.8818 9.40622 64.7949 9.27699L63.5789 7.55391L62.7971 8.37237V9.40622C62.7971 9.66468 62.9274 9.75083 63.188 9.75083H63.5789V10.0524H61.3205V9.75083H61.7114C61.972 9.75083 62.1023 9.66468 62.1023 9.40622V5.83083C62.1023 5.57237 61.972 5.48622 61.7114 5.48622H61.3205V5.18468H63.5789V5.48622H63.188C62.9274 5.48622 62.7971 5.57237 62.7971 5.83083V7.89852L64.6212 6.08929C64.7515 5.96006 64.8384 5.78776 64.8384 5.7016C64.8384 5.57237 64.7081 5.48622 64.3606 5.48622H64.2304V5.1416Z" fill="#6EBAC2"/>
<path d="M35.8703 12.8093H37.26V13.0247C36.7389 13.0247 36.6954 13.2832 36.6954 13.7139V15.0493C36.6954 15.997 36.2177 16.4709 35.3057 16.4709C34.5673 16.4709 33.8725 16.1693 33.8725 15.437V13.2832C33.8725 13.0678 33.7856 13.0247 33.6119 13.0247H33.3079V12.8093H35.0016V13.0247H34.7411C34.5239 13.0247 34.4805 13.0678 34.4805 13.2832V15.1786C34.4805 15.5662 34.5239 15.8247 34.7411 15.997C34.9582 16.1693 35.1754 16.2555 35.4794 16.2555C36.044 16.2555 36.4783 15.8678 36.4783 15.2647V13.757C36.4783 13.2832 36.4349 13.0678 35.9137 13.0678V12.8093H35.8703Z" fill="#6EBAC2"/>
<path d="M39.9093 12.8093H41.3425V13.0247C41.0819 13.0247 40.9082 13.1109 40.8647 13.2401C40.8213 13.3693 40.7779 13.5416 40.7779 13.8001V16.4709H40.5607L38.3458 13.4124V15.5662C38.3458 15.9539 38.3892 16.1262 38.9538 16.1693V16.3847H37.5206V16.1693C37.9549 16.1693 38.0852 15.997 38.0852 15.5662V13.1539C37.9549 13.0247 37.868 12.9816 37.564 12.9816H37.4772V12.7662H38.5195L40.4739 15.437V13.6709C40.4739 13.197 40.4304 12.9816 39.9093 12.9816V12.8093Z" fill="#6EBAC2"/>
<path d="M41.6465 16.1693H41.9071C42.1243 16.1693 42.1677 16.1262 42.1677 15.9109V13.2832C42.1677 13.0678 42.0808 13.0247 41.9071 13.0247H41.6465V12.8093H43.2969V13.0247H43.0363C42.8191 13.0247 42.7757 13.0678 42.7757 13.2832V15.9109C42.7757 16.1262 42.8626 16.1693 43.0363 16.1693H43.2969V16.3847H41.6465V16.1693Z" fill="#6EBAC2"/>
<path d="M43.4272 12.8093H44.9907V13.0247H44.7735C44.5998 13.0247 44.5129 13.0678 44.5129 13.1539C44.5129 13.2401 44.5564 13.3262 44.5998 13.3693L45.5118 15.6524L46.2501 13.6709C46.337 13.4555 46.337 13.3693 46.337 13.2401C46.337 13.0247 46.033 12.9816 45.8158 12.9816V12.7662H47.1622V12.9816C46.8147 12.9816 46.7279 13.0678 46.5976 13.4555L45.425 16.4278H45.2078L43.9918 13.3693C43.8615 13.0247 43.818 13.0247 43.4706 13.0247V12.8093H43.4272Z" fill="#6EBAC2"/>
<path d="M47.249 12.8093H50.2892L50.376 14.1016H50.1589C49.9852 13.0678 49.7246 13.0247 48.7257 13.0247C48.4217 13.0247 48.3348 13.0247 48.3348 13.2401V14.4462H48.5085C48.9428 14.4462 49.16 14.2739 49.16 13.757H49.3771V15.3939H49.16C49.16 14.9632 48.9863 14.6616 48.5954 14.6616H48.3348V15.997C48.3348 16.1693 48.4217 16.2124 48.7257 16.2124C49.8983 16.2124 49.9852 16.1263 50.2457 15.0924H50.4629L50.376 16.4278H47.2925V16.2124H47.5531C47.7702 16.2124 47.8136 16.1693 47.8136 15.9539V13.3262C47.8136 13.1109 47.7268 13.0678 47.5531 13.0678H47.2925V12.8093H47.249Z" fill="#6EBAC2"/>
<path d="M51.983 13.3262C51.983 13.1108 52.0264 13.0678 52.287 13.0678C52.8081 13.0678 53.0253 13.1108 53.1556 13.197C53.2859 13.3262 53.3293 13.4985 53.3293 13.7139C53.3293 14.2308 53.1122 14.4462 52.3304 14.4462C52.2001 14.4462 52.0698 14.4462 51.9395 14.4462V13.3262H51.983ZM50.8972 13.0247H51.1578C51.3749 13.0247 51.4184 13.0678 51.4184 13.2831V15.9108C51.4184 16.1262 51.3315 16.1693 51.1578 16.1693H50.8972V16.3847H52.5476V16.1693H52.287C52.0698 16.1693 52.0264 16.1262 52.0264 15.9108V14.6185H52.287C52.895 14.6185 53.0253 14.9201 53.1122 15.5662C53.1556 16.2555 53.4162 16.4278 53.7202 16.4278C54.1111 16.4278 54.3282 16.1693 54.3282 15.5662H54.1111C54.1111 15.9108 54.0676 16.0831 53.8939 16.0831C53.807 16.0831 53.7202 16.0401 53.6333 15.6955L53.503 15.2216C53.4162 14.8339 53.1556 14.5755 52.7213 14.5324C53.4162 14.4893 53.8939 14.1878 53.8939 13.6278C53.8939 12.9385 53.199 12.7231 52.6344 12.7231H50.8103V13.0247H50.8972Z" fill="#6EBAC2"/>
<path d="M56.8906 12.7662H57.0643L57.1077 14.0585H56.934C56.8037 13.4985 56.4129 12.9385 55.7614 12.9385C55.2837 12.9385 55.0665 13.2401 55.0665 13.5416C55.0665 13.8001 55.1968 14.0155 55.6745 14.1447L56.4563 14.3601C57.0209 14.5324 57.2815 14.877 57.2815 15.3939C57.2815 15.997 56.8472 16.4708 56.0654 16.4708C55.6745 16.4708 55.2837 16.3416 55.0231 16.0831L54.8059 16.4278H54.6322V15.0062H54.8059C54.9362 15.8247 55.4574 16.2555 56.0654 16.2555C56.5866 16.2555 56.8906 15.997 56.8906 15.5231C56.8906 15.2216 56.7603 15.0493 56.4129 14.9631L55.5877 14.7478C54.9796 14.6185 54.6322 14.317 54.6322 13.757C54.6322 13.0678 55.0665 12.7231 55.718 12.7231C56.0654 12.7231 56.3694 12.8093 56.63 13.0678L56.8906 12.7662Z" fill="#6EBAC2"/>
<path d="M57.7592 16.1693H58.0198C58.237 16.1693 58.2804 16.1262 58.2804 15.9109V13.2832C58.2804 13.0678 58.1935 13.0247 58.0198 13.0247H57.7592V12.8093H59.4096V13.0247H59.149C58.9318 13.0247 58.8884 13.0678 58.8884 13.2832V15.9109C58.8884 16.1262 58.9753 16.1693 59.149 16.1693H59.4096V16.3847H57.7592V16.1693Z" fill="#6EBAC2"/>
<path d="M60.4085 16.1693H60.7559C60.9731 16.1693 61.0165 16.1262 61.0165 15.9109V13.3262C61.0165 13.1109 60.9731 13.0247 60.7559 13.0247C60.2348 13.0247 60.0176 13.4555 59.8873 14.1878H59.6702L59.757 12.8093H62.7537L62.8406 14.1878H62.6234C62.4931 13.4124 62.276 13.0247 61.7548 13.0247C61.5811 13.0247 61.4942 13.1109 61.4942 13.3262V15.9109C61.4942 16.1262 61.5811 16.1693 61.7548 16.1693H62.1023V16.3847H60.4085V16.1693Z" fill="#6EBAC2"/>
<path d="M65.1424 12.8093H66.5756V13.0247C66.1847 13.0247 66.0544 13.197 65.8807 13.4986L65.099 14.9201V15.8678C65.099 16.1262 65.099 16.1693 65.403 16.1693H65.6636V16.3847H63.9698V16.1693H64.2303C64.5344 16.1693 64.5344 16.1262 64.5344 15.8678V14.9632L63.492 13.3262C63.3183 13.0678 63.2749 13.0247 63.0143 13.0247H62.884V12.8093H64.4909V13.0247H64.1869C64.0566 13.0247 64.0132 13.0678 64.0132 13.1109C64.0132 13.1539 64.0132 13.197 64.1001 13.3262L64.9252 14.6616L65.4898 13.6278C65.5767 13.4555 65.6201 13.3693 65.6201 13.2401C65.6201 13.0678 65.4898 13.0247 65.099 13.0247V12.8093H65.1424Z" fill="#6EBAC2"/>
<path d="M13.1127 5.0985H18.0638V5.8308C16.8477 5.87388 16.0225 6.3908 15.1974 7.25234L12.8956 9.49234L16.8043 15.0923C17.1952 15.6523 17.4558 15.8246 17.7163 15.8677C17.9769 15.9108 18.3678 15.9108 18.7152 15.9108V16.6431H13.243V15.9108H14.155C14.6328 15.9108 14.8934 15.8677 14.8934 15.6093C14.8934 15.3508 14.6762 15.0493 14.5025 14.7908L11.6795 10.7416L9.81199 12.68V15.1354C9.81199 15.7816 10.0726 15.9539 10.724 15.9539H11.5926V16.6862H6.25069V15.9539H7.1193C7.72733 15.9539 8.03134 15.7816 8.03134 15.1354V6.60619C8.03134 5.96003 7.77076 5.78773 7.1193 5.78773H6.25069V5.05542H11.5926V5.78773H10.724C10.116 5.78773 9.81199 5.96003 9.81199 6.60619V11.4739L14.0682 7.20927C14.3288 6.9508 14.5893 6.52003 14.5893 6.26157C14.5893 5.96003 14.2853 5.78773 13.4167 5.78773H13.1127V5.0985Z" fill="#6EBAC2"/>
<path d="M26.663 5.0985H31.1363V5.8308C29.486 5.87388 29.3123 6.60619 29.3123 8.0708V12.3354C29.3123 15.3077 27.8356 16.8585 24.8823 16.8585C22.4502 16.8585 20.3656 15.8677 20.3656 13.4985V6.60619C20.3656 5.96003 20.105 5.78773 19.4535 5.78773H18.5415V5.05542H23.9269V5.78773H23.0583C22.4502 5.78773 22.1462 5.96003 22.1462 6.60619V12.5939C22.1462 13.8862 22.2765 14.6185 22.9714 15.2216C23.6229 15.8247 24.3612 16.04 25.4035 16.04C27.1407 16.04 28.5739 14.7908 28.5739 12.8954V8.02773C28.5739 6.56311 28.4002 5.8308 26.7064 5.78773V5.0985H26.663Z" fill="#6EBAC2"/>
</svg>
